<ttFont>
          <CharString index="0" raw="1">
            f784451d fb184935 fb51fb57 cf3bf717
            431d4204 c4a95627 1ffb5a06 f092aabf
            d41b0b   
          </CharString>
          <CharString index="1" raw="1">
            ea06fb6e f94205fb 0506fb6e fd4205e3
            06baf72d 05f7a406 fb2ef815 1592a194
            c15e0a94 5692741e e8fbc505 fb73060e
          </CharString>
          <CharString index="2" raw="1">
            580afc68 062a5757 353557bf ec1ef868
            33fc6307 fb2ee03a f721f721 e0dcf72e
            1e0b   
          </CharString>
          <CharString index="3" raw="1">
            2845592b 828b848c 851fdc97 06b39eb6
            c9ce9b68 591e4707 0b 
          </CharString>
          <CharString index="4" raw="1">
            380649fb bc057e4f 834a8b1a 87068b84
            d382c01e 55f7bc05 2c0656fb bc058255
            84448b1a 87068b80 dd81b61e 49f7bc05
            3106f717 fca205e6 06c1f7c0 050b
          </CharString>
          <CharString index="5" raw="1">
            f76c940a 5235fb51 fb51c335 f710f708
            b8ecf702 1f3a0634 765c5049 6fc9f70d
            1eb107f7 0da8c9cc c69c6030 1ee006f7
            1a5cd4fb 061e0b  
          </CharString>
          <CharString index="6" raw="1">
            12b4e63e e8f78de6 3fe7991d f7a54a0a
            fb0c2951 fb121f13 eafb8cf7 f9e5fb41
            1a415763 2f1e13f2 3d51b3df 1f918c99
            8c1a3006 888a8184 1afb2bf5 54f711f7
            19eec3f7 2e1e13ea f785fbf8 39f7381a
            cdc2a9d3 1e13ecd0 c064451f 7ce69707
            f71d2bc3 fb0b1e0b  
          </CharString>
          <CharString index="7" raw="1">
            158a8e05 3106470a 0b 
          </CharString>
          <CharString index="8" raw="1">
            15f70545 d8fb1b1e fba8fd42 e3f7c3f7
            4c06f713 fbc305ed 06fb1ef7 d305d8a5
            b8cde01a fb64f702 15d6b461 47475d5e
            451ffb4d f773060e  
          </CharString>
          <CharString index="9" raw="1">
            f720eedc f7451f34 06fb0b4f 512ffb0c
            51401dc5 ddf70c1e 0b 
          </CharString>
          <CharString index="10" raw="1">
            e6b9c0bf b7a95d1d f80f07f7 0958b53c
            0b   
          </CharString>
          <CharString index="11" raw="1">
            f825951d 29fc2c05 8706fb08 f82c0531
            06f735fc a2053178 62705f1b 6e060b
          </CharString>
          <CharString index="12" raw="1">
            153d0635 870adb06 0b 
          </CharString>
          <CharString index="13" raw="1">
            fb2a0671 75a0a5a5 a0a0a61f c206f18c
            cdcef701 1abf79b5 6ea91e0b 
          </CharString>
          <CharString index="14" raw="1">
            550a5fda 053b06e0 870ad906 0b
          </CharString>
          <CharString index="15" raw="1">
            1535f718 0531068a 88f700fb 15050b
          </CharString>
          <CharString index="16" raw="1">
            fb2dfb05 6cfb25fb 13e376cc c8c1aabc
            b01f53ac c173d41b 431dfb5a fbf71539
            5263575d 729fc7dd d49bf61e f75af776
            15c4a956 271ffb5a 06f092aa bfd41b0b
          </CharString>
          <CharString index="17" raw="1">
            f746561d 0b  
          </CharString>
          <CharString index="18" raw="1">
            15342ce2 060b  
          </CharString>
          <CharString index="19" raw="1">
            e08bdbf7 87cbf76f db711df7 b9e70390
            f7d715cc fbd7f769 06f736ed f70af77f
            f77129f7 04fb361f fb69fbbf 4a06f7a2
            f76f491d f787f731 cbfb31f7 6f060e
          </CharString>
          <CharString index="20" raw="1">
            f721f934 154b0679 fb26055e 42b8fbea
            064fa14e d39fa491 93991ec4 73076c7b
            9caa1ff7 ecd2d444 070b 
          </CharString>
          <CharString index="21" raw="1">
            74887e83 79646aaa 601b4f72 515d1fc5
            060b   
          </CharString>
          <CharString index="22" raw="1">
            941dfb2b ea320a0e  
          </CharString>
          <CharString index="23" raw="1">
            b73c05db 060b  
          </CharString>
          <CharString index="24" raw="1">
            1a46be76 b69f9f90 94a01ebe 0b
          </CharString>
          <CharString index="25" raw="1">
            1513ec74 887e8479 1b13dc64 6aa9601b
            13ec620a 0b  
          </CharString>
          <CharString index="26" raw="1">
            5b65a7cd 1f953507 898a857d 1a3dbb3f
            f70decd2 bcf7051e 0b 
          </CharString>
          <CharString index="27" raw="1">
            054dfca2 ddf7d506 0b 
          </CharString>
          <CharString index="28" raw="1">
            b38bdbf7 7bdbf76b db0b 
          </CharString>
          <CharString index="29" raw="1">
            8a1d137c f82016f8 a239fbd5 0713bc65
            1d0b   
          </CharString>
          <CharString index="30" raw="1">
            4a0a4d06 fc34fd5a 05ca060b 
          </CharString>
          <CharString index="31" raw="1">
            7f4c0a0b   
          </CharString>
          <CharString index="32" raw="1">
            f942150b   
          </CharString>
          <CharString index="33" raw="1">
            156e066c 7658796c 870860db fb963c51
            f76ac542 070b  
          </CharString>
          <CharString index="34" raw="1">
            3f1d13dc 440a13bc 80c83b0a 13dc2a0a
            1e0b   
          </CharString>
          <CharString index="35" raw="1">
            06744405 b806a8d9 050b 
          </CharString>
          <CharString index="36" raw="1">
            f79e451d 575d7657 6e1f8506 0b
          </CharString>
          <CharString index="37" raw="1">
            154f5666 327e8d7a 8b1fcaaa 06af98a9
            adaf946f 751e20fb 3552fb10 1a7bf778
            cafb2b07 97a6a4a1 9ea008b6 babec5cd
            1ad959aa 4f1e0e  
          </CharString>
          <CharString index="38" raw="1">
            7c1d4b06 5eba921d 0b 
          </CharString>
          <CharString index="39" raw="1">
            35fb1805 0b  
          </CharString>
          <CharString index="40" raw="1">
            12c7591d 13cc610a 13ac80d0 3b0a13cc
            7e0a139c e00713cc 8b7a9375 1e139c0b
          </CharString>
          <CharString index="41" raw="1">
            a05a1d0b   
          </CharString>
          <CharString index="42" raw="1">
            f94e150b   
          </CharString>
          <CharString index="43" raw="1">
            521d060b   
          </CharString>
          <CharString index="44" raw="1">
            d4310a0b   
          </CharString>
          <CharString index="45" raw="1">
            15415f5e fb1cfb1b b75ed5d5 b7b7f71c
            f71c5fb8 411f5004 b3945c48 1f7c0748
            825c6363 82bace1e 9a07ce94 bab31e0b
          </CharString>
          <CharString index="46" raw="1">
            7fd46369 0a0b  
          </CharString>
          <CharString index="47" raw="1">
            b27960a2 581b3445 38fb53fb 55ca38ef
            bbb5a4bb a41f9006 0b 
          </CharString>
          <CharString index="48" raw="1">
            fb51f784 d2fb181a 58677060 1e0b
          </CharString>
          <CharString index="49" raw="1">
            ac06a593 837b787d 86751f3f 060b
          </CharString>
          <CharString index="50" raw="1">
            ddf74059 1d0b  
          </CharString>
          <CharString index="51" raw="1">
            154b5e5e 451f79ca 9807b6a0 9fa5a3a1
            79606274 78711e0b  
          </CharString>
          <CharString index="52" raw="1">
            86a3ab88 a71bb4ca 99ceb965 9b608e1f
            0b   
          </CharString>
          <CharString index="53" raw="1">
            9a1d5e3c 0b  
          </CharString>
          <CharString index="54" raw="1">
            5f7b6d6b 601a6c9b 6ca67a1e 0b
          </CharString>
          <CharString index="55" raw="1">
            15fb8f43 f78f060b  
          </CharString>
          <CharString index="56" raw="1">
            f89e481d 0b  
          </CharString>
          <CharString index="57" raw="1">
            0198e3f7 30e303f7 ed481dfc a406516f
            6c59596f aac51ebd 335e07fb 06c84ef4
            f4c8c8f7 061e0b  
          </CharString>
          <CharString index="58" raw="1">
            c7a4c5b9 1f0e  
          </CharString>
          <CharString index="59" raw="1">
            a31d7544 05b706a8 d9050b 
          </CharString>
          <CharString index="60" raw="1">
            859ca785 a31bdba3 c8c71f0b 
          </CharString>
          <CharString index="61" raw="1">
            a28e9893 9d1b0b  
          </CharString>
          <CharString index="62" raw="1">
            8b1a9c0a 0b  
          </CharString>
          <CharString index="63" raw="1">
            f8a2150b   
          </CharString>
          <CharString index="64" raw="1">
            1533fd42 e3f76906 f702f70e f73bfbe3
            05ef06fb 69f82df7 62f7a905 2906fba4
            fbff050e   
          </CharString>
          <CharString index="65" raw="1">
            f778451d 59716263 7e1f8506 0b
          </CharString>
          <CharString index="66" raw="1">
            4f72515d 1fc50613 dc5d0a13 ecb20b
          </CharString>
          <CharString index="67" raw="1">
            c5f7f9fb a03ef746 7b060b 
          </CharString>
          <CharString index="68" raw="1">
            15680a0b   
          </CharString>
          <CharString index="69" raw="1">
            2c0ab8da 701d  
          </CharString>
          <CharString index="70" raw="1">
            12ace240 e0f724e1 40e01300 0b
          </CharString>
          <CharString index="71" raw="1">
            69759e99 881f4a06 0b 
          </CharString>
          <CharString index="72" raw="1">
            27fb00ef 060b  
          </CharString>
          <CharString index="73" raw="1">
            766b0a0b   
          </CharString>
          <CharString index="74" raw="1">
            15caaa57 fb171f65 07fb176c 574c4c6c
            c9f70d1e b107f70d aac9ca1e 0e
          </CharString>
          <CharString index="75" raw="1">
            f8a2770b   
          </CharString>
          <CharString index="76" raw="1">
            fc069476 f95a7701 fb42f872 03f7c43e
            0a0e   
          </CharString>
          <CharString index="77" raw="1">
            cb66c045 1e5104a6 9d75660b 
          </CharString>
          <CharString index="78" raw="1">
            f71b53c3 120b  
          </CharString>
          <CharString index="79" raw="1">
            dbfbacf8 f233fd42 070e 
          </CharString>
          <CharString index="80" raw="1">
            d8babfb8 1f0e  
          </CharString>
          <CharString index="81" raw="1">
            f70001cb ef03f738 f7002b1d 0b
          </CharString>
          <CharString index="82" raw="1">
            ca54c9e5 c953ca66 1d0b 
          </CharString>
          <CharString index="83" raw="1">
            4566564b 689a6ca4 761f0b 
          </CharString>
          <CharString index="84" raw="1">
            e08bf4f7 d0f48b77 0b 
          </CharString>
          <CharString index="85" raw="1">
            6f1d7f77 0b  
          </CharString>
          <CharString index="86" raw="1">
            158a8e05 329c1d  
          </CharString>
          <CharString index="87" raw="1">
            158b9456 92741ee8 fbc505fb 7306e9f7
            c50592a1 94c18b1a 0b 
          </CharString>
          <CharString index="88" raw="1">
            830ab107 0b  
          </CharString>
          <CharString index="89" raw="1">
            f942770b   
          </CharString>
          <CharString index="90" raw="1">
            bb965c48 1f7c0748 805c5b5b 80bace1e
            9a07ce96 babb1e0b  
          </CharString>
          <CharString index="91" raw="1">
            153c0636 870adb06 0b 
          </CharString>
          <CharString index="92" raw="1">
            1533fbbb fba8f7bb 33fd42e3 f7cbf7a8
            fbcbe306 0e  
          </CharString>
          <CharString index="93" raw="1">
            06d7a6ad bebea766 3a1e7bdd 9807f723
            4cbe291e 0e  
          </CharString>
          <CharString index="94" raw="1">
            e8b9aabf 1ea6060b  
          </CharString>
          <CharString index="95" raw="1">
            f79f8be5 f895de0b  
          </CharString>
          <CharString index="96" raw="1">
            bd07f73b 0b  
          </CharString>
          <CharString index="97" raw="1">
            5f0a4406 f705fb5c fb05fb5c 05d206f7
            21f75c05 0b  
          </CharString>
          <CharString index="98" raw="1">
            3b5b61fb 1ffb1ebb 61dbdbbb b4f71ff7
            1f5bb53b 1f0b  
          </CharString>
          <CharString index="99" raw="1">
            fb0d6c4d 4c4c6cbf f7171e0b 
          </CharString>
          <CharString index="100" raw="1">
            12bce7f7 f8e71300 0b 
          </CharString>
          <CharString index="101" raw="1">
            65797570 7079a1b1 0b 
          </CharString>
          <CharString index="102" raw="1">
            b2ac6cb6 1b0b  
          </CharString>
          <CharString index="103" raw="1">
            fb1b050b   
          </CharString>
          <CharString index="104" raw="1">
            d401e6de f731dd03 f7904a0a 264f49fb
            191f0b   
          </CharString>
          <CharString index="105" raw="1">
            f718010b   
          </CharString>
          <CharString index="106" raw="1">
            691dfb44 f86515ca aa4cfb10 1f69070b
          </CharString>
          <CharString index="107" raw="1">
            550a5fda 053b06df 870ada06 0e
          </CharString>
          <CharString index="108" raw="1">
            fc1c38f8 1c060e  
          </CharString>
          <CharString index="109" raw="1">
            c299acbc ca1a0b  
          </CharString>
          <CharString index="110" raw="1">
            6a749e99 881f0b  
          </CharString>
          <CharString index="111" raw="1">
            f88c451d 4e5d7862 6a1fb272 5da04b1b
            0b   
          </CharString>
          <CharString index="112" raw="1">
            f8231526 fb03f006 0e 
          </CharString>
          <CharString index="113" raw="1">
            f7457fc5 f714c40b  
          </CharString>
          <CharString index="114" raw="1">
            fb3c25fb 09fb820b  
          </CharString>
          <CharString index="115" raw="1">
            5ebb57d7 1e0b  
          </CharString>
          <CharString index="116" raw="1">
            451dfb0f 0b  
          </CharString>
          <CharString index="117" raw="1">
            f9832f0a 0b  
          </CharString>
          <CharString index="118" raw="1">
            6106fb59 fb370576 07f759fb 3705b506
            0b   
          </CharString>
          <CharString index="119" raw="1">
            e0a076f7 c3dbf773 db0b 
          </CharString>
          <CharString index="120" raw="1">
            fb2c76f7 35d4f828 d40b 
          </CharString>
          <CharString index="121" raw="1">
            fbaba076 0b  
          </CharString>
          <CharString index="122" raw="1">
            7fc67176 f7b6c67f c6f787c6 7f77120b
          </CharString>
          <CharString index="123" raw="1">
            a70a0e   
          </CharString>
          <CharString index="124" raw="1">
            8f068b0b   
          </CharString>
          <CharString index="125" raw="1">
            681d87b8 f1b873dd 661d0b 
          </CharString>
          <CharString index="126" raw="1">
            fa04270a d1060b  
          </CharString>
          <CharString index="127" raw="1">
            870adc06 b8da701d  
          </CharString>
          <CharString index="128" raw="1">
            12bce7f7 eae51300 0b 
          </CharString>
          <CharString index="129" raw="1">
            a50afd42 0b  
          </CharString>
          <CharString index="130" raw="1">
            7d897378 691b0b  
          </CharString>
          <CharString index="131" raw="1">
            1f5907fb 3b470b  
          </CharString>
          <CharString index="132" raw="1">
            a5a09aab ae1a0b  
          </CharString>
          <CharString index="133" raw="1">
            f732481d 0b  
          </CharString>
          <CharString index="134" raw="1">
            935e9160 935f08b2 06a0f718 050b
          </CharString>
          <CharString index="135" raw="1">
            153530ae 430a0b  
          </CharString>
          <CharString index="136" raw="1">
            03f98ef8 3e156106 c5fb1d05 0b
          </CharString>
          <CharString index="137" raw="1">
            640a0e   
          </CharString>
          <CharString index="138" raw="1">
            85b11d0b   
          </CharString>
          <CharString index="139" raw="1">
            722f662a 613f0857 f72b070b 
          </CharString>
          <CharString index="140" raw="1">
            0663fb47 05d706b3 f747050b 
          </CharString>
          <CharString index="141" raw="1">
            430a0e   
          </CharString>
          <CharString index="142" raw="1">
            cb52cae8 ca52ca0b  
          </CharString>
          <CharString index="143" raw="1">
            fb4ad052 c40b  
          </CharString>
          <CharString index="144" raw="1">
            a398a296 9a0b  
          </CharString>
          <CharString index="145" raw="1">
            d1daf7ba da0b  
          </CharString>
          <CharString index="146" raw="1">
            a076f859 d40b  
          </CharString>
          <CharString index="147" raw="1">
            981d060b   
          </CharString>
          <CharString index="148" raw="1">
            fbab5af9 a4018cf7 77030b 
          </CharString>
          <CharString index="149" raw="1">
            d5c24dd3 1be8b8d5 8b1f0b 
          </CharString>
          <CharString index="150" raw="1">
            b21d0e   
          </CharString>
        <CharString name=".notdef">
          -279 0 50 600 50 hstem
          0 50 400 50 vstem
          500 700 rmoveto
          -500 -700 500 hlineto
          -250 305 rmoveto
          170 -255 rlineto
          -340 hlineto
          -30 555 rmoveto
          170 -255 -170 -255 rlineto
          400 510 rmoveto
          -510 vlineto
          -170 255 rlineto
          140 300 rmoveto
          -170 -255 -170 255 rlineto
          endchar
        </CharString>
        <CharString name="A">
          40 21 -21 153 80 381 72 hstem
          -1 549 vstem
          453 hmoveto
          95 hlineto
          -218 686 rlineto
          -113 hlineto
          -218 -686 rlineto
          88 hlineto
          47 153 rlineto
          272 hlineto
          -154 385 rmoveto
          7 22 9 54 0 vvcurveto
          4 hlineto
          0 9 -53 7 -23 vhcurveto
          93 -305 rlineto
          -223 hlineto
          endchar
        </CharString>
        <CharString name="AE">
          313 0 80 73 80 78 80 215 80 hstem
          -1 784 vstem
          783 hmoveto
          80 -254 vlineto
          -52 231 rlineto
          256 80 -274 hlineto
          -49 215 rlineto
          367 80 -498 hlineto
          -280 -686 rlineto
          88 hlineto
          59 153 rlineto
          273 hlineto
          34 -153 rlineto
          -155 543 rmoveto
          8 22 13 40 0 vvcurveto
          4 hlineto
          0 4 -39 7 -23 vhcurveto
          68 -310 rlineto
          -225 hlineto
          endchar
        </CharString>
        <CharString name="AEacute">
          313 0 80 73 80 78 80 215 80 65 132 hstem
          -1 784 vstem
          625 880 rmoveto
          -1 3 rlineto
          -90 hlineto
          -86 -132 rlineto
          69 hlineto
          266 -751 rmoveto
          80 -254 vlineto
          -52 231 rlineto
          256 80 -274 hlineto
          -49 215 rlineto
          367 80 -498 hlineto
          -280 -686 rlineto
          88 hlineto
          59 153 rlineto
          273 hlineto
          34 -153 rlineto
          -155 543 rmoveto
          8 22 13 40 0 vvcurveto
          4 hlineto
          0 4 -39 7 -23 vhcurveto
          68 -310 rlineto
          -225 hlineto
          endchar
        </CharString>
        <CharString name="Aacute">
          40 21 -21 153 80 381 72 65 132 hstem
          -1 549 vstem
          391 880 rmoveto
          -1 3 rlineto
          -90 hlineto
          -86 -132 rlineto
          69 hlineto
          170 -751 rmoveto
          95 hlineto
          -218 686 rlineto
          -113 hlineto
          -218 -686 rlineto
          88 hlineto
          47 153 rlineto
          272 hlineto
          -154 385 rmoveto
          7 22 9 54 0 vvcurveto
          4 hlineto
          0 9 -53 7 -23 vhcurveto
          93 -305 rlineto
          -223 hlineto
          endchar
        </CharString>
        <CharString name="Abreve">
          40 21 -21 153 80 381 72 100 64 hstem
          -1 549 vstem
          333 883 rmoveto
          -14 -1 -25 -19 -34 hhcurveto
          -33 -23 19 14 -3 hvcurveto
          -64 hlineto
          -45 47 -52 76 77 47 52 45 vhcurveto
          56 -883 rmoveto
          95 hlineto
          -218 686 rlineto
          -113 hlineto
          -218 -686 rlineto
          88 hlineto
          47 153 rlineto
          272 hlineto
          -154 385 rmoveto
          7 22 9 54 0 vvcurveto
          4 hlineto
          0 9 -53 7 -23 vhcurveto
          93 -305 rlineto
          -223 hlineto
          endchar
        </CharString>
        <CharString name="Acircumflex">
          40 21 -21 153 80 381 72 61 135 hstem
          -1 549 vstem
          313 882 rmoveto
          -78 hlineto
          -86 -135 rlineto
          80 hlineto
          45 79 44 -79 rlineto
          80 hlineto
          55 -747 rmoveto
          95 hlineto
          -218 686 rlineto
          -113 hlineto
          -218 -686 rlineto
          88 hlineto
          47 153 rlineto
          272 hlineto
          -154 385 rmoveto
          7 22 9 54 0 vvcurveto
          4 hlineto
          0 9 -53 7 -23 vhcurveto
          93 -305 rlineto
          -223 hlineto
          endchar
        </CharString>
        <CharString name="Adieresis">
          40 21 -21 153 80 381 72 102 95 hstem
          155 87 63 87 vstem
          453 hmoveto
          95 hlineto
          -218 686 rlineto
          -113 hlineto
          -218 -686 rlineto
          88 hlineto
          47 153 rlineto
          272 hlineto
          -154 385 rmoveto
          7 22 9 54 0 vvcurveto
          4 hlineto
          0 9 -53 7 -23 vhcurveto
          93 -305 rlineto
          -223 hlineto
          234 650 rmoveto
          -87 -95 87 hlineto
          -150 95 rmoveto
          -87 -95 87 hlineto
          endchar
        </CharString>
        <CharString name="Agrave">
          40 21 -21 153 80 381 72 65 132 hstem
          -1 549 vstem
          333 751 rmoveto
          -86 132 rlineto
          -90 hlineto
          -1 -3 108 -129 rlineto
          189 -751 rmoveto
          95 hlineto
          -218 686 rlineto
          -113 hlineto
          -218 -686 rlineto
          88 hlineto
          47 153 rlineto
          272 hlineto
          -154 385 rmoveto
          7 22 9 54 0 vvcurveto
          4 hlineto
          0 9 -53 7 -23 vhcurveto
          93 -305 rlineto
          -223 hlineto
          endchar
        </CharString>
        <CharString name="Amacron">
          40 21 -21 153 80 381 72 73 72 hstemhm
          148 251 hintmask 11111000
          399 831 rmoveto
          -251 -72 251 hlineto
          54 -759 rmoveto
          95 hlineto
          -218 686 rlineto
          -113 hlineto
          -218 -686 rlineto
          88 hlineto
          47 153 rlineto
          272 hlineto
          -154 385 rmoveto
          7 22 9 54 0 vvcurveto
          4 hlineto
          0 9 -53 7 -23 vhcurveto
          93 -305 rlineto
          -223 hlineto
          endchar
        </CharString>
        <CharString name="Aogonek">
          40 -182 65 138 -21 153 80 381 72 hstem
          416 78 vstem
          330 686 rmoveto
          -113 hlineto
          -218 -686 rlineto
          88 hlineto
          47 153 rlineto
          272 hlineto
          47 -153 rlineto
          -21 -23 -16 -27 -42 vvcurveto
          -69 51 -21 43 20 20 5 9 21 vhcurveto
          51 -31 vlineto
          -34 -12 27 28 24 13 23 11 15 hvcurveto
          30 hlineto
          -276 614 rmoveto
          0 9 -53 7 -23 vhcurveto
          93 -305 rlineto
          -223 hlineto
          94 305 rlineto
          7 22 9 54 0 vvcurveto
          endchar
        </CharString>
        <CharString name="Aring">
          40 21 -21 153 80 381 72 37 45 102 45 hstem
          177 45 102 45 vstem
          273 915 rmoveto
          -53 -43 -43 -53 -54 44 -42 52 54 42 43 53 52 -41 44 -55 hvcurveto
          -45 vmoveto
          27 24 -23 -28 -28 -24 -23 -27 -27 -24 23 28 28 24 23 27 hvcurveto
          180 -870 rmoveto
          95 hlineto
          -218 686 rlineto
          -113 hlineto
          -218 -686 rlineto
          88 hlineto
          47 153 rlineto
          272 hlineto
          -154 385 rmoveto
          7 22 9 54 0 vvcurveto
          4 hlineto
          0 9 -53 7 -23 vhcurveto
          93 -305 rlineto
          -223 hlineto
          endchar
        </CharString>
        <CharString name="Aringacute">
          40 21 -21 153 80 545 43 27 109 hstemhm
          178 45 102 45 hintmask 11101100
          274 821 rmoveto
          -53 -43 -41 -51 -28 12 -24 19 -16 hvcurveto
          -210 -661 rlineto
          88 hlineto
          47 153 rlineto
          272 hlineto
          47 -153 rlineto
          95 hlineto
          -210 660 rlineto
          19 17 13 24 28 vvcurveto
          50 -42 42 -54 vhcurveto
          -2 -207 rmoveto
          0 9 -53 7 -23 vhcurveto
          93 -305 rlineto
          -223 hlineto
          94 305 rlineto
          7 22 9 54 0 vvcurveto
          6 164 rmoveto
          27 24 -22 -27 -27 -24 -22 -27 -28 -23 22 27 27 23 22 28 hvcurveto
          hintmask 11111100
          130 179 rmoveto
          -90 hlineto
          -71 -109 rlineto
          69 hlineto
          93 105 rlineto
          endchar
        </CharString>
        <CharString name="Atilde">
          40 21 -21 153 80 381 72 93 74 -43 73 hstemhm
          -1 549 hintmask 11101100
          361 883 rmoveto
          hintmask 11110100
          -23 -3 -13 -7 -18 hhcurveto
          hintmask 11101100
          -39 -33 30 -43 hhcurveto
          hintmask 11110100
          -60 -25 -58 -46 hvcurveto
          59 hlineto
          hintmask 11101100
          23 2 13 8 18 hhcurveto
          hintmask 11110100
          39 33 -31 43 hhcurveto
          hintmask 11101100
          61 24 58 46 hvcurveto
          34 -883 rmoveto
          95 hlineto
          -218 686 rlineto
          -113 hlineto
          -218 -686 rlineto
          88 hlineto
          47 153 rlineto
          272 hlineto
          -154 385 rmoveto
          7 22 9 54 0 vvcurveto
          4 hlineto
          0 9 -53 7 -23 vhcurveto
          93 -305 rlineto
          -223 hlineto
          endchar
        </CharString>
        <CharString name="B">
          40 0 80 231 80 215 80 hstemhm
          65 88 257 92 -76 92 hintmask 11110100
          65 hmoveto
          260 hlineto
          105 88 67 115 88 -53 65 -68 21 hvcurveto
          4 vlineto
          hintmask 11111000
          59 21 46 58 79 vvcurveto
          101 -75 67 -102 vhcurveto
          -260 hlineto
          242 -375 rmoveto
          hintmask 11110100
          73 46 -55 -62 -74 -48 -40 -65 hvcurveto
          -160 231 hlineto
          152 295 rmoveto
          hintmask 11111000
          63 42 -35 -72 -58 -44 -50 -67 hvcurveto
          -146 215 hlineto
          endchar
        </CharString>
        <CharString name="C">
          85 -12 81 548 81 hstemhm
          42 92 327 90 -87 87 hintmask 11110000
          312 698 rmoveto
          -178 -92 -117 -238 -238 92 -117 178 hvcurveto
          hintmask 11101000
          140 99 81 177 hvcurveto
          -87 hlineto
          -119 -60 -58 -92 -120 -58 82 167 vhcurveto
          50 vlineto
          167 58 82 120 vhcurveto
          hintmask 11110000
          90 59 -59 -120 hvcurveto
          90 hlineto
          175 -99 85 -140 vhcurveto
          endchar
        </CharString>
        <CharString name="CR">
          -507 endchar
        </CharString>
        <CharString name="Cacute">
          85 -12 81 548 81 53 132 hstemhm
          42 92 327 90 -87 87 hintmask 11111000
          312 698 rmoveto
          -178 -92 -117 -238 -238 92 -117 178 hvcurveto
          hintmask 11110100
          140 99 81 177 hvcurveto
          -87 hlineto
          -119 -60 -58 -92 -120 -58 82 167 vhcurveto
          50 vlineto
          167 58 82 120 vhcurveto
          hintmask 11111000
          90 59 -59 -120 hvcurveto
          90 hlineto
          175 -99 85 -140 vhcurveto
          hintmask 11110100
          116 182 rmoveto
          -1 3 rlineto
          -90 hlineto
          -86 -132 rlineto
          69 hlineto
          endchar
        </CharString>
        <CharString name="Ccaron">
          85 -12 81 548 81 50 135 hstemhm
          42 92 327 90 -87 87 hintmask 11111000
          312 698 rmoveto
          -178 -92 -117 -238 -238 92 -117 178 hvcurveto
          hintmask 11110100
          140 99 81 177 hvcurveto
          -87 hlineto
          -119 -60 -58 -92 -120 -58 82 167 vhcurveto
          50 vlineto
          167 58 82 120 vhcurveto
          hintmask 11111000
          90 59 -59 -120 hvcurveto
          90 hlineto
          175 -99 85 -140 vhcurveto
          hintmask 11110100
          109 185 rmoveto
          -80 hlineto
          -45 -79 -45 79 rlineto
          -80 hlineto
          85 -135 rlineto
          78 hlineto
          endchar
        </CharString>
        <CharString name="Ccedilla">
          85 -182 57 -28 -21 97 41 24 81 -56 -21 625 81 hstemhm
          42 92 180 76 71 90 -87 87 hintmask 1000111110000000
          312 698 rmoveto
          -178 -92 -117 -238 -213 73 -116 143 -22 hvcurveto
          hintmask 1011011101000000
          -11 -69 rlineto
          33 hlineto
          26 8 -8 -16 -19 -14 -5 -22 hvcurveto
          -76 hlineto
          hintmask 0101011101000000
          -49 vlineto
          hintmask 1011011101000000
          -5 24 32 -3 28 hhcurveto
          41 63 14 67 46 -38 16 -43 3 hvcurveto
          hintmask 1001011101000000
          3 24 rlineto
          140 99 81 177 hvcurveto
          -87 hlineto
          -119 -60 -58 -92 -120 -58 82 167 vhcurveto
          50 vlineto
          167 58 82 120 vhcurveto
          hintmask 1001011110000000
          90 59 -59 -120 hvcurveto
          90 hlineto
          hintmask 1000111110000000
          175 -99 85 -140 vhcurveto
          endchar
        </CharString>
        <CharString name="Ccircumflex">
          85 -12 81 548 81 49 135 hstemhm
          42 92 327 90 -87 87 hintmask 11111000
          312 698 rmoveto
          -178 -92 -117 -238 -238 92 -117 178 hvcurveto
          hintmask 11110100
          140 99 81 177 hvcurveto
          -87 hlineto
          -119 -60 -58 -92 -120 -58 82 167 vhcurveto
          50 vlineto
          167 58 82 120 vhcurveto
          hintmask 11111000
          90 59 -59 -120 hvcurveto
          90 hlineto
          175 -99 85 -140 vhcurveto
          hintmask 11110100
          23 184 rmoveto
          -78 hlineto
          -86 -135 rlineto
          80 hlineto
          46 79 44 -79 rlineto
          80 hlineto
          endchar
        </CharString>
        <CharString name="Cdotaccent">
          85 -12 81 548 81 90 95 hstemhm
          42 92 118 88 121 90 -87 87 hintmask 11111100
          312 698 rmoveto
          -178 -92 -117 -238 -238 92 -117 178 hvcurveto
          hintmask 11111010
          140 99 81 177 hvcurveto
          -87 hlineto
          -119 -60 -58 -92 -120 -58 82 167 vhcurveto
          50 vlineto
          167 58 82 120 vhcurveto
          hintmask 11111100
          90 59 -59 -120 hvcurveto
          90 hlineto
          175 -99 85 -140 vhcurveto
          hintmask 11111010
          28 185 rmoveto
          -88 -95 88 hlineto
          endchar
        </CharString>
        <CharString name="D">
          85 0 80 526 80 hstem
          70 88 293 92 vstem
          283 hmoveto
          162 98 118 235 221 -98 112 -162 hvcurveto
          -213 -686 hlineto
          205 606 rmoveto
          108 68 -75 -153 hvcurveto
          -50 vlineto
          -167 -68 -81 -108 vhcurveto
          -117 526 hlineto
          endchar
        </CharString>
        <CharString name="Dcaron">
          85 0 80 526 80 62 135 hstem
          70 88 293 92 vstem
          421 883 rmoveto
          -80 hlineto
          -45 -79 -45 79 rlineto
          -80 hlineto
          85 -135 rlineto
          78 hlineto
          -51 -748 rmoveto
          162 98 118 235 221 -98 112 -162 hvcurveto
          -213 -686 hlineto
          205 606 rmoveto
          108 68 -75 -153 hvcurveto
          -50 vlineto
          -167 -68 -81 -108 vhcurveto
          -117 526 hlineto
          endchar
        </CharString>
        <CharString name="Dcroat">
          85 0 80 243 64 219 80 hstem
          70 88 293 92 vstem
          5 323 rmoveto
          65 -323 213 hlineto
          162 98 118 235 221 -98 112 -162 hvcurveto
          -213 -299 -65 hlineto
          270 219 rmoveto
          108 68 -75 -153 hvcurveto
          -50 vlineto
          -167 -68 -81 -108 vhcurveto
          -117 243 157 64 -157 219 hlineto
          endchar
        </CharString>
        <CharString name="Delta">
          52 0 84 505 97 hstem
          16 532 vstem
          16 hmoveto
          532 38 hlineto
          -210 648 rlineto
          -113 hlineto
          -209 -648 rlineto
          261 551 rmoveto
          4 hlineto
          155 -505 rlineto
          -319 hlineto
          endchar
        </CharString>
        <CharString name="E">
          40 0 80 231 80 215 80 hstem
          70 88 vstem
          499 hmoveto
          80 -341 231 291 80 -291 215 335 80 -423 -686 vlineto
          endchar
        </CharString>
        <CharString name="Eacute">
          40 0 80 231 80 215 80 65 132 hstem
          70 88 vstem
          391 880 rmoveto
          -1 3 rlineto
          -90 hlineto
          -86 -132 rlineto
          69 hlineto
          216 -751 rmoveto
          80 -341 231 291 80 -291 215 335 80 -423 -686 vlineto
          endchar
        </CharString>
        <CharString name="Ebreve">
          40 0 80 231 80 215 80 100 64 hstem
          70 88 vstem
          333 883 rmoveto
          -14 -1 -25 -19 -34 hhcurveto
          -33 -23 19 14 -3 hvcurveto
          -64 hlineto
          -45 47 -52 76 77 47 52 45 vhcurveto
          102 -883 rmoveto
          80 -341 231 291 80 -291 215 335 80 -423 -686 vlineto
          endchar
        </CharString>
        <CharString name="Ecaron">
          40 0 80 231 80 215 80 62 135 hstem
          70 88 vstem
          398 883 rmoveto
          -80 hlineto
          -45 -79 -44 79 rlineto
          -80 hlineto
          85 -135 rlineto
          78 hlineto
          187 -748 rmoveto
          80 -341 231 291 80 -291 215 335 80 -423 -686 vlineto
          endchar
        </CharString>
        <CharString name="Ecircumflex">
          40 0 80 231 80 215 80 61 135 hstem
          70 88 vstem
          313 882 rmoveto
          -78 hlineto
          -86 -135 rlineto
          80 hlineto
          45 79 44 -79 rlineto
          80 hlineto
          101 -747 rmoveto
          80 -341 231 291 80 -291 215 335 80 -423 -686 vlineto
          endchar
        </CharString>
        <CharString name="Edieresis">
          40 0 80 231 80 215 80 102 95 hstemhm
          70 88 -3 87 63 87 hintmask 11111010
          392 883 rmoveto
          -87 -95 87 hlineto
          hintmask 11110110
          -150 95 rmoveto
          -87 -95 87 hlineto
          257 -788 rmoveto
          80 vlineto
          hintmask 11111010
          -341 231 291 80 -291 215 335 80 -423 -686 hlineto
          endchar
        </CharString>
        <CharString name="Edotaccent">
          40 0 80 231 80 215 80 102 95 hstem
          70 88 72 87 vstem
          317 883 rmoveto
          -87 -95 87 hlineto
          182 -788 rmoveto
          80 -341 231 291 80 -291 215 335 80 -423 -686 vlineto
          endchar
        </CharString>
        <CharString name="Egrave">
          40 0 80 231 80 215 80 65 132 hstem
          70 88 vstem
          333 751 rmoveto
          -86 132 rlineto
          -90 hlineto
          -1 -3 108 -129 rlineto
          235 -751 rmoveto
          80 -341 231 291 80 -291 215 335 80 -423 -686 vlineto
          endchar
        </CharString>
        <CharString name="Emacron">
          40 0 80 231 80 215 80 73 72 hstemhm
          70 88 -10 251 hintmask 11110100
          399 831 rmoveto
          -251 -72 251 hlineto
          100 -759 rmoveto
          80 vlineto
          hintmask 11111000
          -341 231 291 80 -291 215 335 80 -423 -686 hlineto
          endchar
        </CharString>
        <CharString name="Eng">
          85 -182 69 -57 57 134 -21 686 -20 hstemhm
          70 79 294 79 hintmask 10111100
          522 686 rmoveto
          -82 hlineto
          3 -431 rlineto
          -22 3 -69 0 vhcurveto
          -3 -1 rlineto
          0 -27 66 -15 26 vhcurveto
          -255 431 rlineto
          -76 -686 79 437 hlineto
          28 -4 63 0 vhcurveto
          3 1 rlineto
          0 27 -63 17 -29 vhcurveto
          248 -422 rlineto
          -80 vlineto
          -31 -16 -17 -31 vhcurveto
          -44 hlineto
          hintmask 01111100
          -57 vlineto
          hintmask 10111100
          -6 17 28 -6 24 hhcurveto
          80 24 61 60 hvcurveto
          endchar
        </CharString>
        <CharString name="Eogonek">
          40 -182 65 117 80 231 80 215 80 hstem
          70 88 239 78 vstem
          493 686 rmoveto
          -423 -686 364 hlineto
          -21 -23 -16 -27 -42 vvcurveto
          -69 51 -21 43 20 20 5 9 21 vhcurveto
          51 -31 vlineto
          -34 -12 27 28 24 13 23 11 15 hvcurveto
          80 -341 231 291 80 -291 215 335 vlineto
          endchar
        </CharString>
        <CharString name="Eth">
          85 0 80 243 64 219 80 hstem
          70 88 293 92 vstem
          5 323 rmoveto
          65 -323 213 hlineto
          162 98 118 235 221 -98 112 -162 hvcurveto
          -213 -299 -65 hlineto
          270 219 rmoveto
          108 68 -75 -153 hvcurveto
          -50 vlineto
          -167 -68 -81 -108 vhcurveto
          -117 243 157 64 -157 219 hlineto
          endchar
        </CharString>
        <CharString name="Euro">
          -51 -12 73 182 65 70 65 182 73 -10 -20 hstemhm
          75 83 hintmask 11110100
          360 698 rmoveto
          -151 -99 -92 -163 -28 hvcurveto
          -63 -65 56 hlineto
          -1 -12 0 -11 0 -12 0 -12 0 -12 1 -11 50 flex
          -56 -65 63 hlineto
          -163 28 99 -92 151 hhcurveto
          23 22 4 6 22 hvcurveto
          71 vlineto
          -5 -18 -18 -3 -19 hhcurveto
          -96 -81 57 125 -28 hvcurveto
          202 65 -211 hlineto
          -1 11 0 12 0 12 0 12 0 11 1 12 50 flex
          211 65 -202 hlineto
          125 28 81 57 96 hhcurveto
          19 18 -3 -5 18 hvcurveto
          hintmask 11101100
          71 vlineto
          hintmask 11110100
          7 -22 -22 3 -23 hhcurveto
          endchar
        </CharString>
        <CharString name="F">
          -6 21 -21 304 80 222 80 hstem
          70 88 vstem
          158 hmoveto
          304 272 80 -272 222 308 80 -396 -686 vlineto
          endchar
        </CharString>
        <CharString name="G">
          131 -12 81 -48 -21 280 77 260 81 hstemhm
          49 92 342 90 hintmask 01111100
          515 hmoveto
          58 357 -268 -77 178 -16 hlineto
          hintmask 10111100
          -131 -50 -64 -114 -115 -63 82 167 vhcurveto
          50 vlineto
          167 70 82 113 94 65 -51 -114 vhcurveto
          90 hlineto
          166 -106 80 -143 -171 -104 -117 -238 -238 97 -117 173 74 61 26 62 42 vhcurveto
          endchar
        </CharString>
        <CharString name="Gbreve">
          131 -12 81 -48 -21 280 77 260 81 88 64 hstemhm
          49 92 342 90 hintmask 10111110
          379 883 rmoveto
          -14 -2 -24 -19 -34 hhcurveto
          -33 -23 19 14 -3 hvcurveto
          -64 hlineto
          -45 47 -52 76 77 47 52 45 vhcurveto
          hintmask 01111110
          72 -883 rmoveto
          58 357 -268 -77 178 -16 hlineto
          hintmask 10111110
          -131 -50 -64 -114 -115 -63 82 167 vhcurveto
          50 vlineto
          167 70 82 113 94 65 -51 -114 vhcurveto
          90 hlineto
          166 -106 80 -143 -171 -104 -117 -238 -238 97 -117 173 74 61 26 62 42 vhcurveto
          endchar
        </CharString>
        <CharString name="Gcircumflex">
          131 -12 81 -48 -21 280 77 260 81 49 135 hstemhm
          49 92 342 90 hintmask 10111110
          359 882 rmoveto
          -78 hlineto
          -86 -135 rlineto
          80 hlineto
          45 79 44 -79 rlineto
          80 hlineto
          hintmask 01111110
          71 -747 rmoveto
          58 357 -268 -77 178 -16 hlineto
          hintmask 10111110
          -131 -50 -64 -114 -115 -63 82 167 vhcurveto
          50 vlineto
          167 70 82 113 94 65 -51 -114 vhcurveto
          90 hlineto
          166 -106 80 -143 -171 -104 -117 -238 -238 97 -117 173 74 61 26 62 42 vhcurveto
          endchar
        </CharString>
        <CharString name="Gcommaaccent">
          131 -151 91 48 81 -48 -21 280 77 260 81 hstemhm
          49 92 136 85 121 90 hintmask 11011111
          362 -60 rmoveto
          -85 -91 34 hlineto
          -22 -71 rlineto
          44 hlineto
          29 78 rlineto
          hintmask 10111111
          153 144 rmoveto
          58 357 -268 -77 178 -16 hlineto
          hintmask 11011111
          -131 -50 -64 -114 -115 -63 82 167 vhcurveto
          50 vlineto
          167 70 82 113 94 65 -51 -114 vhcurveto
          90 hlineto
          166 -106 80 -143 -171 -104 -117 -238 -238 97 -117 173 74 61 26 62 42 vhcurveto
          endchar
        </CharString>
        <CharString name="Gdotaccent">
          131 -12 81 -48 -21 280 77 260 81 90 95 hstemhm
          49 92 135 87 120 90 hintmask 10111111
          363 883 rmoveto
          -87 -95 87 hlineto
          hintmask 01111111
          152 -788 rmoveto
          58 357 -268 -77 178 -16 hlineto
          hintmask 10111111
          -131 -50 -64 -114 -115 -63 82 167 vhcurveto
          50 vlineto
          167 70 82 113 94 65 -51 -114 vhcurveto
          90 hlineto
          166 -106 80 -143 -171 -104 -117 -238 -238 97 -117 173 74 61 26 62 42 vhcurveto
          endchar
        </CharString>
        <CharString name="H">
          85 21 -21 311 80 295 -20 hstem
          70 88 276 88 vstem
          522 686 rmoveto
          -88 -295 -276 295 -88 -686 88 311 276 -311 88 hlineto
          endchar
        </CharString>
        <CharString name="Hbar">
          85 21 -21 306 80 104 72 -72 196 hstemhm
          70 88 276 88 hintmask 11101100
          572 562 rmoveto
          -50 hlineto
          hintmask 11011100
          124 -88 vlineto
          hintmask 11101100
          -124 -276 vlineto
          hintmask 11011100
          124 -88 vlineto
          hintmask 11101100
          -124 -50 -72 50 -490 88 306 276 -306 88 490 50 vlineto
          -414 -104 rmoveto
          104 276 -104 vlineto
          endchar
        </CharString>
        <CharString name="Hcircumflex">
          85 21 -21 311 80 295 -20 81 135 hstem
          70 88 276 88 vstem
          335 882 rmoveto
          -78 hlineto
          -86 -135 rlineto
          80 hlineto
          46 79 44 -79 rlineto
          80 hlineto
          101 -61 rmoveto
          -88 -295 -276 295 -88 -686 88 311 276 -311 88 hlineto
          endchar
        </CharString>
        <CharString name="I">
          -279 21 -21 686 -20 hstem
          70 88 vstem
          158 686 rmoveto
          -88 -686 88 hlineto
          endchar
        </CharString>
        <CharString name="IJ">
          131 -12 81 -69 208 -187 -21 686 -20 hstemhm
          70 88 83 88 156 88 hintmask 10011110
          158 686 rmoveto
          -88 hlineto
          hintmask 00111110
          -686 88 vlineto
          415 686 rmoveto
          -88 hlineto
          hintmask 10011110
          -528 vlineto
          -58 -28 -31 -50 -50 -28 31 58 vhcurveto
          hintmask 01011110
          50 -88 -45 vlineto
          hintmask 10011110
          -114 61 -61 105 105 61 61 114 vhcurveto
          endchar
        </CharString>
        <CharString name="Iacute">
          -279 21 -21 686 -20 85 132 hstem
          70 88 vstem
          158 hmoveto
          686 -88 -686 vlineto
          161 880 rmoveto
          -1 3 rlineto
          -89 hlineto
          -86 -132 rlineto
          69 hlineto
          endchar
        </CharString>
        <CharString name="Ibreve">
          -279 21 -21 686 -20 120 64 hstem
          70 88 vstem
          158 686 rmoveto
          -88 -686 88 hlineto
          16 883 rmoveto
          -14 -2 -24 -19 -34 hhcurveto
          -33 -23 19 14 -3 hvcurveto
          -65 hlineto
          -45 48 -52 76 77 47 52 45 vhcurveto
          endchar
        </CharString>
        <CharString name="Icircumflex">
          -279 21 -21 686 -20 81 135 hstem
          70 88 vstem
          158 686 rmoveto
          -88 -686 88 hlineto
          -4 882 rmoveto
          -78 hlineto
          -87 -135 rlineto
          81 hlineto
          45 79 44 -79 rlineto
          80 hlineto
          endchar
        </CharString>
        <CharString name="Idieresis">
          -279 21 -21 686 -20 122 95 hstemhm
          -4 87 -13 88 -12 87 hintmask 11101000
          158 686 rmoveto
          -88 -686 88 hlineto
          hintmask 11110100
          75 883 rmoveto
          -87 -95 87 hlineto
          -150 95 rmoveto
          -87 -95 87 hlineto
          endchar
        </CharString>
        <CharString name="Idotaccent">
          -279 21 -21 686 -20 122 95 hstem
          70 88 vstem
          158 686 rmoveto
          -88 -686 88 hlineto
          883 vmoveto
          -87 -95 87 hlineto
          endchar
        </CharString>
        <CharString name="Igrave">
          -279 21 -21 686 -20 85 132 hstem
          70 88 vstem
          158 hmoveto
          686 -88 -686 vlineto
          104 751 rmoveto
          -86 132 rlineto
          -90 hlineto
          -1 -3 108 -129 rlineto
          endchar
        </CharString>
        <CharString name="Imacron">
          -279 21 -21 686 -20 93 72 hstem
          70 88 vstem
          158 686 rmoveto
          -88 -686 88 hlineto
          82 831 rmoveto
          -251 -72 251 hlineto
          endchar
        </CharString>
        <CharString name="Iogonek">
          -279 -182 65 138 -21 686 -20 hstem
          70 88 vstem
          158 686 rmoveto
          -88 -686 16 hlineto
          -21 -23 -16 -27 -42 vvcurveto
          -69 52 -21 43 20 20 5 9 21 vhcurveto
          51 -32 vlineto
          -33 -13 27 28 24 13 23 11 15 hvcurveto
          7 hlineto
          endchar
        </CharString>
        <CharString name="Itilde">
          -279 21 -21 686 -20 113 74 -43 73 hstemhm
          70 88 hintmask 11011000
          158 686 rmoveto
          -88 -686 88 hlineto
          44 883 rmoveto
          hintmask 11101000
          -23 -3 -13 -7 -18 hhcurveto
          hintmask 11011000
          -39 -33 30 -43 hhcurveto
          hintmask 11101000
          -60 -25 -58 -46 hvcurveto
          58 hlineto
          hintmask 11011000
          23 3 13 8 18 hhcurveto
          hintmask 11101000
          39 33 -31 43 hhcurveto
          hintmask 11011000
          60 25 58 46 hvcurveto
          endchar
        </CharString>
        <CharString name="J">
          -97 -12 81 617 -20 hstem
          13 88 156 88 vstem
          345 686 rmoveto
          -88 -528 hlineto
          -58 -28 -31 -50 -50 -28 31 58 vhcurveto
          50 -88 -45 vlineto
          -114 61 -61 105 105 61 61 114 vhcurveto
          endchar
        </CharString>
        <CharString name="Jcircumflex">
          -97 -12 81 617 -20 81 135 hstem
          13 88 156 88 vstem
          345 686 rmoveto
          -88 -528 hlineto
          -58 -28 -31 -50 -50 -28 31 58 vhcurveto
          50 -88 -45 vlineto
          -114 61 -61 105 105 61 61 114 vhcurveto
          -4 719 rmoveto
          -78 hlineto
          -86 -135 rlineto
          80 hlineto
          46 79 44 -79 rlineto
          80 hlineto
          endchar
        </CharString>
        <CharString name="K">
          40 21 -21 686 -20 hstem
          70 88 vstem
          158 686 rmoveto
          -88 -686 88 213 hlineto
          110 122 167 -335 rlineto
          100 hlineto
          -213 409 206 277 rlineto
          -98 hlineto
          -272 -363 rlineto
          endchar
        </CharString>
        <CharString name="Kcommaaccent">
          40 -151 91 81 -21 686 -20 hstem
          70 88 73 85 vstem
          316 -60 rmoveto
          -85 -91 34 hlineto
          -22 -71 rlineto
          44 hlineto
          29 78 rlineto
          -158 830 rmoveto
          -88 -686 88 213 hlineto
          110 122 167 -335 rlineto
          100 hlineto
          -213 409 206 277 rlineto
          -98 hlineto
          -272 -363 rlineto
          endchar
        </CharString>
        <CharString name="L">
          -51 0 80 606 -20 hstem
          70 88 vstem
          438 hmoveto
          80 -280 606 -88 -686 vlineto
          endchar
        </CharString>
        <CharString name="Lacute">
          -51 0 80 606 -20 85 132 hstem
          70 88 vstem
          228 880 rmoveto
          -1 3 rlineto
          -90 hlineto
          -86 -132 rlineto
          70 hlineto
          317 -751 rmoveto
          80 -280 606 -88 -686 vlineto
          endchar
        </CharString>
        <CharString name="Lcaron">
          -51 0 80 498 108 hstem
          70 88 161 100 vstem
          419 686 rmoveto
          -100 -108 40 hlineto
          -40 -124 rlineto
          52 hlineto
          48 133 rlineto
          19 -587 rmoveto
          80 -280 606 -88 -686 vlineto
          endchar
        </CharString>
        <CharString name="Lcommaaccent">
          -51 -151 91 60 80 606 -20 hstemhm
          70 88 28 85 hintmask 11111000
          271 -60 rmoveto
          -85 -91 34 hlineto
          -23 -71 rlineto
          45 hlineto
          29 78 rlineto
          167 144 rmoveto
          80 vlineto
          hintmask 11110000
          -280 606 -88 -686 hlineto
          endchar
        </CharString>
        <CharString name="Ldot">
          -51 0 80 334 111 161 -20 hstem
          70 88 137 101 vstem
          396 525 rmoveto
          -101 -111 101 hlineto
          42 -414 rmoveto
          80 -280 606 -88 -686 vlineto
          endchar
        </CharString>
        <CharString name="Lslash">
          -51 0 80 606 -20 hstem
          70 88 vstem
          158 686 rmoveto
          -88 -369 hlineto
          -70 -62 rlineto
          -71 vlineto
          70 61 rlineto
          -245 368 80 -280 243 vlineto
          137 121 rlineto
          73 vlineto
          -137 -122 rlineto
          endchar
        </CharString>
        <CharString name="M">
          176 0 82 522 82 hstem
          62 79 392 88 vstem
          621 hmoveto
          686 -133 vlineto
          -122 -450 rlineto
          -13 -48 -9 -106 0 vvcurveto
          -4 hlineto
          0 -10 104 -13 50 vhcurveto
          -121 450 rlineto
          -134 -686 79 498 hlineto
          20 -6 86 0 vhcurveto
          4 hlineto
          0 16 -87 5 -19 vhcurveto
          137 -498 rlineto
          79 hlineto
          137 498 rlineto
          7 24 16 82 0 vvcurveto
          4 hlineto
          0 -7 -82 -24 hvcurveto
          -498 vlineto
          endchar
        </CharString>
        <CharString name="N">
          85 21 -21 686 -20 hstem
          70 79 294 79 vstem
          522 686 rmoveto
          -79 -431 hlineto
          -22 3 -69 0 vhcurveto
          -3 -1 rlineto
          0 -27 66 -15 26 vhcurveto
          -255 431 rlineto
          -76 -686 79 437 hlineto
          28 -4 63 0 vhcurveto
          3 1 rlineto
          0 27 -63 17 -29 vhcurveto
          257 -437 rlineto
          73 hlineto
          endchar
        </CharString>
        <CharString name="NULL">
          -507 endchar
        </CharString>
        <CharString name="Nacute">
          85 21 -21 686 -20 85 132 hstem
          70 79 294 79 vstem
          522 hmoveto
          686 -79 -431 vlineto
          -22 3 -69 0 vhcurveto
          -3 -1 rlineto
          0 -27 66 -15 26 vhcurveto
          -255 431 rlineto
          -76 -686 79 437 hlineto
          28 -4 63 0 vhcurveto
          3 1 rlineto
          0 27 -63 17 -29 vhcurveto
          257 -437 rlineto
          -36 880 rmoveto
          -1 3 rlineto
          -90 hlineto
          -86 -132 rlineto
          70 hlineto
          endchar
        </CharString>
        <CharString name="Ncaron">
          85 21 -21 686 -20 82 135 hstem
          70 79 294 79 vstem
          522 686 rmoveto
          -79 -431 hlineto
          -22 3 -69 0 vhcurveto
          -3 -1 rlineto
          0 -27 66 -15 26 vhcurveto
          -255 431 rlineto
          -76 -686 79 437 hlineto
          28 -4 63 0 vhcurveto
          3 1 rlineto
          0 27 -63 17 -29 vhcurveto
          257 -437 rlineto
          73 hlineto
          -101 883 rmoveto
          -80 hlineto
          -45 -79 -45 79 rlineto
          -80 hlineto
          85 -135 rlineto
          78 hlineto
          endchar
        </CharString>
        <CharString name="Ncommaaccent">
          85 -151 91 81 -21 686 -20 hstem
          70 79 104 86 104 79 vstem
          522 686 rmoveto
          -79 -431 hlineto
          -22 3 -69 0 vhcurveto
          -3 -1 rlineto
          0 -27 66 -15 26 vhcurveto
          -255 431 rlineto
          -76 -686 79 437 hlineto
          28 -4 63 0 vhcurveto
          3 1 rlineto
          0 27 -63 17 -29 vhcurveto
          257 -437 rlineto
          73 hlineto
          -183 -60 rmoveto
          -86 -91 35 hlineto
          -23 -71 rlineto
          45 hlineto
          29 78 rlineto
          endchar
        </CharString>
        <CharString name="Ntilde">
          85 21 -21 686 -20 113 74 -43 73 hstemhm
          70 79 294 79 hintmask 11011100
          522 686 rmoveto
          -79 -431 hlineto
          -22 3 -69 0 vhcurveto
          -3 -1 rlineto
          0 -27 66 -15 26 vhcurveto
          -255 431 rlineto
          -76 -686 79 437 hlineto
          28 -4 63 0 vhcurveto
          3 1 rlineto
          0 27 -63 17 -29 vhcurveto
          257 -437 rlineto
          73 hlineto
          -138 883 rmoveto
          hintmask 11101100
          -23 -3 -13 -7 -18 hhcurveto
          hintmask 11011100
          -39 -33 30 -43 hhcurveto
          hintmask 11101100
          -60 -25 -58 -46 hvcurveto
          58 hlineto
          hintmask 11011100
          23 3 13 8 18 hhcurveto
          hintmask 11101100
          39 32 -31 44 hhcurveto
          hintmask 11011100
          60 25 58 46 hvcurveto
          endchar
        </CharString>
        <CharString name="O">
          131 -12 81 548 81 hstem
          49 92 356 92 vstem
          319 698 rmoveto
          -168 -102 -117 -238 -238 102 -117 168 168 102 117 238 238 -102 117 -168 hvcurveto
          -81 vmoveto
          110 68 -82 -167 hvcurveto
          -50 vlineto
          -167 -68 -82 -110 -110 -68 82 167 vhcurveto
          50 vlineto
          167 68 82 110 vhcurveto
          endchar
        </CharString>
        <CharString name="OE">
          313 -12 81 -69 80 231 80 215 80 -69 81 hstemhm
          49 92 284 88 hintmask 01110110
          784 hmoveto
          80 -271 231 220 80 -220 215 265 80 -353 vlineto
          hintmask 10101110
          -68 vlineto
          53 -37 -51 27 -64 hhcurveto
          -141 -83 -117 -238 -238 83 -117 141 64 51 26 54 37 hvcurveto
          hintmask 01101110
          -68 vlineto
          -284 368 rmoveto
          167 54 82 88 88 54 -82 -167 vhcurveto
          -50 vlineto
          hintmask 10110110
          -167 -54 -82 -88 -88 -54 82 167 vhcurveto
          endchar
        </CharString>
        <CharString name="Oacute">
          131 -12 81 548 81 53 132 hstem
          49 92 356 92 vstem
          319 698 rmoveto
          -168 -102 -117 -238 -238 102 -117 168 168 102 117 238 238 -102 117 -168 hvcurveto
          -81 vmoveto
          110 68 -82 -167 hvcurveto
          -50 vlineto
          -167 -68 -82 -110 -110 -68 82 167 vhcurveto
          50 vlineto
          167 68 82 110 vhcurveto
          118 263 rmoveto
          -1 3 rlineto
          -90 hlineto
          -86 -132 rlineto
          69 hlineto
          endchar
        </CharString>
        <CharString name="Obreve">
          131 -12 81 548 81 88 64 hstem
          49 92 356 92 vstem
          319 698 rmoveto
          -168 -102 -117 -238 -238 102 -117 168 168 102 117 238 238 -102 117 -168 hvcurveto
          -81 vmoveto
          110 68 -82 -167 hvcurveto
          -50 vlineto
          -167 -68 -82 -110 -110 -68 82 167 vhcurveto
          50 vlineto
          167 68 82 110 vhcurveto
          60 266 rmoveto
          -14 -2 -24 -19 -34 hhcurveto
          -33 -23 19 14 -3 hvcurveto
          -64 hlineto
          -45 47 -52 76 77 47 52 45 vhcurveto
          endchar
        </CharString>
        <CharString name="Ocircumflex">
          131 -12 81 548 81 49 135 hstem
          49 92 356 92 vstem
          319 698 rmoveto
          -168 -102 -117 -238 -238 102 -117 168 168 102 117 238 238 -102 117 -168 hvcurveto
          -81 vmoveto
          110 68 -82 -167 hvcurveto
          -50 vlineto
          -167 -68 -82 -110 -110 -68 82 167 vhcurveto
          50 vlineto
          167 68 82 110 vhcurveto
          40 265 rmoveto
          -78 hlineto
          -86 -135 rlineto
          80 hlineto
          45 79 44 -79 rlineto
          80 hlineto
          endchar
        </CharString>
        <CharString name="Odieresis">
          131 -12 81 548 81 90 95 hstem
          49 92 60 87 63 87 59 92 vstem
          319 698 rmoveto
          -168 -102 -117 -238 -238 102 -117 168 168 102 117 238 238 -102 117 -168 hvcurveto
          -81 vmoveto
          110 68 -82 -167 hvcurveto
          -50 vlineto
          -167 -68 -82 -110 -110 -68 82 167 vhcurveto
          50 vlineto
          167 68 82 110 vhcurveto
          119 266 rmoveto
          -87 -95 87 hlineto
          -150 95 rmoveto
          -87 -95 87 hlineto
          endchar
        </CharString>
        <CharString name="Ograve">
          131 -12 81 548 81 53 132 hstem
          49 92 356 92 vstem
          319 698 rmoveto
          -168 -102 -117 -238 -238 102 -117 168 168 102 117 238 238 -102 117 -168 hvcurveto
          -81 vmoveto
          110 68 -82 -167 hvcurveto
          -50 vlineto
          -167 -68 -82 -110 -110 -68 82 167 vhcurveto
          50 vlineto
          167 68 82 110 vhcurveto
          60 134 rmoveto
          -86 132 rlineto
          -90 hlineto
          -1 -3 108 -129 rlineto
          endchar
        </CharString>
        <CharString name="Ohungarumlaut">
          131 -12 81 548 81 53 132 hstem
          49 92 356 92 vstem
          319 698 rmoveto
          -168 -102 -117 -238 -238 102 -117 168 168 102 117 238 238 -102 117 -168 hvcurveto
          -81 vmoveto
          110 68 -82 -167 hvcurveto
          -50 vlineto
          -167 -68 -82 -110 -110 -68 82 167 vhcurveto
          50 vlineto
          167 68 82 110 vhcurveto
          187 266 rmoveto
          -90 hlineto
          -62 -132 rlineto
          69 hlineto
          84 129 rlineto
          -132 3 rmoveto
          -89 hlineto
          -62 -132 rlineto
          68 hlineto
          84 129 rlineto
          endchar
        </CharString>
        <CharString name="Omacron">
          131 -12 81 548 81 61 72 hstem
          49 92 53 251 52 92 vstem
          319 698 rmoveto
          -168 -102 -117 -238 -238 102 -117 168 168 102 117 238 238 -102 117 -168 hvcurveto
          -81 vmoveto
          110 68 -82 -167 hvcurveto
          -50 vlineto
          -167 -68 -82 -110 -110 -68 82 167 vhcurveto
          50 vlineto
          167 68 82 110 vhcurveto
          126 214 rmoveto
          -251 -72 251 hlineto
          endchar
        </CharString>
        <CharString name="Omega">
          261 0 84 533 81 hstem
          114 92 356 92 vstem
          384 698 rmoveto
          -168 -102 -117 -238 -117 33 -87 59 -59 hvcurveto
          1 -28 -23 3 -16 hhcurveto
          -25 -84 237 61 hlineto
          -90 20 -55 81 143 vvcurveto
          63 vlineto
          167 68 82 110 110 68 -82 -167 vhcurveto
          -67 vlineto
          -142 -55 -79 -91 -19 vhcurveto
          -61 238 84 -25 vlineto
          -25 -21 -3 -1 -22 hvcurveto
          59 59 34 87 117 vvcurveto
          238 -102 117 -168 vhcurveto
          endchar
        </CharString>
        <CharString name="Oslash">
          131 -12 81 548 81 25 -20 hstemhm
          49 92 356 92 hintmask 10111000
          589 723 rmoveto
          -64 hlineto
          hintmask 11011000
          -47 -75 rlineto
          33 -42 -54 17 -63 hhcurveto
          -168 -102 -117 -238 -119 25 -89 47 -59 hvcurveto
          -71 -113 rlineto
          64 hlineto
          46 74 rlineto
          -33 42 54 -16 63 hhcurveto
          168 102 117 238 118 -26 89 -46 59 hvcurveto
          -51 -82 rmoveto
          20 -40 11 -53 -66 vvcurveto
          -50 vlineto
          -167 -68 -82 -110 -46 -38 14 28 -29 vhcurveto
          113 506 rmoveto
          45 38 -14 -29 30 hvcurveto
          -260 -416 rlineto
          -20 40 -11 53 67 vvcurveto
          50 vlineto
          167 68 82 110 vhcurveto
          endchar
        </CharString>
        <CharString name="Oslashacute">
          131 -12 81 548 81 25 -20 48 132 hstemhm
          49 92 356 92 hintmask 10111100
          589 723 rmoveto
          -64 hlineto
          hintmask 11011100
          -47 -75 rlineto
          33 -42 -54 17 -63 hhcurveto
          -168 -102 -117 -238 -119 25 -89 47 -59 hvcurveto
          -71 -113 rlineto
          64 hlineto
          46 74 rlineto
          -33 42 54 -16 63 hhcurveto
          168 102 117 238 118 -26 89 -46 59 hvcurveto
          -51 -82 rmoveto
          20 -40 11 -53 -66 vvcurveto
          -50 vlineto
          -167 -68 -82 -110 -46 -38 14 28 -29 vhcurveto
          113 506 rmoveto
          45 38 -14 -29 30 hvcurveto
          -260 -416 rlineto
          -20 40 -11 53 67 vvcurveto
          50 vlineto
          167 68 82 110 vhcurveto
          118 263 rmoveto
          -1 3 rlineto
          -90 hlineto
          -86 -132 rlineto
          69 hlineto
          endchar
        </CharString>
        <CharString name="Otilde">
          131 -12 81 548 81 81 74 -43 73 hstemhm
          49 92 356 92 hintmask 11011100
          319 698 rmoveto
          -168 -102 -117 -238 -238 102 -117 168 168 102 117 238 238 -102 117 -168 hvcurveto
          -81 vmoveto
          110 68 -82 -167 hvcurveto
          -50 vlineto
          -167 -68 -82 -110 -110 -68 82 167 vhcurveto
          50 vlineto
          167 68 82 110 vhcurveto
          88 266 rmoveto
          hintmask 11101100
          -23 -3 -13 -7 -18 hhcurveto
          hintmask 11011100
          -39 -33 30 -43 hhcurveto
          hintmask 11101100
          -60 -25 -58 -46 hvcurveto
          58 hlineto
          hintmask 11011100
          23 3 13 8 18 hhcurveto
          hintmask 11101100
          39 33 -31 43 hhcurveto
          hintmask 11011100
          60 25 58 46 hvcurveto
          endchar
        </CharString>
        <CharString name="P">
          40 21 -21 283 80 243 80 hstem
          70 88 270 92 vstem
          315 283 rmoveto
          127 78 82 121 119 -70 81 -135 hvcurveto
          -245 -686 88 283 hlineto
          154 323 rmoveto
          75 41 -46 -74 -74 -46 -49 -70 hvcurveto
          -154 243 hlineto
          endchar
        </CharString>
        <CharString name="Q">
          131 -12 81 -60 -21 629 81 hstemhm
          49 92 356 92 hintmask 10111000
          49 343 rmoveto
          -238 102 -117 168 vhcurveto
          12 hlineto
          119 -112 rlineto
          118 hlineto
          hintmask 01111000
          -142 131 rlineto
          103 42 60 112 182 vvcurveto
          238 -102 117 -168 vhcurveto
          hintmask 10111000
          -168 -102 -117 -238 hvcurveto
          92 25 rmoveto
          167 68 82 110 110 68 -82 -167 vhcurveto
          -50 vlineto
          -167 -68 -82 -110 -110 -68 82 167 vhcurveto
          endchar
        </CharString>
        <CharString name="R">
          85 21 -21 303 80 223 80 hstem
          70 88 301 92 vstem
          551 496 rmoveto
          113 -70 77 -135 vhcurveto
          -276 -686 88 303 184 hlineto
          127 -303 rlineto
          98 hlineto
          -138 319 rlineto
          77 26 45 66 85 vvcurveto
          -208 110 rmoveto
          75 41 -42 -68 -68 -46 -45 -70 hvcurveto
          -185 223 hlineto
          endchar
        </CharString>
        <CharString name="Racute">
          85 21 -21 303 80 223 80 65 132 hstem
          70 88 301 92 vstem
          391 880 rmoveto
          -1 3 rlineto
          -90 hlineto
          -86 -132 rlineto
          70 hlineto
          267 -255 rmoveto
          113 -70 77 -135 vhcurveto
          -276 -686 88 303 184 hlineto
          127 -303 rlineto
          98 hlineto
          -138 319 rlineto
          77 26 45 66 85 vvcurveto
          -208 110 rmoveto
          75 41 -42 -68 -68 -46 -45 -70 hvcurveto
          -185 223 hlineto
          endchar
        </CharString>
        <CharString name="Rcaron">
          85 21 -21 303 80 223 80 62 135 hstem
          70 88 301 92 vstem
          421 883 rmoveto
          -80 hlineto
          -45 -79 -45 79 rlineto
          -80 hlineto
          85 -135 rlineto
          78 hlineto
          217 -252 rmoveto
          113 -70 77 -135 vhcurveto
          -276 -686 88 303 184 hlineto
          127 -303 rlineto
          98 hlineto
          -138 319 rlineto
          77 26 45 66 85 vvcurveto
          -208 110 rmoveto
          75 41 -42 -68 -68 -46 -45 -70 hvcurveto
          -185 223 hlineto
          endchar
        </CharString>
        <CharString name="Rcommaaccent">
          85 -151 91 81 -21 303 80 223 80 hstem
          70 88 95 86 120 92 vstem
          339 -60 rmoveto
          -86 -91 35 hlineto
          -23 -71 rlineto
          45 hlineto
          29 78 rlineto
          212 640 rmoveto
          113 -70 77 -135 vhcurveto
          -276 -686 88 303 184 hlineto
          127 -303 rlineto
          98 hlineto
          -138 319 rlineto
          77 26 45 66 85 vvcurveto
          -208 110 rmoveto
          75 41 -42 -68 -68 -46 -45 -70 hvcurveto
          -185 223 hlineto
          endchar
        </CharString>
        <CharString name="S">
          40 -12 81 548 81 hstemhm
          41 91 -77 93 249 91 -76 92 hintmask 11011000
          273 698 rmoveto
          -120 -98 -58 -126 hvcurveto
          hintmask 11010100
          -248 357 90 -173 vvcurveto
          -74 -52 -40 -92 vhcurveto
          hintmask 11100100
          -78 -58 40 84 hvcurveto
          6 1 14 1 vvcurveto
          -91 hlineto
          -3 -1 -10 -7 vvcurveto
          -151 106 -55 125 133 99 56 154 vhcurveto
          hintmask 11010100
          241 -356 -82 164 vvcurveto
          66 55 30 72 vhcurveto
          hintmask 11011000
          69 53 -39 -70 hvcurveto
          -15 91 12 vlineto
          137 -96 56 -119 vhcurveto
          endchar
        </CharString>
        <CharString name="Sacute">
          40 -12 81 548 81 53 132 hstemhm
          41 91 -77 93 249 91 -76 92 hintmask 11101100
          273 698 rmoveto
          -120 -98 -58 -126 hvcurveto
          hintmask 11101010
          -248 357 90 -173 vvcurveto
          -74 -52 -40 -92 vhcurveto
          hintmask 11110010
          -78 -58 40 84 hvcurveto
          6 1 14 1 vvcurveto
          -91 hlineto
          -3 -1 -10 -7 vvcurveto
          -151 106 -55 125 133 99 56 154 vhcurveto
          hintmask 11101010
          241 -356 -82 164 vvcurveto
          66 55 30 72 vhcurveto
          hintmask 11101100
          69 53 -39 -70 hvcurveto
          -15 91 12 vlineto
          137 -96 56 -119 vhcurveto
          118 182 rmoveto
          -1 3 rlineto
          -90 hlineto
          -86 -132 rlineto
          69 hlineto
          endchar
        </CharString>
        <CharString name="Scaron">
          40 -12 81 548 81 50 135 hstemhm
          41 91 -77 93 249 91 -76 92 hintmask 11101100
          273 698 rmoveto
          -120 -98 -58 -126 hvcurveto
          hintmask 11101010
          -248 357 90 -173 vvcurveto
          -74 -52 -40 -92 vhcurveto
          hintmask 11110010
          -78 -58 40 84 hvcurveto
          6 1 14 1 vvcurveto
          -91 hlineto
          -3 -1 -10 -7 vvcurveto
          -151 106 -55 125 133 99 56 154 vhcurveto
          hintmask 11101010
          241 -356 -82 164 vvcurveto
          66 55 30 72 vhcurveto
          hintmask 11101100
          69 53 -39 -70 hvcurveto
          -15 91 12 vlineto
          137 -96 56 -119 vhcurveto
          125 185 rmoveto
          -80 hlineto
          -45 -79 -44 79 rlineto
          -80 hlineto
          85 -135 rlineto
          78 hlineto
          endchar
        </CharString>
        <CharString name="Scedilla">
          40 -182 57 -28 -21 97 41 26 79 548 81 hstemhm
          41 91 -77 93 82 58.5 3.5 76 29 91 -76 92 hintmask 1001101001000000
          273 698 rmoveto
          -120 -98 -58 -126 hvcurveto
          hintmask 1001101000100000
          -248 357 90 -173 vvcurveto
          -74 -52 -40 -92 vhcurveto
          hintmask 1001110000100000
          -78 -58 40 84 hvcurveto
          6 1 14 1 vvcurveto
          -91 hlineto
          -3 -1 -10 -7 vvcurveto
          -136 85 -58 109 -10 vhcurveto
          hintmask 1011101100100000
          -10 -67 rlineto
          hintmask 1011101010100000
          33 hlineto
          26 8 -8 -16 -19 -14 -5 -22 hvcurveto
          -76 hlineto
          hintmask 0101101000100000
          -49 vlineto
          hintmask 1011101010100000
          -5 24 31 -3 29 hhcurveto
          40 64 14 67 46 -38 16 -43 3 hvcurveto
          hintmask 1001101100100000
          3 25 rlineto
          124 5 90 57 147 vvcurveto
          241 -356 -82 164 vvcurveto
          66 55 30 72 vhcurveto
          hintmask 1001101001000000
          69 53 -39 -70 hvcurveto
          -15 91 12 vlineto
          137 -96 56 -119 vhcurveto
          endchar
        </CharString>
        <CharString name="Scircumflex">
          40 -12 81 548 81 49 135 hstemhm
          41 91 -77 93 249 91 -76 92 hintmask 11101100
          273 698 rmoveto
          -120 -98 -58 -126 hvcurveto
          hintmask 11101010
          -248 357 90 -173 vvcurveto
          -74 -52 -40 -92 vhcurveto
          hintmask 11110010
          -78 -58 40 84 hvcurveto
          6 1 14 1 vvcurveto
          -91 hlineto
          -3 -1 -10 -7 vvcurveto
          -151 106 -55 125 133 99 56 154 vhcurveto
          hintmask 11101010
          241 -356 -82 164 vvcurveto
          66 55 30 72 vhcurveto
          hintmask 11101100
          69 53 -39 -70 hvcurveto
          -15 91 12 vlineto
          137 -96 56 -119 vhcurveto
          hintmask 11101010
          40 184 rmoveto
          -78 hlineto
          -86 -135 rlineto
          80 hlineto
          45 79 44 -79 rlineto
          80 hlineto
          endchar
        </CharString>
        <CharString name="T">
          -6 21 -21 606 80 hstem
          206 88 vstem
          19 606 rmoveto
          187 -606 88 606 187 80 -462 hlineto
          endchar
        </CharString>
        <CharString name="Tbar">
          -6 21 -21 320 73 213 80 hstem
          206 88 vstem
          481 686 rmoveto
          -462 -80 187 -213 -129 -73 129 -320 88 320 131 73 -131 213 187 hlineto
          endchar
        </CharString>
        <CharString name="Tcaron">
          -6 21 -21 606 80 62 135 hstem
          206 88 vstem
          375 883 rmoveto
          -80 hlineto
          -45 -79 -44 79 rlineto
          -80 hlineto
          85 -135 rlineto
          78 hlineto
          -270 -142 rmoveto
          187 -606 88 606 187 80 -462 hlineto
          endchar
        </CharString>
        <CharString name="Tcommaaccent">
          -6 -151 91 81 -21 606 80 hstem
          206 88 vstem
          293 -60 rmoveto
          -85 -91 34 hlineto
          -22 -71 rlineto
          44 hlineto
          29 78 rlineto
          -274 750 rmoveto
          187 -606 88 606 187 80 -462 hlineto
          endchar
        </CharString>
        <CharString name="Thorn">
          40 21 -21 147 80 243 80 136 -20 hstem
          70 88 270 92 vstem
          158 686 rmoveto
          -88 -686 88 147 157 hlineto
          127 78 82 121 119 -70 81 -135 hvcurveto
          -157 hlineto
          154 -80 rmoveto
          75 41 -46 -74 -74 -46 -49 -70 hvcurveto
          -154 243 hlineto
          endchar
        </CharString>
        <CharString name="U">
          85 -12 81 617 -20 hstem
          70 88 276 88 vstem
          522 686 rmoveto
          -88 -468 hlineto
          -97 -52 -52 -86 -86 -52 52 97 vhcurveto
          468 -88 -463 vlineto
          -154 85 -81 141 141 85 81 154 vhcurveto
          endchar
        </CharString>
        <CharString name="Uacute">
          85 -12 81 617 -20 85 132 hstem
          70 88 276 88 vstem
          522 686 rmoveto
          -88 -468 hlineto
          -97 -52 -52 -86 -86 -52 52 97 vhcurveto
          468 -88 -463 vlineto
          -154 85 -81 141 141 85 81 154 vhcurveto
          -109 657 rmoveto
          -1 3 rlineto
          -90 hlineto
          -86 -132 rlineto
          70 hlineto
          endchar
        </CharString>
        <CharString name="Ubreve">
          85 -12 81 617 -20 120 64 hstem
          70 88 276 88 vstem
          522 686 rmoveto
          -88 -468 hlineto
          -97 -52 -52 -86 -86 -52 52 97 vhcurveto
          468 -88 -463 vlineto
          -154 85 -81 141 141 85 81 154 vhcurveto
          -166 660 rmoveto
          -14 -2 -24 -19 -34 hhcurveto
          -34 -22 19 14 -3 hvcurveto
          -65 hlineto
          -45 48 -52 76 77 47 52 45 vhcurveto
          endchar
        </CharString>
        <CharString name="Ucircumflex">
          85 -12 81 617 -20 81 135 hstem
          70 88 276 88 vstem
          522 686 rmoveto
          -88 -468 hlineto
          -97 -52 -52 -86 -86 -52 52 97 vhcurveto
          468 -88 -463 vlineto
          -154 85 -81 141 141 85 81 154 vhcurveto
          -187 659 rmoveto
          -78 hlineto
          -86 -135 rlineto
          80 hlineto
          46 79 44 -79 rlineto
          80 hlineto
          endchar
        </CharString>
        <CharString name="Udieresis">
          85 -12 81 617 -20 122 95 hstemhm
          70 88 19 87 63 88 19 88 hintmask 11110010
          522 686 rmoveto
          -88 -468 hlineto
          -97 -52 -52 -86 -86 -52 52 97 vhcurveto
          468 -88 -463 vlineto
          -154 85 -81 141 141 85 81 154 vhcurveto
          hintmask 11111110
          -107 660 rmoveto
          -88 -95 88 hlineto
          -151 95 rmoveto
          -87 -95 87 hlineto
          endchar
        </CharString>
        <CharString name="Ugrave">
          85 -12 81 617 -20 85 132 hstem
          70 88 276 88 vstem
          522 686 rmoveto
          -88 -468 hlineto
          -97 -52 -52 -86 -86 -52 52 97 vhcurveto
          468 -88 -463 vlineto
          -154 85 -81 141 141 85 81 154 vhcurveto
          -167 528 rmoveto
          -85 132 rlineto
          -91 hlineto
          -1 -3 109 -129 rlineto
          endchar
        </CharString>
        <CharString name="Uhungarumlaut">
          85 -12 81 617 -20 85 132 hstem
          70 88 276 88 vstem
          522 686 rmoveto
          -88 -468 hlineto
          -97 -52 -52 -86 -86 -52 52 97 vhcurveto
          468 -88 -463 vlineto
          -154 85 -81 141 141 85 81 154 vhcurveto
          -40 660 rmoveto
          -89 hlineto
          -62 -132 rlineto
          68 hlineto
          84 129 rlineto
          -131 3 rmoveto
          -90 hlineto
          -62 -132 rlineto
          69 hlineto
          84 129 rlineto
          endchar
        </CharString>
        <CharString name="Umacron">
          85 -12 81 617 -20 93 72 hstemhm
          70 88 13 250 13 88 hintmask 11110100
          522 686 rmoveto
          -88 -468 hlineto
          -97 -52 -52 -86 -86 -52 52 97 vhcurveto
          468 -88 -463 vlineto
          -154 85 -81 141 141 85 81 154 vhcurveto
          hintmask 11111100
          -101 608 rmoveto
          -250 -72 250 hlineto
          endchar
        </CharString>
        <CharString name="Uogonek">
          85 -182 65 105 81 617 -20 hstem
          70 88 134 78 64 88 vstem
          522 686 rmoveto
          -88 -468 hlineto
          -97 -52 -52 -86 -86 -52 52 97 vhcurveto
          468 -88 -463 vlineto
          -154 85 -81 141 vhcurveto
          8 8 1 7 hhcurveto
          -16 -21 -11 -25 -35 vvcurveto
          -69 51 -21 43 20 20 5 9 21 vhcurveto
          51 -31 vlineto
          -34 -12 27 28 27 15 26 12 14 hvcurveto
          79 32 46 73 113 vvcurveto
          endchar
        </CharString>
        <CharString name="Uring">
          85 -12 81 617 -20 57 45 102 45 hstem
          70 88 42 45 102 45 42 88 vstem
          522 686 rmoveto
          -88 -468 hlineto
          -97 -52 -52 -86 -86 -52 52 97 vhcurveto
          468 -88 -463 vlineto
          -154 85 -81 141 141 85 81 154 vhcurveto
          -226 692 rmoveto
          -53 -43 -43 -53 -54 44 -42 52 53 43 43 53 52 -42 44 -54 hvcurveto
          -45 vmoveto
          27 24 -23 -28 -28 -24 -23 -27 -28 -23 23 28 28 23 23 28 hvcurveto
          endchar
        </CharString>
        <CharString name="Utilde">
          85 -12 81 617 -20 113 74 -43 73 hstemhm
          70 88 276 88 hintmask 11011100
          522 686 rmoveto
          -88 -468 hlineto
          -97 -52 -52 -86 -86 -52 52 97 vhcurveto
          468 -88 -463 vlineto
          -154 85 -81 141 141 85 81 154 vhcurveto
          -138 660 rmoveto
          hintmask 11101100
          -23 -3 -13 -7 -18 hhcurveto
          hintmask 11011100
          -39 -33 30 -43 hhcurveto
          hintmask 11101100
          -60 -25 -58 -46 hvcurveto
          58 hlineto
          hintmask 11011100
          23 3 13 8 18 hhcurveto
          hintmask 11101100
          39 32 -31 44 hhcurveto
          hintmask 11011100
          60 25 58 46 hvcurveto
          endchar
        </CharString>
        <CharString name="V">
          40 0 97 589 -20 hstem
          8 531 vstem
          539 686 rmoveto
          -85 hlineto
          -175 -589 rlineto
          -4 hlineto
          -170 589 rlineto
          -97 hlineto
          209 -686 rlineto
          113 hlineto
          endchar
        </CharString>
        <CharString name="W">
          267 0 90 513 83 hstem
          10 754 vstem
          764 686 rmoveto
          -80 hlineto
          -105 -474 rlineto
          -10 -45 -11 -77 0 vvcurveto
          -4 hlineto
          0 -9 72 -9 50 vhcurveto
          -85 474 rlineto
          -122 hlineto
          -79 -474 rlineto
          -10 -60 -7 -62 0 vvcurveto
          -4 hlineto
          0 -12 82 -9 40 vhcurveto
          -105 474 rlineto
          -93 hlineto
          159 -686 rlineto
          114 hlineto
          82 465 rlineto
          8 46 11 92 0 vvcurveto
          4 hlineto
          0 11 -92 8 -46 vhcurveto
          84 -465 rlineto
          114 hlineto
          endchar
        </CharString>
        <CharString name="Wacute">
          267 0 90 513 83 65 132 hstem
          10 754 vstem
          605 hmoveto
          159 686 rlineto
          -80 hlineto
          -105 -474 rlineto
          -10 -45 -11 -77 0 vvcurveto
          -4 hlineto
          0 -9 72 -9 50 vhcurveto
          -85 474 rlineto
          -122 hlineto
          -79 -474 rlineto
          -10 -60 -7 -62 0 vvcurveto
          -4 hlineto
          0 -12 82 -9 40 vhcurveto
          -105 474 rlineto
          -93 hlineto
          159 -686 rlineto
          114 hlineto
          82 465 rlineto
          8 46 11 92 0 vvcurveto
          4 hlineto
          0 11 -92 8 -46 vhcurveto
          84 -465 rlineto
          13 880 rmoveto
          -1 3 rlineto
          -89 hlineto
          -86 -132 rlineto
          69 hlineto
          endchar
        </CharString>
        <CharString name="Wcircumflex">
          267 0 90 513 83 61 135 hstem
          10 754 vstem
          764 686 rmoveto
          -80 hlineto
          -105 -474 rlineto
          -10 -45 -11 -77 0 vvcurveto
          -4 hlineto
          0 -9 72 -9 50 vhcurveto
          -85 474 rlineto
          -122 hlineto
          -79 -474 rlineto
          -10 -60 -7 -62 0 vvcurveto
          -4 hlineto
          0 -12 82 -9 40 vhcurveto
          -105 474 rlineto
          -93 hlineto
          159 -686 rlineto
          114 hlineto
          82 465 rlineto
          8 46 11 92 0 vvcurveto
          4 hlineto
          0 11 -92 8 -46 vhcurveto
          84 -465 rlineto
          114 hlineto
          -178 882 rmoveto
          -78 hlineto
          -86 -135 rlineto
          80 hlineto
          45 79 44 -79 rlineto
          80 hlineto
          endchar
        </CharString>
        <CharString name="Wdieresis">
          267 0 90 513 83 102 95 hstem
          269 86 63 88 vstem
          764 686 rmoveto
          -80 hlineto
          -105 -474 rlineto
          -10 -45 -11 -77 0 vvcurveto
          -4 hlineto
          0 -9 72 -9 50 vhcurveto
          -85 474 rlineto
          -122 hlineto
          -79 -474 rlineto
          -10 -60 -7 -62 0 vvcurveto
          -4 hlineto
          0 -12 82 -9 40 vhcurveto
          -105 474 rlineto
          -93 hlineto
          159 -686 rlineto
          114 hlineto
          82 465 rlineto
          8 46 11 92 0 vvcurveto
          4 hlineto
          0 11 -92 8 -46 vhcurveto
          84 -465 rlineto
          114 hlineto
          -99 883 rmoveto
          -88 -95 88 hlineto
          -151 95 rmoveto
          -86 -95 86 hlineto
          endchar
        </CharString>
        <CharString name="Wgrave">
          267 0 90 513 83 65 132 hstem
          10 754 vstem
          605 hmoveto
          159 686 rlineto
          -80 hlineto
          -105 -474 rlineto
          -10 -45 -11 -77 0 vvcurveto
          -4 hlineto
          0 -9 72 -9 50 vhcurveto
          -85 474 rlineto
          -122 hlineto
          -79 -474 rlineto
          -10 -60 -7 -62 0 vvcurveto
          -4 hlineto
          0 -12 82 -9 40 vhcurveto
          -105 474 rlineto
          -93 hlineto
          159 -686 rlineto
          114 hlineto
          82 465 rlineto
          8 46 11 92 0 vvcurveto
          4 hlineto
          0 11 -92 8 -46 vhcurveto
          84 -465 rlineto
          -44 751 rmoveto
          -86 132 rlineto
          -90 hlineto
          -1 -3 108 -129 rlineto
          endchar
        </CharString>
        <CharString name="X">
          40 21 -21 686 -20 hstem
          4 539 vstem
          427 686 rmoveto
          -1 -151 -244 0 vhcurveto
          -148 245 rlineto
          -104 hlineto
          199 -330 -219 -356 rlineto
          94 hlineto
          172 280 169 -280 rlineto
          104 hlineto
          -221 364 rlineto
          0 199 321 1 hvcurveto
          endchar
        </CharString>
        <CharString name="Y">
          40 21 -21 686 -20 hstem
          230 88 vstem
          539 686 rmoveto
          -85 hlineto
          -171 -318 rlineto
          -4 hlineto
          -174 318 rlineto
          -97 hlineto
          222 -402 rlineto
          -284 88 284 vlineto
          endchar
        </CharString>
        <CharString name="Yacute">
          40 21 -21 686 -20 85 132 hstem
          230 88 vstem
          318 284 rmoveto
          221 402 rlineto
          -85 hlineto
          -171 -318 rlineto
          -4 hlineto
          -174 318 rlineto
          -97 hlineto
          222 -402 rlineto
          -284 88 vlineto
          73 880 rmoveto
          -1 3 rlineto
          -90 hlineto
          -86 -132 rlineto
          69 hlineto
          endchar
        </CharString>
        <CharString name="Ycircumflex">
          40 21 -21 686 -20 81 135 hstem
          230 88 vstem
          539 686 rmoveto
          -85 hlineto
          -171 -318 rlineto
          -4 hlineto
          -174 318 rlineto
          -97 hlineto
          222 -402 rlineto
          -284 88 284 vlineto
          -5 598 rmoveto
          -78 hlineto
          -86 -135 rlineto
          80 hlineto
          45 79 44 -79 rlineto
          80 hlineto
          endchar
        </CharString>
        <CharString name="Ydieresis">
          40 21 -21 686 -20 122 95 hstemhm
          155 87 -12 88 -13 87 hintmask 11101000
          539 686 rmoveto
          -85 hlineto
          -171 -318 rlineto
          -4 hlineto
          -174 318 rlineto
          -97 hlineto
          222 -402 rlineto
          -284 88 284 vlineto
          hintmask 11110100
          74 599 rmoveto
          -87 -95 87 hlineto
          -150 95 rmoveto
          -87 -95 87 hlineto
          endchar
        </CharString>
        <CharString name="Ygrave">
          40 21 -21 686 -20 85 132 hstem
          230 88 vstem
          318 284 rmoveto
          221 402 rlineto
          -85 hlineto
          -171 -318 rlineto
          -4 hlineto
          -174 318 rlineto
          -97 hlineto
          222 -402 rlineto
          -284 88 vlineto
          15 751 rmoveto
          -86 132 rlineto
          -90 hlineto
          -1 -3 108 -129 rlineto
          endchar
        </CharString>
        <CharString name="Z">
          -6 0 80 526 80 hstem
          20 459 vstem
          479 hmoveto
          80 -334 vlineto
          327 568 rlineto
          38 -431 -80 305 vlineto
          -326 -568 rlineto
          -38 vlineto
          endchar
        </CharString>
        <CharString name="Zacute">
          -6 0 80 526 80 65 132 hstem
          20 459 vstem
          368 880 rmoveto
          -1 3 rlineto
          -90 hlineto
          -86 -132 rlineto
          69 hlineto
          219 -751 rmoveto
          80 -334 vlineto
          327 568 rlineto
          38 -431 -80 305 vlineto
          -326 -568 rlineto
          -38 vlineto
          endchar
        </CharString>
        <CharString name="Zcaron">
          -6 0 80 526 80 62 135 hstem
          20 459 vstem
          375 883 rmoveto
          -80 hlineto
          -45 -79 -44 79 rlineto
          -80 hlineto
          85 -135 rlineto
          78 hlineto
          190 -748 rmoveto
          80 -334 vlineto
          327 568 rlineto
          38 -431 -80 305 vlineto
          -326 -568 rlineto
          -38 vlineto
          endchar
        </CharString>
        <CharString name="Zdotaccent">
          -6 0 80 526 80 102 95 hstem
          207 87 vstem
          294 883 rmoveto
          -87 -95 87 hlineto
          185 -788 rmoveto
          80 -334 vlineto
          327 568 rlineto
          38 -431 -80 305 vlineto
          -326 -568 rlineto
          -38 vlineto
          endchar
        </CharString>
        <CharString name="a">
          -51 -12 73 -69 69 178 73 153 73 hstemhm
          34 86 -66 82 164 82 hintmask 10110110
          223 538 rmoveto
          -99 -70 -50 -96 -9 0 -7 1 -6 hvcurveto
          81 12 hlineto
          40 19 43 62 67 16 -35 -50 vhcurveto
          -68 vlineto
          hintmask 10111010
          -153 -113 -31 -145 -127 86 -21 52 55 46 26 43 27 hvcurveto
          5 hlineto
          hintmask 01110110
          -39 10 30 -26 43 hhcurveto
          26 19 7 5 9 hvcurveto
          hintmask 10110110
          57 -32 vlineto
          -14 -14 10 25 hvcurveto
          295 vlineto
          93 -53 54 -106 vhcurveto
          77 -347 rmoveto
          -87 -57 -43 -52 vhcurveto
          hintmask 10111010
          -46 -25 20 60 82 73 16 107 hvcurveto
          endchar
        </CharString>
        <CharString name="aacute">
          -51 -12 73 -69 69 178 73 153 73 53 132 hstemhm
          34 86 -66 82 164 82 hintmask 10111011
          223 538 rmoveto
          -99 -70 -50 -96 -9 0 -7 1 -6 hvcurveto
          81 12 hlineto
          40 19 43 62 67 16 -35 -50 vhcurveto
          -68 vlineto
          hintmask 10111101
          -153 -113 -31 -145 -127 86 -21 52 55 46 26 43 27 hvcurveto
          5 hlineto
          hintmask 01111011
          -39 10 30 -26 43 hhcurveto
          26 19 7 5 9 hvcurveto
          hintmask 10111011
          57 -32 vlineto
          -14 -14 10 25 hvcurveto
          295 vlineto
          93 -53 54 -106 vhcurveto
          77 -347 rmoveto
          -87 -57 -43 -52 vhcurveto
          hintmask 10111101
          -46 -25 20 60 82 73 16 107 hvcurveto
          41 481 rmoveto
          -1 3 rlineto
          -90 hlineto
          -86 -132 rlineto
          69 hlineto
          endchar
        </CharString>
        <CharString name="abreve">
          -51 -12 73 -69 69 178 73 153 73 88 64 -64 97 hstemhm
          34 86 -66 82 164 82 hintmask 1011100110000000
          223 538 rmoveto
          -99 -70 -50 -96 -9 0 -7 1 -6 hvcurveto
          81 12 hlineto
          40 19 43 62 67 16 -35 -50 vhcurveto
          -68 vlineto
          hintmask 1011101010000000
          -153 -113 -31 -145 -127 86 -21 52 55 46 26 43 27 hvcurveto
          5 hlineto
          hintmask 0111100110000000
          -39 10 30 -26 43 hhcurveto
          26 19 7 5 9 hvcurveto
          hintmask 1011100110000000
          57 -32 vlineto
          -14 -14 10 25 hvcurveto
          295 vlineto
          93 -53 54 -106 vhcurveto
          77 -347 rmoveto
          -87 -57 -43 -52 vhcurveto
          hintmask 1011011010000000
          -46 -25 20 60 82 73 16 107 hvcurveto
          -12 484 rmoveto
          hintmask 1011100110000000
          -14 -2 -24 -19 -34 hhcurveto
          -17 -14 5 6 -10 hvcurveto
          hintmask 1011010110000000
          -10 7 -6 8 -2 7 rrcurveto
          -65 hlineto
          hintmask 1011100110000000
          -45 48 -52 76 39 31 13 19 21 vhcurveto
          hintmask 1011010110000000
          21 18 12 25 22 vvcurveto
          endchar
        </CharString>
        <CharString name="acircumflex">
          -51 -12 73 -69 69 178 73 153 73 49 135 -56 56 hstemhm
          34 86 -66 82 164 82 hintmask 1011100110000000
          223 538 rmoveto
          -99 -70 -50 -96 -9 0 -7 1 -6 hvcurveto
          81 12 hlineto
          40 19 43 62 67 16 -35 -50 vhcurveto
          -68 vlineto
          hintmask 1011101010000000
          -153 -113 -31 -145 -127 86 -21 52 55 46 26 43 27 hvcurveto
          5 hlineto
          hintmask 0111100110000000
          -39 10 30 -26 43 hhcurveto
          26 19 7 5 9 hvcurveto
          hintmask 1011100110000000
          57 -32 vlineto
          -14 -14 10 25 hvcurveto
          295 vlineto
          93 -53 54 -106 vhcurveto
          77 -347 rmoveto
          -87 -57 -43 -52 vhcurveto
          hintmask 1011101010000000
          -46 -25 20 60 82 73 16 107 hvcurveto
          -32 483 rmoveto
          -79 hlineto
          -85 -135 rlineto
          80 hlineto
          hintmask 1011010110000000
          45 79 rlineto
          hintmask 1011100110000000
          44 -79 rlineto
          80 hlineto
          endchar
        </CharString>
        <CharString name="acute">
          -234 591 132 hstem
          68 177 vstem
          244 723 rmoveto
          -90 hlineto
          -86 -132 rlineto
          69 hlineto
          108 129 rlineto
          endchar
        </CharString>
        <CharString name="adieresis">
          -51 -12 73 -69 69 178 73 153 73 90 95 hstemhm
          34 86 -66 82 -27 87 63 88 -47 82 hintmask 1011101001000000
          223 538 rmoveto
          -99 -70 -50 -96 -9 0 -7 1 -6 hvcurveto
          81 12 hlineto
          40 19 43 62 67 16 -35 -50 vhcurveto
          -68 vlineto
          hintmask 1011110001000000
          -153 -113 -31 -145 -127 86 -21 52 55 46 26 43 27 hvcurveto
          5 hlineto
          hintmask 0111101001000000
          -39 10 30 -26 43 hhcurveto
          26 19 7 5 9 hvcurveto
          hintmask 1011101001000000
          57 -32 vlineto
          -14 -14 10 25 hvcurveto
          295 vlineto
          93 -53 54 -106 vhcurveto
          77 -347 rmoveto
          -87 -57 -43 -52 vhcurveto
          hintmask 1011110001000000
          -46 -25 20 60 82 73 16 107 hvcurveto
          hintmask 1011100110000000
          47 484 rmoveto
          -88 -95 88 hlineto
          -151 95 rmoveto
          -87 -95 87 hlineto
          endchar
        </CharString>
        <CharString name="ae">
          222 -12 73 178 73 153 73 hstemhm
          40 86 -66 82 164 86 199 86 hintmask 11101110
          504 538 rmoveto
          -61 -46 -19 -41 -33 hvcurveto
          39 -25 -46 21 -64 hhcurveto
          -99 -70 -50 -96 -9 0 -7 1 -6 hvcurveto
          81 12 hlineto
          40 19 43 62 67 16 -35 -50 vhcurveto
          -68 vlineto
          hintmask 11110110
          -153 -113 -31 -145 -127 88 -21 65 61 54 31 49 37 hvcurveto
          -56 33 54 -24 73 hhcurveto
          102 70 73 118 hvcurveto
          -81 hlineto
          -73 -37 -45 -52 -78 -36 55 123 -1 vhcurveto
          285 52 hlineto
          hintmask 11101110
          176 -58 71 -115 vhcurveto
          -198 -355 rmoveto
          -82 -57 -40 -52 vhcurveto
          hintmask 11110110
          -46 -25 20 60 82 73 16 107 hvcurveto
          198 226 rmoveto
          57 30 -53 -100 hvcurveto
          -198 hlineto
          101 7 31 52 73 hhcurveto
          endchar
        </CharString>
        <CharString name="aeacute">
          222 -12 73 178 73 153 73 53 132 hstemhm
          40 86 -66 82 164 86 199 86 hintmask 11110111
          504 538 rmoveto
          -61 -46 -19 -41 -33 hvcurveto
          39 -25 -46 21 -64 hhcurveto
          -99 -70 -50 -96 -9 0 -7 1 -6 hvcurveto
          81 12 hlineto
          40 19 43 62 67 16 -35 -50 vhcurveto
          -68 vlineto
          hintmask 11111011
          -153 -113 -31 -145 -127 88 -21 65 61 54 31 49 37 hvcurveto
          -56 33 54 -24 73 hhcurveto
          102 70 73 118 hvcurveto
          -81 hlineto
          -73 -37 -45 -52 -78 -36 55 123 -1 vhcurveto
          285 52 hlineto
          hintmask 11110111
          176 -58 71 -115 vhcurveto
          -198 -355 rmoveto
          -82 -57 -40 -52 vhcurveto
          hintmask 11111011
          -46 -25 20 60 82 73 16 107 hvcurveto
          198 226 rmoveto
          57 30 -53 -100 hvcurveto
          -198 hlineto
          101 7 31 52 73 hhcurveto
          -22 255 rmoveto
          -1 3 rlineto
          -90 hlineto
          -86 -132 rlineto
          70 hlineto
          endchar
        </CharString>
        <CharString name="afii00208">
          313 233 75 hstem
          102 613 vstem
          715 308 rmoveto
          -613 -75 613 hlineto
          endchar
        </CharString>
        <CharString name="afii61248">
          251 -13 61 262 61 -56 61 261 61 hstemhm
          48 70 108 69 146 69 131 69 hintmask 10111111
          611 698 rmoveto
          -62 hlineto
          -416 -710 rlineto
          63 hlineto
          -17 710 rmoveto
          -89 -42 -61 -133 hvcurveto
          hintmask 11011111
          -134 40 -60 91 84 32 73 83 vhcurveto
          -66 hlineto
          -62 -14 -33 -36 -42 -19 40 80 vhcurveto
          25 vlineto
          81 19 40 42 36 11 -30 -65 vhcurveto
          69 hlineto
          hintmask 10111111
          101 -34 55 -82 vhcurveto
          396 -383 rmoveto
          44 22 -40 -81 hvcurveto
          -25 vlineto
          -81 -22 -40 -44 -43 -22 40 81 vhcurveto
          25 vlineto
          81 22 40 43 vhcurveto
          61 vmoveto
          -88 -46 -62 -133 -133 46 -61 88 89 46 61 133 133 -46 62 -89 hvcurveto
          endchar
        </CharString>
        <CharString name="afii61289">
          -158 -12 69 614 64 hstem
          74 69 112 56 vstem
          207 735 rmoveto
          -66 -67 -56 -171 hvcurveto
          -253 vlineto
          -12 -14 -10 -10 -11 -11 rrcurveto
          -70 vlineto
          34 32 rlineto
          -14 vlineto
          -99 2 37 -81 103 hhcurveto
          32 25 9 17 25 hvcurveto
          73 vlineto
          -18 -19 -23 -12 -27 hhcurveto
          -48 -39 39 102 hvcurveto
          38 vlineto
          101 112 67 116 118 vvcurveto
          88 -34 65 -70 vhcurveto
          1 -64 rmoveto
          33 14 -33 -55 -89 -49 -92 -63 -84 hvcurveto
          190 vlineto
          123 33 40 32 vhcurveto
          endchar
        </CharString>
        <CharString name="afii61352">
          373 21 -21 202 62 40 62 270 62 -12 -20 hstemhm
          64 79 294 79 56 72 -60 247 -61 72 hintmask 1111011101000000
          707 636 rmoveto
          43 20 -42 -80 hvcurveto
          -26 vlineto
          -80 -20 -42 -43 -42 -21 42 80 vhcurveto
          26 vlineto
          80 21 42 42 vhcurveto
          62 vmoveto
          -88 -47 -61 -136 -136 47 -61 88 88 47 61 136 136 -47 61 -88 hvcurveto
          hintmask 1110111010000000
          -191 -12 rmoveto
          -79 -431 hlineto
          -22 3 -69 0 vhcurveto
          -3 -1 rlineto
          0 -27 66 -15 26 vhcurveto
          -255 431 rlineto
          -76 -686 79 437 hlineto
          28 -4 63 0 vhcurveto
          3 1 rlineto
          0 27 -63 17 -29 vhcurveto
          257 -437 rlineto
          73 hlineto
          315 264 rmoveto
          -247 -62 247 hlineto
          endchar
        </CharString>
        <CharString name="agrave">
          -51 -12 73 -69 69 178 73 153 73 53 132 hstemhm
          34 86 -66 82 164 82 hintmask 10111011
          223 538 rmoveto
          -99 -70 -50 -96 -9 0 -7 1 -6 hvcurveto
          81 12 hlineto
          40 19 43 62 67 16 -35 -50 vhcurveto
          -68 vlineto
          hintmask 10111101
          -153 -113 -31 -145 -127 86 -21 52 55 46 26 43 27 hvcurveto
          5 hlineto
          hintmask 01111011
          -39 10 30 -26 43 hhcurveto
          26 19 7 5 9 hvcurveto
          hintmask 10111011
          57 -32 vlineto
          -14 -14 10 25 hvcurveto
          295 vlineto
          93 -53 54 -106 vhcurveto
          77 -347 rmoveto
          -87 -57 -43 -52 vhcurveto
          hintmask 10111101
          -46 -25 20 60 82 73 16 107 hvcurveto
          -17 352 rmoveto
          -86 132 rlineto
          -90 hlineto
          -1 -3 108 -129 rlineto
          endchar
        </CharString>
        <CharString name="amacron">
          -51 -12 73 -69 69 178 73 153 73 61 72 hstemhm
          34 86 -66 82 -33 251 -54 82 hintmask 1011101010000000
          223 538 rmoveto
          -99 -70 -50 -96 -9 0 -7 1 -6 hvcurveto
          81 12 hlineto
          40 19 43 62 67 16 -35 -50 vhcurveto
          -68 vlineto
          hintmask 1011110010000000
          -153 -113 -31 -145 -127 86 -21 52 55 46 26 43 27 hvcurveto
          5 hlineto
          hintmask 0111101010000000
          -39 10 30 -26 43 hhcurveto
          26 19 7 5 9 hvcurveto
          hintmask 1011101010000000
          57 -32 vlineto
          -14 -14 10 25 hvcurveto
          295 vlineto
          93 -53 54 -106 vhcurveto
          77 -347 rmoveto
          -87 -57 -43 -52 vhcurveto
          hintmask 1011110010000000
          -46 -25 20 60 82 73 16 107 hvcurveto
          hintmask 1011100100000000
          54 432 rmoveto
          -251 -72 251 hlineto
          endchar
        </CharString>
        <CharString name="ampersand">
          40 -12 75 249 73 238 75 hstemhm
          35 88 -76 88 1 155 91 82 hintmask 11110010
          256 698 rmoveto
          hintmask 11101010
          -125 -84 -66 -122 -81 38 -44 51 -29 hvcurveto
          -4 vlineto
          hintmask 11110010
          -58 -22 -43 -55 -91 vvcurveto
          -122 88 -74 125 142 74 81 125 vhcurveto
          117 70 74 -152 -194 vlineto
          -85 -43 -43 -85 -78 -53 37 90 97 58 25 61 vhcurveto
          hintmask 11110110
          49 73 -51 hlineto
          hintmask 11101010
          -56 -49 39 81 85 55 33 65 73 54 -37 -85 hvcurveto
          -9 82 18 vlineto
          hintmask 11110010
          114 -86 74 -122 vhcurveto
          endchar
        </CharString>
        <CharString name="aogonek">
          -51 -182 65 105 73 -45 -21 26 -21 239 73 153 73 hstemhm
          34 86 -66 82 164 82 -50 78 hintmask 1100110110000000
          223 538 rmoveto
          -99 -70 -50 -96 -9 0 -7 1 -6 hvcurveto
          81 12 hlineto
          40 19 43 62 67 16 -35 -50 vhcurveto
          -68 vlineto
          hintmask 1100111001000000
          -153 -113 -31 -145 -127 86 -21 52 55 46 26 43 27 hvcurveto
          5 hlineto
          hintmask 1010110101000000
          8 -32 21 -22 30 -8 rrcurveto
          -18 -22 -14 -26 -39 vvcurveto
          -69 51 -21 43 20 20 5 9 21 vhcurveto
          51 -31 vlineto
          -34 -12 27 28 hvcurveto
          hintmask 1001110101000000
          24 12 23 11 15 vhcurveto
          4 1 3 2 2 1 rrcurveto
          hintmask 1100110110000000
          57 -32 vlineto
          -14 -14 10 25 hvcurveto
          295 vlineto
          93 -53 54 -106 vhcurveto
          77 -347 rmoveto
          -87 -57 -43 -52 vhcurveto
          hintmask 1100111010000000
          -46 -25 20 60 82 73 16 107 hvcurveto
          endchar
        </CharString>
        <CharString name="approxequal">
          42 39 94 -32 94 57 94 -32 94 hstemhm
          35 477 hintmask 01101000
          512 420 rmoveto
          0 -57 -74 -81 -37 -32 16 15 -32 vhcurveto
          hintmask 01011000
          16 -32 -32 15 -36 hhcurveto
          -93 -45 -74 0 hvcurveto
          -94 vlineto
          0 57 74 81 37 32 -15 -16 32 vhcurveto
          hintmask 10101000
          -15 32 32 -16 36 hhcurveto
          93 45 74 0 hvcurveto
          -119 vmoveto
          0 -57 -74 -81 -37 -32 16 15 -32 vhcurveto
          hintmask 01011000
          16 -32 -32 15 -36 hhcurveto
          -93 -45 -74 0 hvcurveto
          -94 vlineto
          0 57 74 81 37 32 -15 -16 32 vhcurveto
          hintmask 10011000
          -15 32 32 -16 36 hhcurveto
          93 45 74 0 hvcurveto
          endchar
        </CharString>
        <CharString name="aring">
          -51 -12 73 -69 69 178 73 153 73 24 45 102 45 hstemhm
          34 86 -66 82 -4 45 102 45 -24 82 hintmask 1011010100100000
          223 538 rmoveto
          -99 -70 -50 -96 -9 0 -7 1 -6 hvcurveto
          81 12 hlineto
          40 19 43 62 67 16 -35 -50 vhcurveto
          -68 vlineto
          hintmask 1011011000100000
          -153 -113 -31 -145 -127 86 -21 52 55 46 26 43 27 hvcurveto
          5 hlineto
          hintmask 0111010100100000
          -39 10 30 -26 43 hhcurveto
          26 19 7 5 9 hvcurveto
          hintmask 1011010100100000
          57 -32 vlineto
          -14 -14 10 25 hvcurveto
          295 vlineto
          93 -53 54 -106 vhcurveto
          77 -347 rmoveto
          -87 -57 -43 -52 vhcurveto
          hintmask 1011011000100000
          -46 -25 20 60 82 73 16 107 hvcurveto
          hintmask 1011110011000000
          -72 515 rmoveto
          -53 -43 -42 -53 -55 44 -42 52 53 43 43 54 51 -42 44 -54 hvcurveto
          -45 vmoveto
          27 24 -22 -28 -28 -24 -24 -27 -28 -23 24 28 28 23 22 28 hvcurveto
          endchar
        </CharString>
        <CharString name="aringacute">
          -51 -12 73 -69 69 178 73 153 73 27 43 93 44 23 115 hstemhm
          34 86 -66 82 -4 45 102 45 -24 82 hintmask 1011110001100000
          229 745 rmoveto
          -54 -43 -39 -51 -52 44 -38 53 53 42 39 51 50 -41 40 -54 hvcurveto
          -44 vmoveto
          26 24 -19 -27 -27 -24 -20 -26 -28 -24 20 27 27 24 19 28 hvcurveto
          hintmask 1011010010010000
          -6 -163 rmoveto
          -99 -70 -50 -96 -9 0 -7 1 -6 hvcurveto
          81 12 hlineto
          40 19 43 62 67 16 -35 -50 vhcurveto
          -68 vlineto
          hintmask 1011010100010000
          -153 -113 -31 -145 -127 86 -21 52 55 46 26 43 27 hvcurveto
          5 hlineto
          hintmask 0111010010010000
          -39 10 30 -26 43 hhcurveto
          26 19 7 5 9 hvcurveto
          hintmask 1011010010010000
          57 -32 vlineto
          -14 -14 10 25 hvcurveto
          295 vlineto
          93 -53 54 -106 vhcurveto
          77 -347 rmoveto
          hintmask 1011011100010000
          -87 -57 -43 -52 -46 -25 20 60 82 73 16 107 vhcurveto
          61 644 rmoveto
          -90 hlineto
          -75 -115 rlineto
          69 hlineto
          97 112 rlineto
          endchar
        </CharString>
        <CharString name="arrowboth">
          493 216 73 hstem
          42 917 vstem
          762 426 rmoveto
          -42 hlineto
          58 -137 rlineto
          -550 hlineto
          53 137 rlineto
          -42 hlineto
          -197 -163 rlineto
          -21 vlineto
          197 -163 rlineto
          42 hlineto
          -53 137 rlineto
          550 hlineto
          -58 -137 rlineto
          42 hlineto
          197 163 rlineto
          21 vlineto
          endchar
        </CharString>
        <CharString name="arrowdown">
          -7 -208 918 hstem
          214 73 vstem
          287 710 rmoveto
          -73 -737 hlineto
          -137 58 rlineto
          -42 vlineto
          163 -197 rlineto
          21 hlineto
          163 197 rlineto
          42 vlineto
          -137 -58 rlineto
          endchar
        </CharString>
        <CharString name="arrowleft">
          493 216 73 hstem
          42 918 vstem
          281 426 rmoveto
          -42 hlineto
          -197 -163 rlineto
          -21 vlineto
          197 -163 rlineto
          42 hlineto
          -58 137 rlineto
          737 73 -737 hlineto
          endchar
        </CharString>
        <CharString name="arrowright">
          493 216 73 hstem
          41 918 vstem
          762 426 rmoveto
          -42 hlineto
          58 -137 rlineto
          -737 -73 737 hlineto
          -58 -137 rlineto
          42 hlineto
          197 163 rlineto
          21 vlineto
          endchar
        </CharString>
        <CharString name="arrowup">
          -7 -208 918 hstem
          214 73 vstem
          261 710 rmoveto
          -21 hlineto
          -163 -197 rlineto
          -42 vlineto
          137 58 rlineto
          -737 73 737 vlineto
          137 -58 rlineto
          42 vlineto
          endchar
        </CharString>
        <CharString name="arrowupdn">
          -7 -206 917 hstem
          213 73 vstem
          260 711 rmoveto
          -21 hlineto
          -163 -197 rlineto
          -42 vlineto
          137 53 rlineto
          -550 vlineto
          -137 58 rlineto
          -42 vlineto
          163 -197 rlineto
          21 hlineto
          163 197 rlineto
          42 vlineto
          -137 -58 rlineto
          550 vlineto
          137 -53 rlineto
          42 vlineto
          endchar
        </CharString>
        <CharString name="arrowupdnbse">
          -7 -303 48 hstem
          213 73 vstem
          260 711 rmoveto
          -21 hlineto
          -163 -197 rlineto
          -42 vlineto
          137 53 rlineto
          -550 vlineto
          -137 58 rlineto
          -42 vlineto
          163 -197 rlineto
          21 hlineto
          163 197 rlineto
          42 vlineto
          -137 -58 rlineto
          550 vlineto
          137 -53 rlineto
          42 vlineto
          2 -769 rmoveto
          -350 -48 350 hlineto
          endchar
        </CharString>
        <CharString name="asciicircum">
          -122 609 77 0 -20 hstemhm
          4 380 hintmask 01100000
          247 686 rmoveto
          -107 hlineto
          -136 -392 rlineto
          90 hlineto
          hintmask 10100000
          99 315 101 -315 rlineto
          90 hlineto
          endchar
        </CharString>
        <CharString name="asciitilde">
          -28 223 92 -31 92 hstemhm
          35 409 hintmask 10100000
          444 388 rmoveto
          0 -49 -73 -69 -32 -28 15 16 -27 vhcurveto
          hintmask 01100000
          15 -28 -27 15 -31 hhcurveto
          -79 -39 -73 0 hvcurveto
          -92 vlineto
          0 49 73 69 32 28 -15 -15 27 vhcurveto
          hintmask 10100000
          -16 28 27 -15 31 hhcurveto
          79 39 73 0 hvcurveto
          endchar
        </CharString>
        <CharString name="asterisk">
          -188 686 -20 hstem
          129.5 59 vstem
          193 686 rmoveto
          -68 hlineto
          9 -89 -74 52 -34 -58 82 -38 -82 -38 34 -59 74 52 -9 -89 rlineto
          68 hlineto
          -9 89 74 -52 34 59 -82 38 82 38 -34 58 -74 -51 rlineto
          endchar
        </CharString>
        <CharString name="at">
          325 -153 55 120 65 162 66 140 66 122 55 hstemhm
          45 58 159 78 -60 75 149 74 150 58 hintmask 1111111011000000
          427 698 rmoveto
          -206 -176 -117 -319 -289 134 -126 216 39 73 11 16 38 hvcurveto
          60 vlineto
          -18 -33 -75 -14 -42 hhcurveto
          -199 -93 120 239 258 124 124 199 178 124 -94 -227 -185 -64 -50 -52 -22 -12 11 27 hvcurveto
          262 vlineto
          85 -48 49 -96 vhcurveto
          hintmask 1111110111000000
          -90 -64 -45 -88 -8 0 -6 1 -6 hvcurveto
          74 11 hlineto
          37 17 39 56 61 15 -32 -46 vhcurveto
          -62 vlineto
          hintmask 1111111011000000
          -139 -103 -28 -132 -115 79 -19 46 50 42 24 39 25 hvcurveto
          4 hlineto
          -37 9 23 -25 57 hhcurveto
          79 110 72 227 268 -153 109 -206 hvcurveto
          77 -493 rmoveto
          -79 -52 -39 -47 -42 -23 18 55 75 67 14 97 vhcurveto
          endchar
        </CharString>
        <CharString name="atilde">
          -51 -12 73 -69 69 178 73 153 73 81 73 -42 73 hstemhm
          34 86 -66 82 164 82 hintmask 1011010110000000
          223 538 rmoveto
          -99 -70 -50 -96 -9 0 -7 1 -6 hvcurveto
          81 12 hlineto
          40 19 43 62 67 16 -35 -50 vhcurveto
          -68 vlineto
          hintmask 1011011010000000
          -153 -113 -31 -145 -127 86 -21 52 55 46 26 43 27 hvcurveto
          5 hlineto
          hintmask 0111010110000000
          -39 10 30 -26 43 hhcurveto
          26 19 7 5 9 hvcurveto
          hintmask 1011010110000000
          57 -32 vlineto
          -14 -14 10 25 hvcurveto
          295 vlineto
          93 -53 54 -106 vhcurveto
          77 -347 rmoveto
          -87 -57 -43 -52 vhcurveto
          hintmask 1011011010000000
          -46 -25 20 60 82 73 16 107 hvcurveto
          16 484 rmoveto
          hintmask 1011100110000000
          -23 -3 -13 -8 -18 hhcurveto
          -19 -18 8 8 -19 hvcurveto
          hintmask 1011010110000000
          7 -18 -19 8 -22 hhcurveto
          -30 -21 -14 -21 -14 hvcurveto
          hintmask 1011100110000000
          -14 -20 -6 -26 -23 vvcurveto
          58 hlineto
          hintmask 1011010110000000
          23 3 13 8 18 hhcurveto
          hintmask 1011100110000000
          39 33 -31 43 hhcurveto
          hintmask 1011010110000000
          60 25 58 46 hvcurveto
          endchar
        </CharString>
        <CharString name="b">
          -51 -12 73 -40 -21 465 73 185 -20 hstemhm
          60 82 188 86 hintmask 10111100
          138 61 rmoveto
          -48 25 42 -25 48 hhcurveto
          100 63 83 193 191 -70 83 -87 -51 -43 -23 -39 -18 hvcurveto
          -5 247 -82 hlineto
          hintmask 01111100
          -723 62 vlineto
          hintmask 10111100
          11 61 rlineto
          197 183 rmoveto
          -131 -31 -52 -63 -63 -31 62 121 vhcurveto
          34 vlineto
          124 31 63 63 63 31 -52 -131 vhcurveto
          endchar
        </CharString>
        <CharString name="backslash">
          -279 -49 784 hstem
          1 227 vstem
          71 735 rmoveto
          -70 hlineto
          156 -784 rlineto
          71 hlineto
          endchar
        </CharString>
        <CharString name="bar">
          -294 -152 -21 896 -20 hstem
          67 79 vstem
          146 723 rmoveto
          -79 -896 79 hlineto
          endchar
        </CharString>
        <CharString name="braceleft">
          -233 -159 57 348 37 10 37 348 57 hstemhm
          20 60 17 78 hintmask 10110100
          254 735 rmoveto
          -83 -74 -22 -126 hvcurveto
          -197 vlineto
          -22 -10 -15 -15 -10 vhcurveto
          hintmask 11111100
          -9 -15 -19 -4 -18 hhcurveto
          -84 vlineto
          hintmask 11110100
          36 41 -15 -45 hvcurveto
          -197 vlineto
          -126 74 -22 83 vhcurveto
          57 vlineto
          -36 -43 12 59 69 -4 67 -3 70 hvcurveto
          hintmask 11111100
          68 -2 -22 40 -64 hhcurveto
          10 vlineto
          hintmask 10110100
          64 22 40 68 2 hvcurveto
          3 70 4 67 69 vvcurveto
          59 43 12 36 vhcurveto
          endchar
        </CharString>
        <CharString name="braceright">
          -233 -159 57 348 37 10 37 348 57 hstemhm
          99 78 17 60 hintmask 10111000
          20 678 rmoveto
          36 43 -12 -59 -69 4 -67 3 -70 hvcurveto
          hintmask 10111100
          -68 2 22 -40 64 hhcurveto
          -10 vlineto
          hintmask 11111000
          -64 -22 -40 -68 -2 hvcurveto
          -3 -70 -4 -67 -69 vvcurveto
          -59 -43 -12 -36 vhcurveto
          -57 vlineto
          83 74 22 126 hvcurveto
          197 vlineto
          23 10 15 15 9 vhcurveto
          hintmask 10111100
          9 15 19 4 18 hhcurveto
          84 vlineto
          hintmask 10111000
          -36 -41 15 45 hvcurveto
          197 vlineto
          126 -74 22 -83 vhcurveto
          endchar
        </CharString>
        <CharString name="bracketleft">
          -279 -161 65 766 65 hstem
          49 76 vstem
          208 735 rmoveto
          -159 -896 159 65 -83 766 83 hlineto
          endchar
        </CharString>
        <CharString name="bracketright">
          -279 -161 65 766 65 hstem
          103 76 vstem
          179 735 rmoveto
          -159 -65 83 -766 -83 -65 159 hlineto
          endchar
        </CharString>
        <CharString name="breve">
          -234 626 64 -64 97 hstemhm
          11 247 hintmask 01100000
          194 723 rmoveto
          hintmask 10100000
          -14 -2 -24 -19 -34 hhcurveto
          -16 -14 5 6 -11 hvcurveto
          hintmask 01100000
          -10 7 -6 8 -2 7 rrcurveto
          -64 hlineto
          hintmask 10100000
          -45 47 -52 76 39 31 13 19 21 vhcurveto
          hintmask 01100000
          21 18 12 25 22 vvcurveto
          endchar
        </CharString>
        <CharString name="brokenbar">
          -294 -152 -21 896 -20 hstem
          67 79 vstem
          146 723 rmoveto
          -79 -380 79 hlineto
          -136 vmoveto
          -79 -380 79 hlineto
          endchar
        </CharString>
        <CharString name="bullet">
          -220 232 223 hstem
          34 219 vstem
          143 455 rmoveto
          -60 -49 -50 -61 -61 49 -51 60 61 49 51 61 61 -49 50 -61 hvcurveto
          endchar
        </CharString>
        <CharString name="c">
          -97 -12 73 404 73 hstem
          36 86 170 85 vstem
          216 538 rmoveto
          -123 -57 -86 -189 -189 56 -86 124 116 45 97 110 hvcurveto
          -81 hlineto
          -87 -21 -47 -59 -66 -28 62 121 vhcurveto
          38 vlineto
          121 29 62 65 59 17 -43 -91 vhcurveto
          85 hlineto
          134 -47 73 -114 vhcurveto
          endchar
        </CharString>
        <CharString name="cacute">
          -97 -12 73 404 73 53 132 hstem
          36 86 170 85 vstem
          216 538 rmoveto
          -123 -57 -86 -189 -189 56 -86 124 116 45 97 110 hvcurveto
          -81 hlineto
          -87 -21 -47 -59 -66 -28 62 121 vhcurveto
          38 vlineto
          121 29 62 65 59 17 -43 -91 vhcurveto
          85 hlineto
          134 -47 73 -114 vhcurveto
          116 182 rmoveto
          -1 3 rlineto
          -90 hlineto
          -86 -132 rlineto
          70 hlineto
          endchar
        </CharString>
        <CharString name="caron">
          -234 588 135 hstem
          10 249 vstem
          259 723 rmoveto
          -80 hlineto
          -45 -79 -44 79 rlineto
          -80 hlineto
          85 -135 rlineto
          78 hlineto
          endchar
        </CharString>
        <CharString name="ccaron">
          -97 -12 73 404 73 50 135 hstem
          36 86 170 85 vstem
          216 538 rmoveto
          -123 -57 -86 -189 -189 56 -86 124 116 45 97 110 hvcurveto
          -81 hlineto
          -87 -21 -47 -59 -66 -28 62 121 vhcurveto
          38 vlineto
          121 29 62 65 59 17 -43 -91 vhcurveto
          85 hlineto
          134 -47 73 -114 vhcurveto
          114 185 rmoveto
          -80 hlineto
          -45 -79 -44 79 rlineto
          -80 hlineto
          85 -135 rlineto
          78 hlineto
          endchar
        </CharString>
        <CharString name="ccedilla">
          -97 -182 57 -28 -21 97 41 24 73 -52 -21 27 -21 471 73 hstemhm
          36 86 101 76 -7 85 hintmask 1000011101000000
          216 538 rmoveto
          -123 -57 -86 -189 -162 41 -86 90 -21 hvcurveto
          hintmask 1010011110000000
          -11 -71 rlineto
          33 hlineto
          26 8 -8 -16 -19 -14 -5 -22 hvcurveto
          -76 hlineto
          hintmask 0100011101000000
          -49 vlineto
          hintmask 1010011110000000
          -5 24 32 -3 28 hhcurveto
          41 63 14 67 46 -38 16 -43 3 hvcurveto
          hintmask 1000101110000000
          3 24 rlineto
          hintmask 1000101101000000
          112 3 44 96 108 vvcurveto
          -81 hlineto
          hintmask 1001001101000000
          -87 -21 -47 -59 -66 -28 62 121 vhcurveto
          38 vlineto
          121 29 62 65 59 17 -43 -91 vhcurveto
          85 hlineto
          hintmask 1000011101000000
          134 -47 73 -114 vhcurveto
          endchar
        </CharString>
        <CharString name="ccircumflex">
          -97 -12 73 404 73 49 135 -56 56 hstemhm
          36 86 170 85 hintmask 11101100
          216 538 rmoveto
          -123 -57 -86 -189 -189 56 -86 124 116 45 97 110 hvcurveto
          -81 hlineto
          -87 -21 -47 -59 -66 -28 62 121 vhcurveto
          38 vlineto
          121 29 62 65 59 17 -43 -91 vhcurveto
          85 hlineto
          134 -47 73 -114 vhcurveto
          29 184 rmoveto
          -78 hlineto
          -86 -135 rlineto
          80 hlineto
          hintmask 11011100
          45 79 rlineto
          hintmask 11101100
          44 -79 rlineto
          80 hlineto
          endchar
        </CharString>
        <CharString name="cdotaccent">
          -97 -12 73 404 73 90 95 hstem
          36 86 40 87 43 85 vstem
          216 538 rmoveto
          -123 -57 -86 -189 -189 56 -86 124 116 45 97 110 hvcurveto
          -81 hlineto
          -87 -21 -47 -59 -66 -28 62 121 vhcurveto
          38 vlineto
          121 29 62 65 59 17 -43 -91 vhcurveto
          85 hlineto
          134 -47 73 -114 vhcurveto
          33 185 rmoveto
          -87 -95 87 hlineto
          endchar
        </CharString>
        <CharString name="cedilla">
          -234 -182 57 -28 -21 97 88 hstemhm
          148 76 hintmask 10110000
          150 11 rmoveto
          -55 hlineto
          -14 -88 rlineto
          33 hlineto
          26 8 -8 -16 -19 -14 -5 -22 hvcurveto
          -76 hlineto
          hintmask 01110000
          -49 vlineto
          hintmask 10110000
          -5 24 32 -3 28 hhcurveto
          41 63 14 67 46 -38 16 -43 3 hvcurveto
          endchar
        </CharString>
        <CharString name="cent">
          -51 723 -20 hstem
          48 86 76 49 63 85 vstem
          259 723 rmoveto
          -49 -107 hlineto
          -111 -11 -51 -87 -175 vvcurveto
          -176 51 -86 111 -12 vhcurveto
          -118 49 118 vlineto
          106 11 42 92 103 vvcurveto
          -81 hlineto
          -77 -18 -45 -49 -10 vhcurveto
          400 vlineto
          48 -10 15 -42 -80 vvcurveto
          85 hlineto
          125 -43 72 -105 9 vhcurveto
          -49 -473 rmoveto
          -54 15 -22 60 105 vvcurveto
          38 vlineto
          104 23 61 53 14 vhcurveto
          endchar
        </CharString>
        <CharString name="circumflex">
          -234 587 135 -56 56 hstemhm
          10 249 hintmask 10100000
          174 722 rmoveto
          -78 hlineto
          -86 -135 rlineto
          80 hlineto
          hintmask 01100000
          45 79 rlineto
          hintmask 10100000
          44 -79 rlineto
          80 hlineto
          endchar
        </CharString>
        <CharString name="colon">
          -279 0 108 310 108 hstem
          64 100 vstem
          164 108 rmoveto
          -100 -108 100 hlineto
          526 vmoveto
          -100 -108 100 hlineto
          endchar
        </CharString>
        <CharString name="comma">
          -279 0 108 hstem
          64 100 vstem
          164 108 rmoveto
          -100 -108 40 hlineto
          -40 -124 rlineto
          52 hlineto
          48 133 rlineto
          endchar
        </CharString>
        <CharString name="commaaccent">
          -234 -151 91 hstem
          96 85 vstem
          181 -60 rmoveto
          -85 -91 34 hlineto
          -23 -71 rlineto
          45 hlineto
          29 78 rlineto
          endchar
        </CharString>
        <CharString name="copyright">
          97 -12 47 104 52 315 52 93 47 hstem
          21 46 78 59 185 56 92 46 vstem
          302 698 rmoveto
          -175 -106 -139 -216 -216 106 -139 175 175 106 139 216 216 -106 139 -175 hvcurveto
          2 -140 rmoveto
          -105 -54 -69 -141 -140 54 -69 105 82 59 48 104 hvcurveto
          -56 hlineto
          -67 -34 -33 -51 -68 -32 48 95 vhcurveto
          30 vlineto
          95 32 47 68 50 33 -33 -68 vhcurveto
          58 hlineto
          103 -59 50 -82 vhcurveto
          -2 93 rmoveto
          146 89 -121 -187 -187 -89 -121 -146 -146 -89 121 187 187 89 121 146 hvcurveto
          endchar
        </CharString>
        <CharString name="currency">
          -51 96 69 355 69 hstem
          11 68 297 69 vstem
          228 589 rmoveto
          -54 -49 -22 -37 -38 hvcurveto
          -42 43 -48 -48 49 -49 rlineto
          -22 -39 -13 -46 -49 vvcurveto
          -50 13 -46 22 -38 vhcurveto
          -49 -49 48 -48 43 43 rlineto
          -36 38 48 -22 54 hhcurveto
          53 49 22 36 38 hvcurveto
          43 -43 48 48 -49 49 rlineto
          22 38 13 46 50 vvcurveto
          49 -13 46 -22 39 vhcurveto
          49 49 -48 48 -43 -43 rlineto
          37 -38 -49 22 -53 hhcurveto
          -69 vmoveto
          82 66 -79 -99 -98 -66 -79 -82 -83 -66 79 98 99 66 79 83 hvcurveto
          endchar
        </CharString>
        <CharString name="d">
          -51 -12 73 -40 -21 465 73 185 -20 hstemhm
          40 86 188 82 hintmask 10111100
          396 723 rmoveto
          -82 -247 -5 hlineto
          39 -18 -43 23 -51 hhcurveto
          -87 -70 -83 -191 -193 63 -83 100 48 42 25 48 25 hvcurveto
          5 hlineto
          hintmask 01111100
          11 -61 rlineto
          62 hlineto
          -176 465 rmoveto
          63 31 -63 -124 hvcurveto
          -34 vlineto
          hintmask 10111100
          -121 -31 -62 -63 -63 -31 52 131 vhcurveto
          38 vlineto
          hintmask 01111100
          131 31 52 63 vhcurveto
          endchar
        </CharString>
        <CharString name="dagger">
          -51 686 -20 hstem
          190 74 vstem
          271 686 rmoveto
          -88 hlineto
          17 -193 -165 17 rlineto
          -93 vlineto
          165 18 -20 -605 rlineto
          94 hlineto
          -20 605 166 -18 rlineto
          93 vlineto
          -166 -17 rlineto
          endchar
        </CharString>
        <CharString name="daggerdbl">
          -51 686 -20 hstem
          191.5 71 vstem
          271 686 rmoveto
          -88 hlineto
          17 -193 -165 17 rlineto
          -93 vlineto
          165 18 -20 -175 20 -179 -165 18 rlineto
          -93 vlineto
          165 17 -17 -193 rlineto
          88 hlineto
          -17 193 166 -17 rlineto
          93 vlineto
          -166 -18 20 179 -20 175 166 -18 rlineto
          93 vlineto
          -166 -17 rlineto
          endchar
        </CharString>
        <CharString name="dcaron">
          -3 -12 73 -40 -21 465 73 40 108 -108 145 hstemhm
          40 86 188 82 40 100 hintmask 10101111
          396 723 rmoveto
          -82 -247 -5 hlineto
          39 -18 -43 23 -51 hhcurveto
          -87 -70 -83 -191 -193 63 -83 100 48 42 25 48 25 hvcurveto
          5 hlineto
          hintmask 01110111
          11 -61 rlineto
          62 hlineto
          -176 465 rmoveto
          63 31 -63 -124 hvcurveto
          -34 vlineto
          hintmask 10110111
          -121 -31 -62 -63 -63 -31 52 131 vhcurveto
          38 vlineto
          hintmask 01110111
          131 31 52 63 vhcurveto
          hintmask 10110111
          316 221 rmoveto
          -100 -108 40 hlineto
          -40 -124 rlineto
          51 hlineto
          49 133 rlineto
          endchar
        </CharString>
        <CharString name="dcroat">
          -54 -12 73 -40 -21 465 73 45 68 -68 140 hstemhm
          40 86 188 82 hintmask 10101110
          396 723 rmoveto
          -82 hlineto
          hintmask 10110110
          -72 -111 vlineto
          hintmask 10101110
          -68 111 -107 -5 vlineto
          39 -18 -43 23 -51 hhcurveto
          -87 -70 -83 -191 -193 63 -83 100 48 42 25 48 25 hvcurveto
          5 hlineto
          hintmask 01101110
          11 -61 rlineto
          62 583 58 hlineto
          hintmask 10110110
          68 -58 vlineto
          -176 -186 rmoveto
          63 31 -63 -124 hvcurveto
          -34 vlineto
          -121 -31 -62 -63 -63 -31 52 131 vhcurveto
          38 vlineto
          131 31 52 63 vhcurveto
          endchar
        </CharString>
        <CharString name="degree">
          -107 428 53 163 54 hstem
          63 53 163 54 vstem
          198 698 rmoveto
          -75 -60 -60 -75 -75 60 -60 75 75 60 60 75 75 -60 60 -75 hvcurveto
          -54 vmoveto
          45 36 -36 -45 -45 -36 -37 -45 -45 -37 37 45 45 37 36 45 hvcurveto
          endchar
        </CharString>
        <CharString name="dieresis">
          -234 628 95 hstem
          18 87 63 87 vstem
          255 723 rmoveto
          -87 -95 87 hlineto
          -150 95 rmoveto
          -87 -95 87 hlineto
          endchar
        </CharString>
        <CharString name="divide">
          42 51 90 72 84 72 91 hstem
          232 84 vstem
          505 297 rmoveto
          -462 -84 462 hlineto
          -189 -72 rmoveto
          -84 -90 84 hlineto
          409 vmoveto
          -84 -91 84 hlineto
          endchar
        </CharString>
        <CharString name="dollar">
          -51 723 -20 hstemhm
          53 83 -71 82 55 49 57 82 -72 82 hintmask 10110100
          251 723 rmoveto
          -49 -107 hlineto
          -85 -11 -52 -54 -83 vvcurveto
          -98 70 -28 67 -23 vhcurveto
          -179 vlineto
          hintmask 11010100
          -39 9 -27 29 56 vvcurveto
          10 -82 vlineto
          -2 -1 -6 -14 vvcurveto
          -73 42 -71 107 -9 vhcurveto
          -118 49 118 vlineto
          87 7 62 50 104 vvcurveto
          107 -79 28 -70 23 vhcurveto
          158 vlineto
          hintmask 10111000
          43 -10 14 -36 -36 vvcurveto
          -9 81 vlineto
          2 1 10 7 vvcurveto
          73 -49 63 -90 7 vhcurveto
          -316 vmoveto
          hintmask 10110100
          38 -17 29 -22 -44 vvcurveto
          -47 -29 -26 -38 -6 vhcurveto
          -49 268 rmoveto
          -32 14 -23 18 35 vvcurveto
          26 10 37 45 9 vhcurveto
          endchar
        </CharString>
        <CharString name="dotaccent">
          -234 628 95 hstem
          93 87 vstem
          180 723 rmoveto
          -87 -95 87 hlineto
          endchar
        </CharString>
        <CharString name="dotlessi">
          -279 21 -21 526 -20 hstem
          73 82 vstem
          155 526 rmoveto
          -82 -526 82 hlineto
          endchar
        </CharString>
        <CharString name="e">
          -51 -12 73 178 73 153 73 hstem
          42 86 199 86 vstem
          240 538 rmoveto
          -132 -66 -86 -189 -195 68 -80 131 102 70 73 118 hvcurveto
          -81 hlineto
          -73 -37 -45 -52 -78 -36 55 123 -1 vhcurveto
          285 52 hlineto
          176 -58 71 -115 vhcurveto
          -73 vmoveto
          57 30 -53 -100 hvcurveto
          -198 hlineto
          101 7 31 52 73 hhcurveto
          endchar
        </CharString>
        <CharString name="eacute">
          -51 -12 73 178 73 153 73 53 132 hstem
          42 86 199 86 vstem
          240 538 rmoveto
          -132 -66 -86 -189 -195 68 -80 131 102 70 73 118 hvcurveto
          -81 hlineto
          -73 -37 -45 -52 -78 -36 55 123 -1 vhcurveto
          285 52 hlineto
          176 -58 71 -115 vhcurveto
          -73 vmoveto
          57 30 -53 -100 hvcurveto
          -198 hlineto
          101 7 31 52 73 hhcurveto
          117 255 rmoveto
          -1 3 rlineto
          -90 hlineto
          -86 -132 rlineto
          70 hlineto
          endchar
        </CharString>
        <CharString name="ebreve">
          -51 -12 73 178 73 153 73 88 64 -64 97 hstemhm
          42 86 199 86 hintmask 11110110
          240 538 rmoveto
          -132 -66 -86 -189 -195 68 -80 131 102 70 73 118 hvcurveto
          -81 hlineto
          -73 -37 -45 -52 -78 -36 55 123 -1 vhcurveto
          285 52 hlineto
          176 -58 71 -115 vhcurveto
          -73 vmoveto
          57 30 -53 -100 hvcurveto
          -198 hlineto
          101 7 31 52 73 hhcurveto
          hintmask 11101110
          48 258 rmoveto
          hintmask 11110110
          -14 -2 -24 -19 -34 hhcurveto
          -17 -14 5 6 -10 hvcurveto
          hintmask 11101110
          -10 7 -6 8 -2 7 rrcurveto
          -65 hlineto
          hintmask 11110110
          -45 48 -52 76 39 31 13 19 21 vhcurveto
          hintmask 11101110
          21 18 12 25 22 vvcurveto
          endchar
        </CharString>
        <CharString name="ecaron">
          -51 -12 73 178 73 153 73 50 135 hstem
          42 86 199 86 vstem
          240 538 rmoveto
          -132 -66 -86 -189 -195 68 -80 131 102 70 73 118 hvcurveto
          -81 hlineto
          -73 -37 -45 -52 -78 -36 55 123 -1 vhcurveto
          285 52 hlineto
          176 -58 71 -115 vhcurveto
          -73 vmoveto
          57 30 -53 -100 hvcurveto
          -198 hlineto
          101 7 31 52 73 hhcurveto
          113 258 rmoveto
          -80 hlineto
          -45 -79 -44 79 rlineto
          -80 hlineto
          84 -135 rlineto
          79 hlineto
          endchar
        </CharString>
        <CharString name="ecircumflex">
          -51 -12 73 178 73 153 73 49 135 -56 56 hstemhm
          42 86 199 86 hintmask 11110110
          240 538 rmoveto
          -132 -66 -86 -189 -195 68 -80 131 102 70 73 118 hvcurveto
          -81 hlineto
          -73 -37 -45 -52 -78 -36 55 123 -1 vhcurveto
          285 52 hlineto
          176 -58 71 -115 vhcurveto
          -73 vmoveto
          57 30 -53 -100 hvcurveto
          -198 hlineto
          101 7 31 52 73 hhcurveto
          28 257 rmoveto
          -79 hlineto
          -85 -135 rlineto
          80 hlineto
          hintmask 11101110
          45 79 rlineto
          hintmask 11110110
          44 -79 rlineto
          80 hlineto
          endchar
        </CharString>
        <CharString name="edieresis">
          -51 -12 73 178 73 153 73 90 95 hstemhm
          42 86 -19 87 63 88 -20 86 hintmask 11111001
          240 538 rmoveto
          -132 -66 -86 -189 -195 68 -80 131 102 70 73 118 hvcurveto
          -81 hlineto
          -73 -37 -45 -52 -78 -36 55 123 -1 vhcurveto
          285 52 hlineto
          176 -58 71 -115 vhcurveto
          -73 vmoveto
          57 30 -53 -100 hvcurveto
          -198 hlineto
          101 7 31 52 73 hhcurveto
          hintmask 11110110
          107 258 rmoveto
          -88 -95 88 hlineto
          -151 95 rmoveto
          -87 -95 87 hlineto
          endchar
        </CharString>
        <CharString name="edotaccent">
          -51 -12 73 178 73 153 73 90 95 hstem
          42 86 57 87 55 86 vstem
          240 538 rmoveto
          -132 -66 -86 -189 -195 68 -80 131 102 70 73 118 hvcurveto
          -81 hlineto
          -73 -37 -45 -52 -78 -36 55 123 -1 vhcurveto
          285 52 hlineto
          176 -58 71 -115 vhcurveto
          -73 vmoveto
          57 30 -53 -100 hvcurveto
          -198 hlineto
          101 7 31 52 73 hhcurveto
          32 258 rmoveto
          -87 -95 87 hlineto
          endchar
        </CharString>
        <CharString name="egrave">
          -51 -12 73 178 73 153 73 53 132 hstem
          42 86 199 86 vstem
          240 538 rmoveto
          -132 -66 -86 -189 -195 68 -80 131 102 70 73 118 hvcurveto
          -81 hlineto
          -73 -37 -45 -52 -78 -36 55 123 -1 vhcurveto
          285 52 hlineto
          176 -58 71 -115 vhcurveto
          -73 vmoveto
          57 30 -53 -100 hvcurveto
          -198 hlineto
          101 7 31 52 73 hhcurveto
          59 126 rmoveto
          -86 132 rlineto
          -90 hlineto
          -1 -3 108 -129 rlineto
          endchar
        </CharString>
        <CharString name="eight">
          -51 -12 73 253 73 238 73 hstemhm
          40 84 -70 82 185 81 -70 84 hintmask 11101100
          228 698 rmoveto
          -115 -59 -86 -105 -65 25 -57 49 -33 hvcurveto
          hintmask 11110010
          -62 -31 -26 -59 -74 vvcurveto
          -110 55 -90 133 133 55 90 110 74 -26 59 -63 31 vhcurveto
          hintmask 11101100
          50 33 25 57 65 vvcurveto
          105 -59 86 -115 vhcurveto
          hintmask 11110010
          -384 vmoveto
          68 36 -48 -78 -78 -36 -49 -68 -68 -36 49 78 78 36 48 68 hvcurveto
          hintmask 11101100
          311 vmoveto
          56 37 -45 -74 -74 -37 -45 -56 -56 -36 45 74 74 36 45 56 hvcurveto
          endchar
        </CharString>
        <CharString name="ellipsis">
          313 0 108 hstem
          87 100 173 100 172 100 vstem
          732 108 rmoveto
          -100 -108 100 hlineto
          -545 108 rmoveto
          -100 -108 100 hlineto
          273 108 rmoveto
          -100 -108 100 hlineto
          endchar
        </CharString>
        <CharString name="emacron">
          -51 -12 73 178 73 153 73 61 72 hstemhm
          42 86 -25 251 -27 86 hintmask 11111010
          240 538 rmoveto
          -132 -66 -86 -189 -195 68 -80 131 102 70 73 118 hvcurveto
          -81 hlineto
          -73 -37 -45 -52 -78 -36 55 123 -1 vhcurveto
          285 52 hlineto
          176 -58 71 -115 vhcurveto
          -73 vmoveto
          57 30 -53 -100 hvcurveto
          -198 hlineto
          101 7 31 52 73 hhcurveto
          hintmask 11110100
          114 206 rmoveto
          -251 -72 251 hlineto
          endchar
        </CharString>
        <CharString name="emdash">
          313 233 75 hstem
          0 820 vstem
          820 308 rmoveto
          -820 -75 820 hlineto
          endchar
        </CharString>
        <CharString name="endash">
          -51 233 75 hstem
          0 455 vstem
          455 308 rmoveto
          -455 -75 455 hlineto
          endchar
        </CharString>
        <CharString name="eng">
          -51 -182 69 -57 57 134 -21 465 73 -12 -20 hstemhm
          60 82 172 82 hintmask 10110110
          266 538 rmoveto
          -52 -46 -21 -52 -29 hvcurveto
          -6 hlineto
          hintmask 10101110
          -11 61 rlineto
          -62 -526 82 321 hlineto
          hintmask 10110110
          91 46 53 52 44 30 -19 -73 vhcurveto
          -438 vlineto
          -31 -16 -17 -31 vhcurveto
          -44 hlineto
          hintmask 01110110
          -57 vlineto
          hintmask 10110110
          -6 17 28 -6 24 hhcurveto
          80 24 61 60 hvcurveto
          440 vlineto
          117 -51 42 -79 vhcurveto
          endchar
        </CharString>
        <CharString name="eogonek">
          -51 -182 65 105 73 178 73 153 73 hstem
          42 86 88 78 33 86 vstem
          240 538 rmoveto
          -132 -66 -86 -189 -195 68 -80 131 hvcurveto
          2 hlineto
          -16 -20 -11 -25 -35 vvcurveto
          -69 51 -21 43 20 20 5 9 21 vhcurveto
          51 -32 vlineto
          -33 -12 27 28 28 17 27 12 14 hvcurveto
          55 29 35 60 83 vvcurveto
          -81 hlineto
          -73 -37 -45 -52 -78 -36 55 123 -1 vhcurveto
          285 52 hlineto
          176 -58 71 -115 vhcurveto
          -73 vmoveto
          57 30 -53 -100 hvcurveto
          -198 hlineto
          101 7 31 52 73 hhcurveto
          endchar
        </CharString>
        <CharString name="equal">
          -28 106 83 129 84 hstem
          43 392 vstem
          435 402 rmoveto
          -392 -84 392 hlineto
          -129 vmoveto
          -392 -83 392 hlineto
          endchar
        </CharString>
        <CharString name="equivalence">
          -29 7 83 129 84 129 84 hstem
          43 392 vstem
          435 516 rmoveto
          -392 -84 392 hlineto
          -342 vmoveto
          -392 -83 392 hlineto
          296 vmoveto
          -392 -84 392 hlineto
          endchar
        </CharString>
        <CharString name="estimated">
          93 -12 42 218 42 206 42 hstem
          45 108 298 108 vstem
          302 538 rmoveto
          -160 -97 -116 -159 -159 97 -116 160 104 78 50 80 42 hvcurveto
          -34 21 rlineto
          -67 -34 -68 -42 -88 hhcurveto
          -62 -50 19 34 -37 hvcurveto
          165 406 5 vlineto
          165 -98 120 -159 vhcurveto
          -42 vmoveto
          61 50 -20 -35 38 hvcurveto
          -151 -298 152 vlineto
          34 37 50 20 62 hhcurveto
          endchar
        </CharString>
        <CharString name="eth">
          -51 -12 73 404 73 -12 -20 99 58 -58 118 -101.5 63.5 -19 57 hstemhm
          40 86 204 86 hintmask 1100100110000000
          119 723 rmoveto
          -2 -4 rlineto
          hintmask 1100001110000000
          17 -18 15 -18 15 -17 rrcurveto
          hintmask 1101000110000000
          -71 -6 rlineto
          hintmask 1010100110000000
          -60 vlineto
          118 10 21 -28 19 -27 16 -29 rlinecurve
          hintmask 1100010110000000
          7 -15 -17 5 -18 hhcurveto
          -103 -74 -81 -194 -189 65 -86 123 123 65 86 189 145 -47 113 -71 97 hvcurveto
          71 7 rlineto
          60 vlineto
          -117 -11 rlineto
          hintmask 1100100110000000
          -14 17 -16 16 -15 16 rrcurveto
          21 -258 rmoveto
          67 35 -62 -121 hvcurveto
          -38 vlineto
          -121 -34 -62 -68 -68 -34 62 121 vhcurveto
          38 vlineto
          121 34 62 68 vhcurveto
          endchar
        </CharString>
        <CharString name="exclam">
          -279 0 108 578 -20 hstemhm
          67 100 -94.5 74.5 hintmask 11010000
          60 686 rmoveto
          10 -171 7 -173 8 -171 rrcurveto
          62 hlineto
          9 181 12 277 5 57 rrcurveto
          hintmask 11100000
          -6 -578 rmoveto
          -100 -108 100 hlineto
          endchar
        </CharString>
        <CharString name="exclamdbl">
          -51 0 108 578 -20 hstemhm
          67 100 -94.5 74.5 135 100 -94.5 74.5 hintmask 11100100
          275 686 rmoveto
          10 -171 7 -173 8 -171 rrcurveto
          62 hlineto
          9 181 12 277 5 57 rrcurveto
          -221 -578 rmoveto
          -100 -108 100 hlineto
          hintmask 11011000
          215 108 rmoveto
          -100 -108 100 hlineto
          -322 686 rmoveto
          10 -171 7 -173 8 -171 rrcurveto
          62 hlineto
          9 181 12 277 5 57 rrcurveto
          endchar
        </CharString>
        <CharString name="exclamdown">
          -234 418 108 hstemhm
          107 100 -94.5 74.5 hintmask 11000000
          125 355 rmoveto
          hintmask 10100000
          -8 -171 -7 -173 -10 -171 rrcurveto
          113 hlineto
          -5 57 -12 277 -9 181 rrcurveto
          hintmask 11000000
          20 171 rmoveto
          -100 -108 100 hlineto
          endchar
        </CharString>
        <CharString name="f">
          -279 21 -21 453 73 136 69 hstem
          55 82 vstem
          159 731 rmoveto
          -80 -24 -61 -60 hvcurveto
          -84 -46 -73 46 -453 82 453 91 73 -91 88 vlineto
          31 16 17 31 vhcurveto
          44 57 hlineto
          6 -17 -28 6 -24 hhcurveto
          endchar
        </CharString>
        <CharString name="five">
          -51 -12 72 312 74 156 84 hstemhm
          40 85 -54.5 76 191.5 85 hintmask 11101100
          394 686 rmoveto
          -312 hlineto
          -23 -380 78 -13 rlineto
          47 20 38 32 44 hhcurveto
          58 41 -53 -95 -111 -45 -53 -61 hvcurveto
          hintmask 11110100
          -60 -47 59 94 hvcurveto
          -85 hlineto
          -140 76 -85 116 118 73 85 151 151 -72 71 -90 vhcurveto
          hintmask 11101100
          -59 -40 -31 -22 -22 hvcurveto
          13 209 rlineto
          241 hlineto
          endchar
        </CharString>
        <CharString name="fiveeighths">
          177 -12 58 128 57 41 58 20 58 84 57 73 64 12 -20 hstemhm
          34 64 -46 57 95 64 154 63 -55 62 90 62 -56 63 hintmask 1110110011100100
          537 174 rmoveto
          34 17 -25 -39 -40 -17 -24 -34 -34 -18 24 40 39 18 25 34 hvcurveto
          hintmask 1111110011011000
          234 vmoveto
          -70 -37 -53 -64 -35 15 -31 25 -21 hvcurveto
          hintmask 1110110011100100
          -32 -20 -16 -34 -40 vvcurveto
          -66 33 -56 82 81 33 56 66 40 -12 32 -36 21 vhcurveto
          hintmask 1110110011101000
          26 21 15 32 35 vvcurveto
          hintmask 1111110011011000
          64 -37 53 -70 vhcurveto
          -58 vmoveto
          27 18 -22 -37 hvcurveto
          hintmask 1110110011011000
          -38 -18 -22 -27 -27 -18 22 38 vhcurveto
          hintmask 1111110011011000
          37 18 22 27 vhcurveto
          hintmask 1110101011101000
          52 348 rmoveto
          -62 hlineto
          -416 -710 rlineto
          63 hlineto
          hintmask 1110110011100100
          78 698 rmoveto
          -193 hlineto
          -14 -227 57 -10 rlineto
          26 13 19 17 22 hhcurveto
          28 20 -28 -49 -58 -22 -27 -30 hvcurveto
          hintmask 1110110101100100
          -30 -24 28 46 hvcurveto
          -64 hlineto
          -83 47 -49 71 72 44 52 91 90 -44 44 -56 vhcurveto
          hintmask 1110110011100100
          -27 -21 -13 -14 -14 hvcurveto
          6 100 rlineto
          140 hlineto
          endchar
        </CharString>
        <CharString name="florin">
          -51 -182 69 515 73 187 69 hstem
          27 392 vstem
          353 731 rmoveto
          -80 -31 -50 -71 -11 hvcurveto
          -21 -135 rlineto
          -71 hlineto
          -11 -73 rlineto
          71 hlineto
          -68 -467 rlineto
          -31 -2 -20 -17 -31 hhcurveto
          -44 hlineto
          -7 -57 rlineto
          -6 15 26 -6 24 hhcurveto
          80 32 50 71 10 hvcurveto
          67 463 rlineto
          91 hlineto
          11 73 rlineto
          -91 hlineto
          22 139 rlineto
          31 2 20 17 31 hhcurveto
          44 hlineto
          8 57 rlineto
          6 -16 -26 6 -24 hhcurveto
          endchar
        </CharString>
        <CharString name="four">
          -51 21 -21 169 73 456 -20 hstem
          285 82 vstem
          198 698 rmoveto
          -40 -156 -66 -168 -72 -131 rrcurveto
          -74 265 -169 82 169 70 73 -70 354 -40 vlineto
          -13 -53 -9 -36 -20 -49 rrcurveto
          -216 -188 vlineto
          38 55 108 217 38 184 rrcurveto
          endchar
        </CharString>
        <CharString name="fraction">
          -370 9 -21 710 -20 hstem
          -174 478 vstem
          304 698 rmoveto
          -62 hlineto
          -416 -710 rlineto
          63 hlineto
          endchar
        </CharString>
        <CharString name="franc">
          -3 21 -21 304 80 -12 93 141 80 hstemhm
          60 88 136 82 hintmask 10111100
          491 457 rmoveto
          0 -17 8 -22 vhcurveto
          hintmask 11011100
          -50 -26 -41 -40 -13 hvcurveto
          -6 hlineto
          hintmask 10111100
          -11 69 rlineto
          -62 hlineto
          hintmask 11011100
          -69 -136 222 250 80 -338 -686 88 304 136 -304 82 248 vlineto
          hintmask 10111100
          93 46 31 52 vhcurveto
          27 hlineto
          endchar
        </CharString>
        <CharString name="g">
          -51 -182 71 123 78 94 68 218 68 hstemhm
          13 82 -57 86 -73 82 179 83 -32 83 -82 72 hintmask 1111001001000000
          364 611 rmoveto
          -5 -33 -13 -34 -47 -25 rrcurveto
          12 -22 -27 7 -27 hhcurveto
          -107 -65 -67 -110 -59 23 -46 38 -31 hvcurveto
          hintmask 1111010100000000
          -44 -16 -30 -32 -43 vvcurveto
          -31 16 -31 27 -17 vhcurveto
          hintmask 1111100010000000
          -42 -16 -26 -45 -51 vvcurveto
          -69 44 -56 86 vhcurveto
          149 hlineto
          100 54 66 83 67 -48 56 -76 hvcurveto
          hintmask 1111010100000000
          -150 hlineto
          -26 -22 21 26 26 21 21 27 hvcurveto
          55 hlineto
          102 1 66 67 109 vvcurveto
          52 -18 42 -29 30 vhcurveto
          hintmask 1111001001000000
          55 14 33 49 63 vvcurveto
          hintmask 1111100010000000
          -135 -599 rmoveto
          42 20 -27 -34 -34 -27 -28 -35 hvcurveto
          -145 hlineto
          -41 -20 28 34 34 19 27 42 hvcurveto
          hintmask 1111001100000000
          66 458 rmoveto
          58 32 -39 -70 -67 -32 -42 -58 -58 -31 39 70 67 31 42 58 hvcurveto
          endchar
        </CharString>
        <CharString name="gbreve">
          -51 -182 71 123 78 94 68 218 68 88 64 -64 97 hstemhm
          13 82 -57 86 -73 82 179 83 -32 83 -82 72 hintmask 1111100010010000
          364 611 rmoveto
          -5 -33 -13 -34 -47 -25 rrcurveto
          12 -22 -27 7 -27 hhcurveto
          -107 -65 -67 -110 -59 23 -46 38 -31 hvcurveto
          hintmask 1111100101000000
          -44 -16 -30 -32 -43 vvcurveto
          -31 16 -31 27 -17 vhcurveto
          hintmask 1111101000100000
          -42 -16 -26 -45 -51 vvcurveto
          -69 44 -56 86 vhcurveto
          149 hlineto
          100 54 66 83 67 -48 56 -76 hvcurveto
          hintmask 1111100101000000
          -150 hlineto
          -26 -22 21 26 26 21 21 27 hvcurveto
          55 hlineto
          102 1 66 67 109 vvcurveto
          52 -18 42 -29 30 vhcurveto
          hintmask 1111100010010000
          55 14 33 49 63 vvcurveto
          hintmask 1111101000100000
          -135 -599 rmoveto
          42 20 -27 -34 -34 -27 -28 -35 hvcurveto
          -145 hlineto
          -41 -20 28 34 34 19 27 42 hvcurveto
          hintmask 1111010011000000
          66 458 rmoveto
          58 32 -39 -70 -67 -32 -42 -58 -58 -31 39 70 67 31 42 58 hvcurveto
          66 253 rmoveto
          hintmask 1111100011000000
          -14 -2 -24 -19 -34 hhcurveto
          -17 -14 5 6 -10 hvcurveto
          hintmask 1111010011000000
          -10 7 -6 8 -2 7 rrcurveto
          -65 hlineto
          hintmask 1111100011000000
          -45 48 -52 76 39 31 13 19 21 vhcurveto
          hintmask 1111010011000000
          21 18 12 25 22 vvcurveto
          endchar
        </CharString>
        <CharString name="gcircumflex">
          -51 -182 71 123 78 94 68 218 68 49 24 -24 135 -56 56 hstemhm
          13 82 -57 86 -73 82 179 83 -32 83 -77 67 hintmask 1111100001001000
          369 611 rmoveto
          -2 -48 -17 -19 -51 -25 rrcurveto
          12 -22 -27 7 -27 hhcurveto
          -107 -65 -67 -110 -59 23 -46 38 -31 hvcurveto
          hintmask 1111010010100000
          -44 -16 -30 -32 -43 vvcurveto
          -31 16 -31 27 -17 vhcurveto
          hintmask 1111010100010000
          -42 -16 -26 -45 -51 vvcurveto
          -69 44 -56 86 vhcurveto
          149 hlineto
          100 54 66 83 67 -48 56 -76 hvcurveto
          hintmask 1111010010100000
          -150 hlineto
          -26 -22 21 26 26 21 21 27 hvcurveto
          55 hlineto
          102 1 66 67 109 vvcurveto
          52 -18 42 -29 30 vhcurveto
          hintmask 1111100001001000
          55 14 33 49 63 vvcurveto
          hintmask 1111010100010000
          -135 -599 rmoveto
          42 20 -27 -34 -34 -27 -28 -35 hvcurveto
          -145 hlineto
          -41 -20 28 34 34 19 27 42 hvcurveto
          hintmask 1111010001100000
          66 458 rmoveto
          58 32 -39 -70 -67 -32 -42 -58 -58 -31 39 70 67 31 42 58 hvcurveto
          46 252 rmoveto
          -79 hlineto
          -85 -135 rlineto
          80 hlineto
          hintmask 1111001001100000
          45 79 rlineto
          hintmask 1111010001100000
          44 -79 rlineto
          80 hlineto
          endchar
        </CharString>
        <CharString name="gcommaaccent">
          -51 -182 71 123 78 94 68 218 68 57 91 hstemhm
          13 82 -57 86 -73 82 37 86 56 83 -32 83 -82 72 hintmask 1111100110010000
          364 611 rmoveto
          -5 -33 -13 -34 -47 -25 rrcurveto
          12 -22 -27 7 -27 hhcurveto
          -107 -65 -67 -110 -59 23 -46 38 -31 hvcurveto
          hintmask 1111101011000000
          -44 -16 -30 -32 -43 vvcurveto
          -31 16 -31 27 -17 vhcurveto
          hintmask 1111110010100000
          -42 -16 -26 -45 -51 vvcurveto
          -69 44 -56 86 vhcurveto
          149 hlineto
          100 54 66 83 67 -48 56 -76 hvcurveto
          hintmask 1111101011000000
          -150 hlineto
          -26 -22 21 26 26 21 21 27 hvcurveto
          55 hlineto
          102 1 66 67 109 vvcurveto
          52 -18 42 -29 30 vhcurveto
          hintmask 1111100110010000
          55 14 33 49 63 vvcurveto
          hintmask 1111110010100000
          -135 -599 rmoveto
          42 20 -27 -34 -34 -27 -28 -35 hvcurveto
          -145 hlineto
          -41 -20 28 34 34 19 27 42 hvcurveto
          hintmask 1111100111000000
          66 458 rmoveto
          58 32 -39 -70 -67 -32 -42 -58 -58 -31 39 70 67 31 42 58 hvcurveto
          -52 125 rmoveto
          86 91 -34 hlineto
          22 71 rlineto
          -44 hlineto
          -30 -78 rlineto
          endchar
        </CharString>
        <CharString name="gdotaccent">
          -51 -182 71 123 78 94 68 218 68 90 95 hstemhm
          13 82 -57 86 -73 82 52 87 40 83 -32 83 -82 72 hintmask 1111100110010000
          364 611 rmoveto
          -5 -33 -13 -34 -47 -25 rrcurveto
          12 -22 -27 7 -27 hhcurveto
          -107 -65 -67 -110 -59 23 -46 38 -31 hvcurveto
          hintmask 1111101011000000
          -44 -16 -30 -32 -43 vvcurveto
          -31 16 -31 27 -17 vhcurveto
          hintmask 1111110010100000
          -42 -16 -26 -45 -51 vvcurveto
          -69 44 -56 86 vhcurveto
          149 hlineto
          100 54 66 83 67 -48 56 -76 hvcurveto
          hintmask 1111101011000000
          -150 hlineto
          -26 -22 21 26 26 21 21 27 hvcurveto
          55 hlineto
          102 1 66 67 109 vvcurveto
          52 -18 42 -29 30 vhcurveto
          hintmask 1111100110010000
          55 14 33 49 63 vvcurveto
          hintmask 1111110010100000
          -135 -599 rmoveto
          42 20 -27 -34 -34 -27 -28 -35 hvcurveto
          -145 hlineto
          -41 -20 28 34 34 19 27 42 hvcurveto
          hintmask 1111100111000000
          66 458 rmoveto
          58 32 -39 -70 -67 -32 -42 -58 -58 -31 39 70 67 31 42 58 hvcurveto
          50 253 rmoveto
          -87 -95 87 hlineto
          endchar
        </CharString>
        <CharString name="germandbls">
          -6 0 74 276 73 239 73 hstemhm
          50 82 56 159 11 84 -63 84 hintmask 11110100
          254 735 rmoveto
          -114 -90 -63 -156 hvcurveto
          -516 82 518 vlineto
          95 46 49 71 71 38 -47 -70 -66 -50 -56 -61 vhcurveto
          hintmask 11111010
          -59 -73 67 hlineto
          69 55 -61 -74 -78 -55 -63 -69 hvcurveto
          -67 -74 75 hlineto
          112 88 85 129 77 -48 75 -68 25 hvcurveto
          4 vlineto
          hintmask 11110100
          56 22 39 65 66 vvcurveto
          117 -80 70 -108 vhcurveto
          endchar
        </CharString>
        <CharString name="grave">
          -234 591 132 hstem
          27 177 vstem
          118 723 rmoveto
          -90 hlineto
          -1 -3 108 -129 rlineto
          69 hlineto
          endchar
        </CharString>
        <CharString name="greater">
          -28 4 500 hstem
          355 81 vstem
          44 504 rmoveto
          -90 vlineto
          311 -160 -311 -160 rlineto
          -90 vlineto
          392 196 rlineto
          107 vlineto
          endchar
        </CharString>
        <CharString name="greaterequal">
          42 0 83 hstem
          390 81 vstem
          79 604 rmoveto
          -90 vlineto
          311 -160 -311 -160 rlineto
          -90 vlineto
          392 196 rlineto
          107 vlineto
          -1 -324 rmoveto
          -392 -83 392 hlineto
          endchar
        </CharString>
        <CharString name="guillemotleft">
          -51 526 -20 hstem
          54 363 vstem
          417 526 rmoveto
          -70 hlineto
          -142 -200 142 -200 rlineto
          70 hlineto
          -112 200 rlineto
          -39 200 rmoveto
          -71 hlineto
          -141 -200 141 -200 rlineto
          71 hlineto
          -113 200 rlineto
          endchar
        </CharString>
        <CharString name="guillemotright">
          -51 526 -20 hstem
          39 363 vstem
          261 526 rmoveto
          -71 hlineto
          113 -200 -113 -200 rlineto
          71 hlineto
          141 200 rlineto
          -293 200 rmoveto
          -70 hlineto
          112 -200 -112 -200 rlineto
          70 hlineto
          142 200 rlineto
          endchar
        </CharString>
        <CharString name="guilsinglleft">
          -234 526 -20 hstem
          29 212 vstem
          241 526 rmoveto
          -71 hlineto
          -141 -200 141 -200 rlineto
          71 hlineto
          -113 200 rlineto
          endchar
        </CharString>
        <CharString name="guilsinglright">
          -234 526 -20 hstem
          32 212 vstem
          103 526 rmoveto
          -71 hlineto
          113 -200 -113 -200 rlineto
          71 hlineto
          141 200 rlineto
          endchar
        </CharString>
        <CharString name="h">
          -51 21 -21 465 73 185 -20 hstem
          60 82 172 82 vstem
          142 723 rmoveto
          -82 -723 82 321 hlineto
          91 46 53 52 44 30 -19 -73 vhcurveto
          -373 82 379 vlineto
          117 -51 42 -79 -52 -39 -20 -47 -27 vhcurveto
          -6 hlineto
          endchar
        </CharString>
        <CharString name="hbar">
          -51 21 -21 465 73 45 68 -68 140 hstemhm
          60 82 172 82 hintmask 11011100
          142 723 rmoveto
          -82 hlineto
          hintmask 11101100
          -72 -60 vlineto
          hintmask 11011100
          -68 60 -583 82 321 vlineto
          91 46 53 52 44 30 -19 -73 vhcurveto
          -373 82 379 vlineto
          117 -51 42 -79 -52 -39 -20 -47 -27 vhcurveto
          -6 112 108 hlineto
          hintmask 11101100
          68 -108 vlineto
          endchar
        </CharString>
        <CharString name="hcircumflex">
          -51 21 -21 465 73 185 -20 44 135 hstemhm
          60 82 172 82 hintmask 11101100
          142 723 rmoveto
          -82 -723 82 321 hlineto
          91 46 53 52 44 30 -19 -73 vhcurveto
          -373 82 379 vlineto
          117 -51 42 -79 -52 -39 -20 -47 -27 vhcurveto
          -6 hlineto
          hintmask 11111100
          1 411 rmoveto
          -79 hlineto
          -86 -135 rlineto
          81 hlineto
          45 79 44 -79 rlineto
          80 hlineto
          endchar
        </CharString>
        <CharString name="house">
          93 0 60 hstem
          75 64 323 63 vstem
          300 563 rmoveto
          -225 -253 rlineto
          -310 450 310 vlineto
          -225 158 rmoveto
          162 -181 rlineto
          -227 -323 227 vlineto
          endchar
        </CharString>
        <CharString name="hungarumlaut">
          -234 591 132 hstem
          4 283 vstem
          286 723 rmoveto
          -90 hlineto
          -62 -132 rlineto
          69 hlineto
          84 129 rlineto
          -131 3 rmoveto
          -90 hlineto
          -62 -132 rlineto
          69 hlineto
          84 129 rlineto
          endchar
        </CharString>
        <CharString name="hyphen">
          -234 221 98 hstem
          10 252 vstem
          262 319 rmoveto
          -252 -98 252 hlineto
          endchar
        </CharString>
        <CharString name="i">
          -325 21 -21 526 -20 119 98 hstem
          50 82 vstem
          132 526 rmoveto
          -82 -526 82 hlineto
          723 vmoveto
          -82 -98 82 hlineto
          endchar
        </CharString>
        <CharString name="iacute">
          -279 21 -21 526 -20 85 132 hstem
          73 82 vstem
          155 hmoveto
          526 -82 -526 vlineto
          158 720 rmoveto
          -1 3 rlineto
          -89 hlineto
          -86 -132 rlineto
          69 hlineto
          endchar
        </CharString>
        <CharString name="ibreve">
          -279 21 -21 526 -20 120 64 -64 97 hstemhm
          73 82 hintmask 11101000
          155 526 rmoveto
          -82 -526 82 hlineto
          hintmask 11011000
          19 723 rmoveto
          hintmask 11101000
          -14 -2 -24 -19 -34 hhcurveto
          -16 -14 5 6 -11 hvcurveto
          hintmask 11011000
          -10 7 -6 8 -2 7 rrcurveto
          -65 hlineto
          hintmask 11101000
          -45 48 -52 76 39 31 13 19 21 vhcurveto
          hintmask 11011000
          21 18 12 25 22 vvcurveto
          endchar
        </CharString>
        <CharString name="icircumflex">
          -279 21 -21 526 -20 81 135 -56 56 hstemhm
          73 82 hintmask 11101000
          155 526 rmoveto
          -82 -526 82 hlineto
          -1 722 rmoveto
          -78 hlineto
          -87 -135 rlineto
          81 hlineto
          hintmask 11011000
          45 79 rlineto
          hintmask 11101000
          44 -79 rlineto
          80 hlineto
          endchar
        </CharString>
        <CharString name="idieresis">
          -279 21 -21 526 -20 122 95 hstemhm
          -4 87 -10 82 -9 87 hintmask 11101000
          155 526 rmoveto
          -82 -526 82 hlineto
          hintmask 11110100
          78 723 rmoveto
          -87 -95 87 hlineto
          -150 95 rmoveto
          -87 -95 87 hlineto
          endchar
        </CharString>
        <CharString name="igrave">
          -279 21 -21 526 -20 85 132 hstem
          73 82 vstem
          155 hmoveto
          526 -82 -526 vlineto
          101 591 rmoveto
          -86 132 rlineto
          -90 hlineto
          -1 -3 108 -129 rlineto
          endchar
        </CharString>
        <CharString name="ij">
          -143 -182 69 -57 57 134 -21 526 -20 119 98 hstemhm
          50 82 100 82 hintmask 10111110
          132 526 rmoveto
          -82 -526 82 hlineto
          723 vmoveto
          -82 -98 82 hlineto
          182 -99 rmoveto
          -82 -591 hlineto
          -31 -16 -17 -31 vhcurveto
          -44 hlineto
          hintmask 01111110
          -57 vlineto
          hintmask 10111110
          -6 17 28 -6 24 hhcurveto
          80 24 61 60 hvcurveto
          784 vmoveto
          -82 -98 82 hlineto
          endchar
        </CharString>
        <CharString name="imacron">
          -279 21 -21 526 -20 93 72 hstem
          73 82 vstem
          155 526 rmoveto
          -82 -526 82 hlineto
          85 671 rmoveto
          -251 -72 251 hlineto
          endchar
        </CharString>
        <CharString name="infinity">
          206 142 72 163 76 hstem
          47 74 470 74 vstem
          517 453 rmoveto
          -70 -49 -46 -51 -42 hvcurveto
          51 -43 -49 46 -69 hhcurveto
          -92 -56 -70 -86 -86 55 -69 92 70 49 45 51 43 hvcurveto
          -51 42 49 -45 71 hhcurveto
          92 55 69 86 86 -56 70 -92 hvcurveto
          -322 -76 rmoveto
          44 35 -36 -44 35 hvcurveto
          -46 -36 -34 -37 -45 hhcurveto
          -40 -33 36 45 45 34 37 40 hvcurveto
          322 hmoveto
          40 34 -37 -45 -45 -33 -36 -40 -45 -35 37 46 -36 hvcurveto
          44 36 34 36 45 hhcurveto
          endchar
        </CharString>
        <CharString name="integral">
          -233 -141 50 901 49 hstem
          91 99 vstem
          249 859 rmoveto
          -86 -72 -18 -94 -154 27 -626 0 hvcurveto
          -44 -36 -14 -49 vhcurveto
          -50 vlineto
          86 71 17 95 153 -28 629 0 hvcurveto
          43 38 14 49 vhcurveto
          endchar
        </CharString>
        <CharString name="integralbt">
          97 -250 49 hstem
          274 71 vstem
          257 859 rmoveto
          8 -481 9 -522 0 vvcurveto
          -43 -38 -14 -49 vhcurveto
          -49 vlineto
          86 72 18 94 80 -7 477 -7 440 hvcurveto
          endchar
        </CharString>
        <CharString name="integraltp">
          97 810 49 hstem
          259 71 vstem
          417 859 rmoveto
          -86 -72 -18 -94 -80 7 -477 7 -440 hvcurveto
          74 hlineto
          -8 481 -9 522 0 vvcurveto
          43 38 14 49 vhcurveto
          endchar
        </CharString>
        <CharString name="intersection">
          215 21 -21 610 66 hstem
          96 73 382 74 vstem
          360 676 rmoveto
          -146 -118 -108 -166 hvcurveto
          -402 73 395 vlineto
          130 85 85 106 106 85 -85 -130 vhcurveto
          -395 74 402 vlineto
          166 -119 108 -146 vhcurveto
          endchar
        </CharString>
        <CharString name="iogonek">
          -325 -182 65 138 -21 526 -20 122 95 hstemhm
          48 88 -86 82 hintmask 11110100
          132 526 rmoveto
          -82 -526 11 hlineto
          -21 -23 -16 -27 -42 vvcurveto
          -69 51 -21 43 20 20 5 9 21 vhcurveto
          51 -32 vlineto
          -33 -12 27 28 24 13 23 11 15 hvcurveto
          6 hlineto
          hintmask 11111000
          4 723 rmoveto
          -88 -95 88 hlineto
          endchar
        </CharString>
        <CharString name="itilde">
          -279 21 -21 526 -20 113 73 -42 73 hstemhm
          73 82 hintmask 11011000
          155 526 rmoveto
          -82 -526 82 hlineto
          47 723 rmoveto
          hintmask 11101000
          -23 -3 -13 -8 -18 hhcurveto
          -19 -18 8 8 -19 hvcurveto
          hintmask 11011000
          7 -18 -19 8 -22 hhcurveto
          -30 -21 -14 -21 -14 hvcurveto
          hintmask 11101000
          -14 -20 -6 -26 -23 vvcurveto
          58 hlineto
          hintmask 11011000
          23 3 13 8 18 hhcurveto
          hintmask 11101000
          39 33 -31 43 hhcurveto
          hintmask 11011000
          60 25 58 46 hvcurveto
          endchar
        </CharString>
        <CharString name="j">
          -325 -182 69 -57 57 639 -20 119 98 hstemhm
          50 82 hintmask 10111000
          132 526 rmoveto
          -82 -591 hlineto
          -31 -16 -17 -31 vhcurveto
          -44 hlineto
          hintmask 01111000
          -57 vlineto
          hintmask 10111000
          -6 17 28 -6 24 hhcurveto
          80 24 61 60 hvcurveto
          784 vmoveto
          -82 -98 82 hlineto
          endchar
        </CharString>
        <CharString name="jcircumflex">
          -325 -182 69 -57 57 639 -20 81 135 -56 56 hstemhm
          50 82 hintmask 10110100
          132 526 rmoveto
          -82 -591 hlineto
          -31 -16 -17 -31 vhcurveto
          -44 hlineto
          hintmask 01110100
          -57 vlineto
          hintmask 10110100
          -6 17 28 -6 24 hhcurveto
          80 24 61 60 hvcurveto
          -2 783 rmoveto
          -78 hlineto
          -86 -135 rlineto
          80 hlineto
          hintmask 10101100
          46 79 rlineto
          hintmask 10110100
          44 -79 rlineto
          80 hlineto
          endchar
        </CharString>
        <CharString name="k">
          -97 21 -21 526 -20 217 -20 hstem
          60 82 vstem
          142 723 rmoveto
          -82 -723 82 179 hlineto
          56 61 120 -240 rlineto
          93 hlineto
          -163 310 155 216 rlineto
          -91 hlineto
          -170 -244 rlineto
          endchar
        </CharString>
        <CharString name="kcommaaccent">
          -97 -151 91 81 -21 526 -20 217 -20 hstemhm
          60 82 21 85 hintmask 11111000
          142 723 rmoveto
          -82 -723 82 179 hlineto
          56 61 120 -240 rlineto
          93 hlineto
          -163 310 155 216 rlineto
          -91 hlineto
          -170 -244 rlineto
          hintmask 11111100
          106 -342 rmoveto
          -85 -91 34 hlineto
          -23 -71 rlineto
          45 hlineto
          29 78 rlineto
          endchar
        </CharString>
        <CharString name="kgreenlandic">
          -99 21 -21 526 -20 hstem
          60 82 vstem
          403 526 rmoveto
          -91 hlineto
          -170 -244 rlineto
          244 -82 -526 82 179 vlineto
          56 61 120 -240 rlineto
          93 hlineto
          -163 310 rlineto
          endchar
        </CharString>
        <CharString name="l">
          -325 21 -21 723 -20 hstem
          50 82 vstem
          132 723 rmoveto
          -82 -723 82 hlineto
          endchar
        </CharString>
        <CharString name="lacute">
          -325 21 -21 723 -20 48 132 hstemhm
          50 82 hintmask 11010000
          132 hmoveto
          723 -82 -723 vlineto
          hintmask 11110000
          158 880 rmoveto
          3 -90 vlineto
          -86 -132 rlineto
          69 hlineto
          endchar
        </CharString>
        <CharString name="lcaron">
          -268 21 -21 578 108 -108 145 hstemhm
          50 82 40 100 hintmask 10111000
          132 723 rmoveto
          -82 -723 82 hlineto
          hintmask 11011000
          140 686 rmoveto
          -100 -108 40 hlineto
          -40 -124 rlineto
          52 hlineto
          48 133 rlineto
          endchar
        </CharString>
        <CharString name="lcommaaccent">
          -325 -151 91 81 -21 723 -20 hstem
          50 82 vstem
          132 723 rmoveto
          -82 -723 82 hlineto
          2 -60 rmoveto
          -85 -91 34 hlineto
          -22 -71 rlineto
          44 hlineto
          29 78 rlineto
          endchar
        </CharString>
        <CharString name="ldot">
          -184 21 -21 288 111 324 -20 hstem
          50 82 40 101 vstem
          132 723 rmoveto
          -82 -723 82 hlineto
          141 399 rmoveto
          -101 -111 101 hlineto
          endchar
        </CharString>
        <CharString name="less">
          -28 4 500 hstem
          44 81 vstem
          436 504 rmoveto
          -392 -197 rlineto
          -107 vlineto
          392 -196 rlineto
          90 vlineto
          -311 160 311 160 rlineto
          endchar
        </CharString>
        <CharString name="lessequal">
          42 0 83 hstem
          78 81 vstem
          470 604 rmoveto
          -392 -197 rlineto
          -107 vlineto
          392 -196 rlineto
          90 vlineto
          -311 160 311 160 rlineto
          1 -431 rmoveto
          -392 -83 392 hlineto
          endchar
        </CharString>
        <CharString name="lira">
          -51 0 79 151 71 50 72 202 73 hstem
          91 83 157 82 vstem
          252 698 rmoveto
          -101 -60 -66 -133 hvcurveto
          -76 -72 -72 72 -50 -72 -71 72 -151 -61 -79 383 79 -249 vlineto
          10 151 rlineto
          133 71 -133 50 133 72 -133 92 hlineto
          76 27 34 51 51 28 -37 -81 vhcurveto
          -16 82 13 vlineto
          143 -63 51 -98 vhcurveto
          endchar
        </CharString>
        <CharString name="logicalnot">
          -28 360 93 hstem
          351 84 vstem
          435 453 rmoveto
          -396 -93 312 -163 84 hlineto
          endchar
        </CharString>
        <CharString name="longs">
          -325 21 -21 453 73 136 69 hstem
          55 82 vstem
          159 731 rmoveto
          -80 -24 -61 -60 hvcurveto
          -84 -46 -73 46 -453 82 614 vlineto
          31 16 17 31 vhcurveto
          44 57 hlineto
          6 -17 -28 6 -24 hhcurveto
          endchar
        </CharString>
        <CharString name="lslash">
          -325 21 -21 723 -20 hstem
          50 82 vstem
          132 723 rmoveto
          -82 -405 hlineto
          -71 -63 rlineto
          -71 vlineto
          71 62 rlineto
          -246 82 319 vlineto
          87 77 rlineto
          72 vlineto
          -87 -77 rlineto
          endchar
        </CharString>
        <CharString name="m">
          176 21 -21 465 73 -12 -20 hstemhm
          60 82 159 82 158 82 hintmask 11011100
          499 538 rmoveto
          -50 -50 -26 -50 -28 hvcurveto
          54 -19 -41 22 -52 hhcurveto
          -50 -42 -21 -52 -28 hvcurveto
          -6 hlineto
          hintmask 10111100
          -11 61 rlineto
          -62 -526 82 321 hlineto
          hintmask 11011100
          91 42 53 49 39 29 -19 -73 vhcurveto
          -373 82 321 vlineto
          91 41 53 49 39 29 -19 -73 vhcurveto
          -373 82 379 vlineto
          117 -50 42 -74 vhcurveto
          endchar
        </CharString>
        <CharString name="macron">
          -234 599 72 hstem
          12 250 vstem
          262 671 rmoveto
          -250 -72 250 hlineto
          endchar
        </CharString>
        <CharString name="minus">
          -28 213 84 hstem
          43 392 vstem
          435 297 rmoveto
          -392 -84 392 hlineto
          endchar
        </CharString>
        <CharString name="minute">
          -350 526 160 hstem
          23 116 vstem
          138 686 rmoveto
          -90 hlineto
          -25 -160 rlineto
          69 hlineto
          47 157 rlineto
          endchar
        </CharString>
        <CharString name="mu">
          -51 -152 -21 161 73 -45 -21 26 -21 526 -20 hstemhm
          60 82 172 82 hintmask 10011110
          396 526 rmoveto
          -82 -321 hlineto
          hintmask 11001110
          -91 -46 -53 -52 -42 -32 17 64 vhcurveto
          384 -82 -699 82 vlineto
          hintmask 10101110
          168 vlineto
          hintmask 11001110
          -5 14 16 -2 18 hhcurveto
          52 46 21 52 29 hvcurveto
          6 hlineto
          hintmask 10011110
          11 -61 rlineto
          62 hlineto
          endchar
        </CharString>
        <CharString name="multiply">
          -28 45 421 hstem
          38 417 vstem
          247 314 rmoveto
          -154 152 -55 -59 153 -152 -153 -151 55 -59 154 150 50 -50 52 -50 51 -50 rlinecurve
          55 59 -153 151 153 152 -55 59 rlineto
          endchar
        </CharString>
        <CharString name="n">
          -51 21 -21 465 73 -12 -20 hstemhm
          60 82 172 82 hintmask 11011000
          266 538 rmoveto
          -52 -46 -21 -52 -29 hvcurveto
          -6 hlineto
          hintmask 10111000
          -11 61 rlineto
          -62 -526 82 321 hlineto
          hintmask 11011000
          91 46 53 52 44 30 -19 -73 vhcurveto
          -373 82 379 vlineto
          117 -51 42 -79 vhcurveto
          endchar
        </CharString>
        <CharString name="nacute">
          -51 21 -21 465 73 -12 -20 85 132 hstemhm
          60 82 172 82 hintmask 11011100
          266 538 rmoveto
          -52 -46 -21 -52 -29 hvcurveto
          -6 hlineto
          hintmask 10111100
          -11 61 rlineto
          -62 -526 82 321 hlineto
          hintmask 11011100
          91 46 53 52 44 30 -19 -73 vhcurveto
          -373 82 379 vlineto
          117 -51 42 -79 vhcurveto
          79 182 rmoveto
          -1 3 rlineto
          -90 hlineto
          -86 -132 rlineto
          70 hlineto
          endchar
        </CharString>
        <CharString name="napostrophe">
          66 21 -21 465 73 -12 -20 88 91 hstemhm
          47 86 44 82 172 82 hintmask 11011110
          133 685 rmoveto
          -86 -91 35 hlineto
          -23 -71 rlineto
          45 hlineto
          29 78 rlineto
          250 -63 rmoveto
          -52 -46 -21 -52 -29 hvcurveto
          -6 hlineto
          hintmask 10111110
          -11 61 rlineto
          -62 -526 82 321 hlineto
          hintmask 11011110
          91 46 53 51 45 30 -19 -73 vhcurveto
          -373 82 379 vlineto
          117 -51 42 -79 vhcurveto
          endchar
        </CharString>
        <CharString name="ncaron">
          -51 21 -21 465 73 -12 -20 82 135 hstemhm
          60 82 172 82 hintmask 11011100
          266 538 rmoveto
          -52 -46 -21 -52 -29 hvcurveto
          -6 hlineto
          hintmask 10111100
          -11 61 rlineto
          -62 -526 82 321 hlineto
          hintmask 11011100
          91 46 53 52 44 30 -19 -73 vhcurveto
          -373 82 379 vlineto
          117 -51 42 -79 vhcurveto
          87 185 rmoveto
          -80 hlineto
          -45 -79 -44 79 rlineto
          -80 hlineto
          84 -135 rlineto
          79 hlineto
          endchar
        </CharString>
        <CharString name="ncommaaccent">
          -51 -151 91 81 -21 465 73 -12 -20 hstemhm
          60 82 44 85 43 82 hintmask 11101110
          266 538 rmoveto
          -52 -46 -21 -52 -29 hvcurveto
          -6 hlineto
          hintmask 11011110
          -11 61 rlineto
          -62 -526 82 321 hlineto
          hintmask 11101110
          91 46 53 52 44 30 -19 -73 vhcurveto
          -373 82 379 vlineto
          117 -51 42 -79 vhcurveto
          5 -598 rmoveto
          -85 -91 34 hlineto
          -23 -71 rlineto
          45 hlineto
          29 78 rlineto
          endchar
        </CharString>
        <CharString name="nine">
          -51 -12 73 194 72 298 73 hstemhm
          40 84 -66 83 191 84 hintmask 11110100
          219 698 rmoveto
          -103 -76 -85 -137 -123 55 -98 116 50 41 24 40 30 hvcurveto
          -158 -2 -18 -100 -80 hhcurveto
          hintmask 11101100
          -61 -30 55 95 hvcurveto
          -83 hlineto
          -127 50 -96 120 118 70 89 286 vhcurveto
          hintmask 11110100
          254 -74 81 -123 vhcurveto
          5 -73 rmoveto
          69 32 -67 -82 -82 -32 -67 -69 -69 -31 67 82 82 31 67 69 hvcurveto
          endchar
        </CharString>
        <CharString name="notequal">
          42 106 83 129 84 hstem
          82 392 vstem
          425 484 rmoveto
          -61 hlineto
          -42 -82 rlineto
          -240 -84 197 hlineto
          -65 -129 rlineto
          -132 -83 90 hlineto
          -41 -81 rlineto
          61 hlineto
          41 81 rlineto
          241 83 -199 hlineto
          65 129 rlineto
          134 84 -91 hlineto
          endchar
        </CharString>
        <CharString name="ntilde">
          -51 21 -21 465 73 -12 -20 113 73 -42 73 hstemhm
          60 82 172 82 hintmask 11001110
          266 538 rmoveto
          -52 -46 -21 -52 -29 hvcurveto
          -6 hlineto
          hintmask 10101110
          -11 61 rlineto
          -62 -526 82 321 hlineto
          hintmask 11001110
          91 46 53 52 44 30 -19 -73 vhcurveto
          -373 82 379 vlineto
          117 -51 42 -79 vhcurveto
          50 185 rmoveto
          hintmask 11010110
          -23 -3 -13 -8 -18 hhcurveto
          -19 -18 8 8 -19 hvcurveto
          hintmask 11001110
          7 -18 -19 8 -22 hhcurveto
          -30 -21 -14 -21 -14 hvcurveto
          hintmask 11010110
          -14 -20 -6 -26 -23 vvcurveto
          58 hlineto
          hintmask 11001110
          23 3 13 8 18 hhcurveto
          hintmask 11010110
          39 33 -31 43 hhcurveto
          hintmask 11001110
          60 25 58 46 hvcurveto
          endchar
        </CharString>
        <CharString name="numbersign">
          -51 21 -21 179 76 155 76 210 -20 hstem
          9 434 vstem
          430 696 rmoveto
          -76 hlineto
          -47 -210 rlineto
          -90 hlineto
          47 210 rlineto
          -76 hlineto
          -47 -210 rlineto
          -93 -76 76 hlineto
          -34 -155 rlineto
          -81 -76 64 hlineto
          -40 -179 rlineto
          76 hlineto
          40 179 rlineto
          90 hlineto
          -40 -179 rlineto
          76 hlineto
          40 179 rlineto
          88 76 -71 hlineto
          34 155 rlineto
          77 76 -60 hlineto
          -93 -76 rmoveto
          -34 -155 rlineto
          -90 hlineto
          34 155 rlineto
          endchar
        </CharString>
        <CharString name="o">
          -51 -12 73 404 73 hstem
          40 86 204 86 vstem
          228 538 rmoveto
          -123 -65 -86 -189 -189 65 -86 123 123 65 86 189 189 -65 86 -123 hvcurveto
          -73 vmoveto
          68 34 -62 -121 hvcurveto
          -38 vlineto
          -121 -34 -62 -68 -68 -34 62 121 vhcurveto
          38 vlineto
          121 34 62 68 vhcurveto
          endchar
        </CharString>
        <CharString name="oacute">
          -51 -12 73 404 73 53 132 hstem
          40 86 204 86 vstem
          228 538 rmoveto
          -123 -65 -86 -189 -189 65 -86 123 123 65 86 189 189 -65 86 -123 hvcurveto
          -73 vmoveto
          68 34 -62 -121 hvcurveto
          -38 vlineto
          -121 -34 -62 -68 -68 -34 62 121 vhcurveto
          38 vlineto
          121 34 62 68 vhcurveto
          117 255 rmoveto
          -1 3 rlineto
          -90 hlineto
          -86 -132 rlineto
          70 hlineto
          endchar
        </CharString>
        <CharString name="obreve">
          -51 -12 73 404 73 88 64 -64 97 hstemhm
          40 86 204 86 hintmask 11101100
          228 538 rmoveto
          -123 -65 -86 -189 -189 65 -86 123 123 65 86 189 189 -65 86 -123 hvcurveto
          -73 vmoveto
          68 34 -62 -121 hvcurveto
          -38 vlineto
          -121 -34 -62 -68 -68 -34 62 121 vhcurveto
          38 vlineto
          121 34 62 68 vhcurveto
          hintmask 11011100
          60 258 rmoveto
          hintmask 11101100
          -14 -2 -24 -19 -34 hhcurveto
          -17 -14 5 6 -10 hvcurveto
          hintmask 11011100
          -10 7 -6 8 -2 7 rrcurveto
          -65 hlineto
          hintmask 11101100
          -45 48 -52 76 39 31 13 19 21 vhcurveto
          hintmask 11011100
          21 18 12 25 22 vvcurveto
          endchar
        </CharString>
        <CharString name="ocircumflex">
          -51 -12 73 404 73 49 135 -56 56 hstemhm
          40 86 204 86 hintmask 11101100
          228 538 rmoveto
          -123 -65 -86 -189 -189 65 -86 123 123 65 86 189 189 -65 86 -123 hvcurveto
          -73 vmoveto
          68 34 -62 -121 hvcurveto
          -38 vlineto
          -121 -34 -62 -68 -68 -34 62 121 vhcurveto
          38 vlineto
          121 34 62 68 vhcurveto
          40 257 rmoveto
          -79 hlineto
          -85 -135 rlineto
          80 hlineto
          hintmask 11011100
          45 79 rlineto
          hintmask 11101100
          44 -79 rlineto
          80 hlineto
          endchar
        </CharString>
        <CharString name="odieresis">
          -51 -12 73 404 73 90 95 hstemhm
          40 86 -17 87 63 88 -17 86 hintmask 11110010
          228 538 rmoveto
          -123 -65 -86 -189 -189 65 -86 123 123 65 86 189 189 -65 86 -123 hvcurveto
          -73 vmoveto
          68 34 -62 -121 hvcurveto
          -38 vlineto
          -121 -34 -62 -68 -68 -34 62 121 vhcurveto
          38 vlineto
          121 34 62 68 vhcurveto
          hintmask 11101100
          119 258 rmoveto
          -88 -95 88 hlineto
          -151 95 rmoveto
          -87 -95 87 hlineto
          endchar
        </CharString>
        <CharString name="oe">
          267 -12 73 178 73 153 73 hstem
          53 86 204 88 199 86 vstem
          543 538 rmoveto
          -71 -52 -25 -52 -33 hvcurveto
          52 -31 -49 25 -66 hhcurveto
          -123 -65 -86 -189 -189 65 -86 123 65 50 24 52 31 hvcurveto
          -53 33 53 -23 71 hhcurveto
          102 70 73 118 hvcurveto
          -81 hlineto
          -73 -37 -45 -52 -78 -36 55 123 -1 vhcurveto
          285 52 hlineto
          176 -58 71 -115 vhcurveto
          -302 -73 rmoveto
          68 34 -62 -121 hvcurveto
          -38 vlineto
          -121 -34 -62 -68 -68 -34 62 121 vhcurveto
          38 vlineto
          121 34 62 68 vhcurveto
          302 hmoveto
          57 30 -53 -100 hvcurveto
          -198 hlineto
          101 7 31 52 73 hhcurveto
          endchar
        </CharString>
        <CharString name="ogonek">
          -234 -182 65 hstem
          72 78 vstem
          180 12 rmoveto
          -60 hlineto
          -25 -26 -23 -29 -49 vvcurveto
          -69 51 -21 43 20 20 5 9 21 vhcurveto
          51 -32 vlineto
          -33 -12 27 28 28 18 28 12 14 hvcurveto
          endchar
        </CharString>
        <CharString name="ograve">
          -51 -12 73 404 73 53 132 hstem
          40 86 204 86 vstem
          228 538 rmoveto
          -123 -65 -86 -189 -189 65 -86 123 123 65 86 189 189 -65 86 -123 hvcurveto
          -73 vmoveto
          68 34 -62 -121 hvcurveto
          -38 vlineto
          -121 -34 -62 -68 -68 -34 62 121 vhcurveto
          38 vlineto
          121 34 62 68 vhcurveto
          60 126 rmoveto
          -86 132 rlineto
          -91 hlineto
          -1 -3 109 -129 rlineto
          endchar
        </CharString>
        <CharString name="ohungarumlaut">
          -51 -12 73 404 73 53 132 hstem
          40 86 204 86 vstem
          228 538 rmoveto
          -123 -65 -86 -189 -189 65 -86 123 123 65 86 189 189 -65 86 -123 hvcurveto
          -73 vmoveto
          68 34 -62 -121 hvcurveto
          -38 vlineto
          -121 -34 -62 -68 -68 -34 62 121 vhcurveto
          38 vlineto
          121 34 62 68 vhcurveto
          187 258 rmoveto
          -90 hlineto
          -62 -132 rlineto
          69 hlineto
          84 129 rlineto
          -132 3 rmoveto
          -90 hlineto
          -62 -132 rlineto
          69 hlineto
          84 129 rlineto
          endchar
        </CharString>
        <CharString name="omacron">
          -51 -12 73 404 73 61 72 hstemhm
          40 86 -23 251 -24 86 hintmask 11110100
          228 538 rmoveto
          -123 -65 -86 -189 -189 65 -86 123 123 65 86 189 189 -65 86 -123 hvcurveto
          -73 vmoveto
          68 34 -62 -121 hvcurveto
          -38 vlineto
          -121 -34 -62 -68 -68 -34 62 121 vhcurveto
          38 vlineto
          121 34 62 68 vhcurveto
          hintmask 11101000
          126 206 rmoveto
          -251 -72 251 hlineto
          endchar
        </CharString>
        <CharString name="one">
          -51 0 73 488 52 73 -20 hstem
          213 82 vstem
          295 686 rmoveto
          -32 hlineto
          -64 -38 -94 -29 -56 -6 rrcurveto
          -52 164 -488 -163 -73 395 73 -150 vlineto
          endchar
        </CharString>
        <CharString name="oneeighth">
          177 -12 58 128 57 53 58 8 58 192 43 43 -20 32 -20 hstemhm
          109 62 244 63 -55 62 90 62 -56 63 hintmask 1110101110010000
          530 174 rmoveto
          34 17 -25 -39 -40 -17 -24 -34 -34 -18 24 40 39 18 25 34 hvcurveto
          hintmask 1111101101100000
          234 vmoveto
          -70 -37 -53 -64 -35 15 -31 25 -21 hvcurveto
          hintmask 1110101110010000
          -32 -20 -16 -34 -40 vvcurveto
          -66 33 -56 82 81 33 56 66 40 -12 32 -36 21 vhcurveto
          hintmask 1110101110100000
          26 21 15 32 35 vvcurveto
          hintmask 1111101101100000
          64 -37 53 -70 vhcurveto
          -58 vmoveto
          27 18 -22 -37 hvcurveto
          hintmask 1110101101100000
          -38 -18 -22 -27 -27 -18 22 38 vhcurveto
          hintmask 1111101101100000
          37 18 22 27 vhcurveto
          hintmask 1110101110100000
          61 348 rmoveto
          -62 hlineto
          -416 -710 rlineto
          63 hlineto
          hintmask 1110110110010000
          -5 698 rmoveto
          -29 hlineto
          -31 -21 -51 -18 -31 -4 rrcurveto
          -43 80 -258 -79 -58 214 58 -73 vlineto
          endchar
        </CharString>
        <CharString name="onehalf">
          177 0 63 -54 -21 296 58 12 59 187 43 43 -20 32 -20 hstemhm
          111 62 244 65 92 66 hintmask 1010101111000000
          582 698 rmoveto
          -62 hlineto
          hintmask 0110110111000000
          -416 -710 rlineto
          63 hlineto
          6 698 rmoveto
          -29 hlineto
          -31 -21 -51 -18 -31 -4 rrcurveto
          -43 80 -258 -79 -58 214 58 -73 vlineto
          hintmask 1011101111000000
          357 71 rmoveto
          -60 -53 -37 -89 -13 2 -17 0 hvcurveto
          63 31 hlineto
          36 13 30 34 36 9 -28 -22 vhcurveto
          -107 -161 -57 -124 vvcurveto
          -16 228 63 -151 vlineto
          12 27 25 22 19 21 rrcurveto
          43 47 51 58 66 vvcurveto
          78 -50 31 -60 vhcurveto
          endchar
        </CharString>
        <CharString name="onequarter">
          177 0 153 -144 -21 108 57 131 58 258 43 43 -20 32 -20 hstemhm
          111 62 367 62 hintmask 1001101110000000
          593 698 rmoveto
          -62 hlineto
          hintmask 0111110110000000
          -416 -710 rlineto
          63 hlineto
          -5 698 rmoveto
          -29 hlineto
          -31 -21 -51 -18 -31 -4 rrcurveto
          -43 80 -258 -79 -58 214 58 -73 vlineto
          320 71 rmoveto
          -25 -92 -37 -97 -42 -76 rrcurveto
          -52 151 vlineto
          hintmask 1001101110000000
          -96 62 vlineto
          hintmask 0011101110000000
          96 40 vlineto
          hintmask 1001101110000000
          57 -40 202 -27 vlineto
          -8 -39 -18 -48 -9 -24 rrcurveto
          -91 -85 vlineto
          26 44 52 114 22 102 rrcurveto
          endchar
        </CharString>
        <CharString name="onesuperior">
          -234 322 58 258 43 43 -20 hstem
          119 62 vstem
          181 724 rmoveto
          -29 hlineto
          -31 -21 -51 -18 -31 -4 rrcurveto
          -43 80 -258 -79 -58 214 58 -73 vlineto
          endchar
        </CharString>
        <CharString name="ordfeminine">
          -204 362 53 -50 50 116 53 99 52 hstemhm
          20 62 -48 59 106 59 hintmask 10111010
          149 735 rmoveto
          hintmask 10110110
          -67 -48 -34 -66 hvcurveto
          -17 59 10 vlineto
          27 13 28 40 42 11 -23 -33 vhcurveto
          -43 vlineto
          hintmask 10111010
          -103 -76 -21 -100 -87 59 -14 36 37 31 17 29 19 hvcurveto
          hintmask 01111010
          -26 8 21 -17 29 hhcurveto
          17 14 4 5 7 hvcurveto
          41 -23 vlineto
          -8 -9 6 16 hvcurveto
          198 vlineto
          hintmask 10111010
          63 -36 37 -73 vhcurveto
          50 -235 rmoveto
          -57 -38 -28 -33 -30 -16 13 38 54 48 11 69 vhcurveto
          endchar
        </CharString>
        <CharString name="ordmasculine">
          -208 361 53 268 53 hstem
          21 62 133 61 vstem
          149 735 rmoveto
          -83 -45 -59 -128 -128 45 -59 83 84 44 59 128 128 -44 59 -84 hvcurveto
          -53 vmoveto
          45 22 -41 -80 hvcurveto
          -26 vlineto
          -80 -22 -41 -45 -45 -21 41 80 vhcurveto
          26 vlineto
          80 21 41 45 vhcurveto
          endchar
        </CharString>
        <CharString name="orthogonal">
          472 0 66 hstem
          177 74 vstem
          251 625 rmoveto
          -74 -625 625 66 -551 hlineto
          endchar
        </CharString>
        <CharString name="oslash">
          -6 -12 73 404 73 hstem
          62 86 204 86 vstem
          438 558 rmoveto
          -55 hlineto
          -28 -51 rlineto
          21 -28 -35 10 -42 hhcurveto
          -123 -65 -86 -189 -95 16 -68 31 -45 hvcurveto
          -47 -87 rlineto
          55 hlineto
          27 51 rlineto
          -21 28 36 -10 42 hhcurveto
          123 65 86 189 94 -16 69 -32 45 hvcurveto
          -49 -91 rmoveto
          7 -26 4 -33 -39 vvcurveto
          -38 vlineto
          -121 -34 -62 -68 -28 -22 10 20 -16 vhcurveto
          66 374 rmoveto
          27 22 -10 -20 17 hvcurveto
          -158 -290 rlineto
          -7 27 -3 33 39 vvcurveto
          38 vlineto
          121 34 62 68 vhcurveto
          endchar
        </CharString>
        <CharString name="oslashacute">
          -6 -12 73 404 73 53 132 hstem
          62 86 204 86 vstem
          438 558 rmoveto
          -55 hlineto
          -28 -51 rlineto
          21 -28 -35 10 -42 hhcurveto
          -123 -65 -86 -189 -95 16 -68 31 -45 hvcurveto
          -47 -87 rlineto
          55 hlineto
          27 51 rlineto
          -21 28 36 -10 42 hhcurveto
          123 65 86 189 94 -16 69 -32 45 hvcurveto
          -49 -91 rmoveto
          7 -26 4 -33 -39 vvcurveto
          -38 vlineto
          -121 -34 -62 -68 -28 -22 10 20 -16 vhcurveto
          66 374 rmoveto
          27 22 -10 -20 17 hvcurveto
          -158 -290 rlineto
          -7 27 -3 33 39 vvcurveto
          38 vlineto
          121 34 62 68 vhcurveto
          118 255 rmoveto
          -1 3 rlineto
          -90 hlineto
          -86 -132 rlineto
          69 hlineto
          endchar
        </CharString>
        <CharString name="otilde">
          -51 -12 73 404 73 81 73 -42 73 hstemhm
          40 86 204 86 hintmask 11011100
          228 538 rmoveto
          -123 -65 -86 -189 -189 65 -86 123 123 65 86 189 189 -65 86 -123 hvcurveto
          -73 vmoveto
          68 34 -62 -121 hvcurveto
          -38 vlineto
          -121 -34 -62 -68 -68 -34 62 121 vhcurveto
          38 vlineto
          121 34 62 68 vhcurveto
          88 258 rmoveto
          hintmask 11101100
          -23 -3 -13 -8 -18 hhcurveto
          -19 -18 8 8 -19 hvcurveto
          hintmask 11011100
          7 -18 -19 8 -22 hhcurveto
          -30 -21 -14 -21 -14 hvcurveto
          hintmask 11101100
          -14 -20 -6 -26 -23 vvcurveto
          58 hlineto
          hintmask 11011100
          23 3 13 8 18 hhcurveto
          hintmask 11101100
          39 33 -31 43 hhcurveto
          hintmask 11011100
          60 25 58 46 hvcurveto
          endchar
        </CharString>
        <CharString name="p">
          -51 -152 -21 161 73 404 73 -12 -20 hstemhm
          60 82 188 86 hintmask 11101100
          253 538 rmoveto
          -48 -42 -25 -48 -25 hvcurveto
          -5 hlineto
          hintmask 11011100
          -11 61 rlineto
          -62 -699 82 219 5 hlineto
          -36 18 43 -22 51 hhcurveto
          87 70 83 191 hvcurveto
          hintmask 11101100
          193 -63 83 -100 vhcurveto
          -17 -73 rmoveto
          63 31 -52 -131 hvcurveto
          -38 vlineto
          -131 -31 -52 -63 -63 -31 62 121 vhcurveto
          38 vlineto
          121 31 62 63 vhcurveto
          endchar
        </CharString>
        <CharString name="paragraph">
          -67 -152 -21 798 61 hstem
          187 65 53 66 vstem
          419 686 rmoveto
          -209 hlineto
          -107 -85 -98 -121 -113 73 -91 96 -13 hvcurveto
          -423 65 798 53 -798 66 798 48 vlineto
          endchar
        </CharString>
        <CharString name="parenleft">
          -234 -157 892 hstem
          40 85 vstem
          204 735 rmoveto
          -105 -123 -59 -160 -164 vvcurveto
          -164 59 -158 105 -123 vhcurveto
          54 hlineto
          -75 122 -58 169 156 vvcurveto
          156 58 167 75 122 vhcurveto
          endchar
        </CharString>
        <CharString name="parenright">
          -234 -157 892 hstem
          148 85 vstem
          15 735 rmoveto
          75 -122 58 -167 -156 vvcurveto
          -156 -58 -169 -75 -122 vhcurveto
          54 hlineto
          105 123 59 158 164 vvcurveto
          164 -59 160 -105 123 vhcurveto
          endchar
        </CharString>
        <CharString name="partialdiff">
          -13 -12 73 321 67 217 69 hstem
          56 85 216 79 vstem
          222 735 rmoveto
          -48 -33 -13 -16 -27 hvcurveto
          -74 vlineto
          18 23 31 16 44 hhcurveto
          83 62 -110 -142 -9 0 -19 -1 -6 hvcurveto
          -4 hlineto
          26 -13 -39 43 -65 hhcurveto
          -93 -86 -93 -152 -116 55 -100 106 141 78 148 247 250 -106 102 -108 hvcurveto
          26 -353 rmoveto
          54 36 -46 -37 11 hvcurveto
          -122 -9 -45 -116 -71 hhcurveto
          -52 -31 56 84 97 46 84 61 hvcurveto
          endchar
        </CharString>
        <CharString name="percent">
          222 -12 59 -26 -21 290 59 -12 59 243 59 -12 -20 hstemhm
          45 69 118 69 136 69 118 69 hintmask 1001101111000000
          173 698 rmoveto
          -80 -48 -42 -139 -138 48 -42 80 80 48 41 139 139 -48 42 -80 hvcurveto
          -59 vmoveto
          48 11 -47 -67 hvcurveto
          -15 vlineto
          -67 -11 -47 -48 -48 -11 47 67 vhcurveto
          15 vlineto
          67 11 47 48 vhcurveto
          hintmask 1010011111000000
          392 -349 rmoveto
          48 11 -47 -67 hvcurveto
          -15 vlineto
          -67 -11 -47 -48 -48 -11 47 67 vhcurveto
          15 vlineto
          67 11 47 48 vhcurveto
          59 vmoveto
          -80 -48 -42 -139 -138 48 -42 80 80 48 41 139 139 -48 42 -80 hvcurveto
          49 337 rmoveto
          -71 hlineto
          hintmask 0101101111000000
          -418 -686 rlineto
          70 hlineto
          endchar
        </CharString>
        <CharString name="period">
          -279 0 108 hstem
          64 100 vstem
          164 108 rmoveto
          -100 -108 100 hlineto
          endchar
        </CharString>
        <CharString name="periodcentered">
          -279 288 111 hstem
          63 101 vstem
          164 399 rmoveto
          -101 -111 101 hlineto
          endchar
        </CharString>
        <CharString name="perthousand">
          313 -12 59 -26 -21 290 59 -12 59 243 59 -12 -20 hstemhm
          35 69 98 69 48 69 98 69 29 69 98 69 hintmask 1010101111010000
          437 349 rmoveto
          -74 -44 -45 -136 -135 44 -45 74 74 44 44 136 136 -44 45 -74 hvcurveto
          -59 vmoveto
          40 9 -47 -67 hvcurveto
          -15 vlineto
          -67 -9 -47 -40 -40 -9 47 67 vhcurveto
          15 vlineto
          67 9 47 40 vhcurveto
          -284 408 rmoveto
          -74 -44 -45 -136 hvcurveto
          hintmask 0001001100000000
          -135 44 -45 74 74 44 44 136 vhcurveto
          hintmask 1010101111010000
          136 -44 45 -74 vhcurveto
          -59 vmoveto
          40 9 -47 -67 hvcurveto
          -15 vlineto
          hintmask 0001001100000000
          -67 -9 -47 -40 -40 -9 47 67 vhcurveto
          15 vlineto
          hintmask 1010101111010000
          67 9 47 40 vhcurveto
          549 -290 rmoveto
          hintmask 1010000000110000
          -74 -44 -45 -136 -135 44 -45 74 74 44 44 136 hvcurveto
          hintmask 1010101111010000
          136 -44 45 -74 vhcurveto
          hintmask 1010010000110000
          -59 vmoveto
          40 9 -47 -67 hvcurveto
          -15 vlineto
          -67 -9 -47 -40 -40 -9 47 67 vhcurveto
          15 vlineto
          67 9 47 40 vhcurveto
          -187 396 rmoveto
          -63 hlineto
          hintmask 0100000001000000
          -378 -686 rlineto
          62 hlineto
          endchar
        </CharString>
        <CharString name="peseta">
          446 -12 73 -71 71 -40 -21 52 9 220 80 92 73 -61 73 68 80 hstemhm
          70 88 305 82 45 87 -75 86 143 86 -76 86 hintmask 1000110111010100
          545 672 rmoveto
          -64 hlineto
          -18 -146 rlineto
          -27 hlineto
          96 -15 -69 64 -118 hhcurveto
          -164 hlineto
          hintmask 0010110111010100
          -686 88 281 76 vlineto
          116 74 68 104 13 hvcurveto
          26 -352 hlineto
          hintmask 0100110111010100
          -55 22 -56 72 20 25 6 8 14 vhcurveto
          hintmask 0001110111010100
          48 vlineto
          hintmask 1000101111010100
          -38 25 46 -26 72 hhcurveto
          97 71 49 113 hvcurveto
          196 -239 -67 115 vvcurveto
          29 12 42 58 vhcurveto
          hintmask 1000101111011000
          56 17 -40 -41 hvcurveto
          -9 85 vlineto
          2 1 10 7 vvcurveto
          78 -53 66 -98 -13 -13 -1 -2 -13 vhcurveto
          hintmask 1000110111100100
          -12 -2 -11 -3 -11 -4 rrcurveto
          -148 hlineto
          46 -362 rmoveto
          -2 -1 -6 -14 vvcurveto
          -29 6 -28 14 -24 vhcurveto
          -23 hlineto
          -28 -14 17 31 hvcurveto
          344 vlineto
          hintmask 1000110111010100
          69 hlineto
          -8 -19 -4 -22 -24 vvcurveto
          -189 239 71 -132 vvcurveto
          -51 -35 -26 -43 vhcurveto
          hintmask 1000110111100100
          -48 -38 27 66 hvcurveto
          10 vlineto
          -446 442 rmoveto
          75 41 -48 -74 -76 -46 -47 -70 hvcurveto
          -73 245 hlineto
          endchar
        </CharString>
        <CharString name="pi">
          49 21 -21 453 73 hstem
          131 82 157 82 vstem
          538 526 rmoveto
          -381 hlineto
          -78 -44 -11 -19 -23 hvcurveto
          12 -56 rlineto
          9 21 30 4 56 hhcurveto
          -3 -129 -28 -218 -33 -106 rrcurveto
          81 hlineto
          32 89 27 235 6 129 rrcurveto
          157 -306 hlineto
          -80 6 -51 9 -16 vhcurveto
          80 hlineto
          -8 30 -5 44 82 vvcurveto
          297 78 vlineto
          endchar
        </CharString>
        <CharString name="plus">
          -28 21 -21 213 84 hstem
          197 83 vstem
          280 511 rmoveto
          -83 -214 -154 -84 154 -213 83 213 155 84 -155 hlineto
          endchar
        </CharString>
        <CharString name="plusminus">
          42 0 83 227 84 hstem
          232 83 vstem
          315 578 rmoveto
          -83 -184 -154 -84 154 -183 83 183 155 84 -155 hlineto
          155 -311 rmoveto
          -392 -83 392 hlineto
          endchar
        </CharString>
        <CharString name="product">
          316 643 80 hstem
          188 81 284 81 vstem
          717 723 rmoveto
          -611 -80 82 -771 81 771 284 -771 81 771 83 hlineto
          endchar
        </CharString>
        <CharString name="q">
          -51 -152 -21 161 73 404 73 -12 -20 hstemhm
          40 86 188 82 hintmask 11101100
          318 465 rmoveto
          48 -25 -42 25 -48 hhcurveto
          -100 -63 -83 -193 -191 70 -83 87 51 43 22 36 18 hvcurveto
          5 -219 82 hlineto
          hintmask 11011100
          699 -62 vlineto
          hintmask 11101100
          -11 -61 rlineto
          -197 -183 rmoveto
          131 31 52 63 63 31 -62 -121 vhcurveto
          -38 vlineto
          -121 -31 -62 -63 -63 -31 52 131 vhcurveto
          endchar
        </CharString>
</ttFont>
